<?xml version="1.0" encoding="UTF-8" ?>
<!DOCTYPE svg PUBLIC "-//W3C//DTD SVG 1.1//EN" "http://www.w3.org/Graphics/SVG/1.1/DTD/svg11.dtd">
<svg width="150pt" height="150pt" viewBox="0 0 150 150" version="1.1" xmlns="http://www.w3.org/2000/svg">
<g id="#d7e7eaff">
<path fill="#d7e7ea" opacity="1.00" d=" M 65.84 22.74 C 70.23 21.91 74.78 21.93 79.18 22.67 C 74.73 22.47 70.28 22.50 65.84 22.74 Z" />
<path fill="#d7e7ea" opacity="1.00" d=" M 54.26 30.24 C 64.16 25.15 76.21 24.37 86.61 28.41 C 96.63 32.17 104.84 40.37 108.63 50.37 C 112.19 59.35 111.89 69.60 108.67 78.63 C 104.65 89.23 96.20 98.07 85.98 102.89 C 78.08 105.32 69.55 106.56 61.40 104.61 C 48.60 101.84 37.59 92.02 33.51 79.55 C 29.98 69.65 31.29 58.71 35.13 49.12 C 39.32 41.06 46.24 34.44 54.26 30.24 M 56.94 35.01 C 45.26 39.72 37.32 51.71 36.37 64.13 C 35.17 78.29 43.69 92.73 56.97 98.03 C 72.85 105.10 93.47 97.82 101.11 82.15 C 109.74 69.83 107.36 51.62 96.94 41.05 C 87.02 30.61 69.35 26.96 56.94 35.01 Z" />
<path fill="#d7e7ea" opacity="1.00" d=" M 101.53 93.61 C 103.20 95.21 104.83 96.84 106.42 98.52 C 105.83 98.95 104.65 99.83 104.06 100.26 C 102.62 98.82 101.18 97.38 99.73 95.94 C 100.18 95.36 101.08 94.19 101.53 93.61 Z" />
</g>
<g id="#2d374bff">
<path fill="#2d374b" opacity="1.00" d=" M 39.18 37.18 C 46.20 29.71 55.61 24.18 65.84 22.74 C 70.28 22.50 74.73 22.47 79.18 22.67 C 90.73 24.42 101.77 31.03 108.02 41.02 C 112.72 48.41 115.11 57.28 115.06 66.02 C 114.47 75.40 110.81 84.48 105.20 91.99 C 111.51 96.14 117.53 100.77 122.78 106.22 C 126.02 109.67 130.94 111.92 132.31 116.80 C 134.25 121.01 131.42 125.54 128.27 128.26 C 124.03 131.61 117.11 130.36 113.95 126.07 C 107.75 118.12 99.89 111.27 95.87 101.82 C 87.96 107.40 78.88 111.80 69.04 112.07 C 56.38 112.67 43.55 107.35 35.23 97.74 C 26.00 87.25 22.52 71.99 26.48 58.56 C 28.38 50.32 33.15 43.00 39.18 37.18 M 54.26 30.24 C 46.24 34.44 39.32 41.06 35.13 49.12 C 33.39 51.48 31.71 53.94 30.74 56.73 C 26.50 69.15 28.58 83.74 37.02 93.96 C 48.13 108.26 70.69 113.27 85.98 102.89 C 96.20 98.07 104.65 89.23 108.67 78.63 C 111.89 69.60 112.19 59.35 108.63 50.37 C 104.84 40.37 96.63 32.17 86.61 28.41 C 76.21 24.37 64.16 25.15 54.26 30.24 M 101.53 93.61 C 101.08 94.19 100.18 95.36 99.73 95.94 C 98.74 96.74 97.76 97.55 96.77 98.35 C 98.35 99.98 99.95 101.59 101.57 103.19 C 102.40 102.21 103.23 101.24 104.06 100.26 C 104.65 99.83 105.83 98.95 106.42 98.52 C 104.83 96.84 103.20 95.21 101.53 93.61 M 104.87 102.55 C 103.83 103.67 102.81 104.81 101.81 105.95 C 106.21 111.29 110.71 116.54 115.21 121.79 C 117.13 123.77 119.12 126.22 122.02 126.65 C 124.33 126.48 126.25 124.95 128.27 123.96 C 128.39 121.63 129.73 118.90 128.14 116.83 C 124.86 112.40 120.40 109.01 115.90 105.91 C 114.23 104.25 112.57 102.59 110.93 100.91 C 110.57 100.38 109.83 99.32 109.46 98.79 C 107.92 100.03 106.39 101.29 104.87 102.55 Z" />
</g>
<g id="#68868eff">
<path fill="#68868e" opacity="1.00" d=" M 56.94 35.01 C 69.35 26.96 87.02 30.61 96.94 41.05 C 107.36 51.62 109.74 69.83 101.11 82.15 C 103.72 72.83 104.64 62.45 100.53 53.41 C 98.48 48.39 94.56 44.54 90.75 40.81 C 88.77 37.54 85.33 35.74 81.61 35.26 C 73.53 33.27 65.05 33.05 56.94 35.01 Z" />
<path fill="#68868e" opacity="1.00" d=" M 30.74 56.73 C 31.71 53.94 33.39 51.48 35.13 49.12 C 31.29 58.71 29.98 69.65 33.51 79.55 C 37.59 92.02 48.60 101.84 61.40 104.61 C 69.55 106.56 78.08 105.32 85.98 102.89 C 70.69 113.27 48.13 108.26 37.02 93.96 C 28.58 83.74 26.50 69.15 30.74 56.73 Z" />
</g>
<g id="#2c354aff">
<path fill="#2c354a" opacity="1.00" d=" M 56.94 35.01 C 65.05 33.05 73.53 33.27 81.61 35.26 C 80.18 36.10 78.75 36.93 77.32 37.75 C 68.29 36.28 58.43 37.18 50.96 42.89 C 37.11 53.38 36.11 76.40 48.71 88.29 C 59.84 99.99 80.37 100.13 91.78 88.79 C 98.67 81.36 101.62 70.38 99.17 60.52 C 98.20 56.74 96.83 53.08 95.37 49.47 C 93.35 46.86 91.45 44.11 90.75 40.81 C 94.56 44.54 98.48 48.39 100.53 53.41 C 104.64 62.45 103.72 72.83 101.11 82.15 C 93.47 97.82 72.85 105.10 56.97 98.03 C 43.69 92.73 35.17 78.29 36.37 64.13 C 37.32 51.71 45.26 39.72 56.94 35.01 Z" />
</g>
<g id="#ffffffff">
<path fill="#ffffff" opacity="1.00" d=" M 77.32 37.75 C 78.75 36.93 80.18 36.10 81.61 35.26 C 85.33 35.74 88.77 37.54 90.75 40.81 C 91.45 44.11 93.35 46.86 95.37 49.47 C 94.75 50.79 94.14 52.12 93.34 53.34 C 88.35 52.45 83.48 50.68 78.58 49.30 C 74.31 46.98 76.46 41.43 77.32 37.75 Z" />
</g>
<g id="#e6e6e6e6">
<path fill="#e6e6e6" opacity="0.90" d=" M 50.96 42.89 C 58.43 37.18 68.29 36.28 77.32 37.75 C 76.46 41.43 74.31 46.98 78.58 49.30 C 83.48 50.68 88.35 52.45 93.34 53.34 C 94.14 52.12 94.75 50.79 95.37 49.47 C 96.83 53.08 98.20 56.74 99.17 60.52 C 101.62 70.38 98.67 81.36 91.78 88.79 C 80.37 100.13 59.84 99.99 48.71 88.29 C 36.11 76.40 37.11 53.38 50.96 42.89 Z" />
</g>
<g id="#8dacb5ff">
<path fill="#8dacb5" opacity="1.00" d=" M 96.77 98.35 C 97.76 97.55 98.74 96.74 99.73 95.94 C 101.18 97.38 102.62 98.82 104.06 100.26 C 103.23 101.24 102.40 102.21 101.57 103.19 C 99.95 101.59 98.35 99.98 96.77 98.35 Z" />
</g>
<g id="#2b5da7ff">
<path fill="#2b5da7" opacity="1.00" d=" M 104.87 102.55 C 106.39 101.29 107.92 100.03 109.46 98.79 C 109.83 99.32 110.57 100.38 110.93 100.91 C 110.08 101.05 108.39 101.33 107.54 101.47 C 113.12 107.65 118.27 114.84 126.12 118.27 C 123.59 113.48 119.70 109.68 115.90 105.91 C 120.40 109.01 124.86 112.40 128.14 116.83 C 129.73 118.90 128.39 121.63 128.27 123.96 C 124.59 122.53 120.75 121.01 118.12 117.93 C 113.64 112.85 109.47 107.51 104.87 102.55 Z" />
</g>
<g id="#4ebae9ff">
<path fill="#4ebae9" opacity="1.00" d=" M 107.54 101.47 C 108.39 101.33 110.08 101.05 110.93 100.91 C 112.57 102.59 114.23 104.25 115.90 105.91 C 119.70 109.68 123.59 113.48 126.12 118.27 C 118.27 114.84 113.12 107.65 107.54 101.47 Z" />
</g>
<g id="#1b428dff">
<path fill="#1b428d" opacity="1.00" d=" M 101.81 105.95 C 102.81 104.81 103.83 103.67 104.87 102.55 C 109.47 107.51 113.64 112.85 118.12 117.93 C 120.75 121.01 124.59 122.53 128.27 123.96 C 126.25 124.95 124.33 126.48 122.02 126.65 C 119.12 126.22 117.13 123.77 115.21 121.79 C 110.71 116.54 106.21 111.29 101.81 105.95 Z" />
</g>
</svg>
