<?xml version="1.0" encoding="UTF-8"?>
<svg id="_圖層_1" data-name="圖層_1" xmlns="http://www.w3.org/2000/svg" version="1.1" xmlns:xodm="http://www.corel.com/coreldraw/odm/2003" viewBox="0 0 12 19.68">
  <!-- Generator: Adobe Illustrator 30.0.0, SVG Export Plug-In . SVG Version: 2.1.1 Build 123)  -->
  <defs>
    <style>
      .st0 {
        fill: #d04458;
      }

      .st0, .st1, .st2, .st3, .st4, .st5, .st6, .st7, .st8, .st9, .st10, .st11, .st12, .st13, .st14, .st15, .st16, .st17, .st18, .st19, .st20, .st21, .st22, .st23, .st24, .st25, .st26, .st27, .st28, .st29, .st30, .st31, .st32, .st33, .st34, .st35, .st36, .st37, .st38, .st39 {
        fill-rule: evenodd;
      }

      .st0, .st1, .st2, .st3, .st4, .st6, .st7, .st8, .st9, .st11, .st12, .st13, .st14, .st15, .st16, .st17, .st18, .st19, .st20, .st21, .st22, .st23, .st24, .st25, .st26, .st40, .st28, .st30, .st31, .st32, .st33, .st41, .st34, .st35, .st38, .st39 {
        display: none;
      }

      .st1 {
        fill: #fadd57;
      }

      .st2 {
        fill: #ca2b3e;
      }

      .st3 {
        fill: #d49858;
      }

      .st4 {
        fill: #02ae4b;
      }

      .st5 {
        fill: #d55171;
      }

      .st6 {
        fill: #3d3d3d;
      }

      .st7 {
        fill: #d4586d;
      }

      .st8 {
        fill: #c1a32d;
      }

      .st9 {
        fill: #f2f2f2;
      }

      .st10 {
        fill: #ae3655;
      }

      .st11 {
        fill: #cb8429;
      }

      .st42 {
        fill: #ffb4db;
      }

      .st43 {
        fill: #fffb51;
      }

      .st44 {
        fill: #fff;
      }

      .st45 {
        fill: #ff5890;
      }

      .st12 {
        fill: #b57837;
      }

      .st13 {
        fill: #f0f0f0;
      }

      .st14 {
        fill: #fbfafb;
      }

      .st15 {
        fill: #2e8228;
      }

      .st46 {
        fill: #252527;
      }

      .st16 {
        fill: #fefefe;
      }

      .st17 {
        fill: #454545;
      }

      .st18 {
        fill: #2fb22c;
      }

      .st19 {
        fill: #dbdbdb;
      }

      .st47 {
        fill: #9e99a6;
      }

      .st20 {
        fill: #3f3f3f;
      }

      .st48 {
        fill: #7c7883;
      }

      .st49 {
        fill: #00b700;
      }

      .st21 {
        fill: #9b672f;
      }

      .st22 {
        fill: #fffffe;
      }

      .st23 {
        fill: #373737;
      }

      .st24 {
        fill: #b0364a;
      }

      .st25 {
        fill: #ffd326;
      }

      .st26 {
        fill: #6a6a6a;
      }

      .st27 {
        fill: #fefeff;
      }

      .st28 {
        fill: #f6f6f6;
      }

      .st29 {
        fill: #992e48;
      }

      .st30 {
        fill: #8c8c8c;
      }

      .st31 {
        fill: #36982e;
      }

      .st32 {
        fill: #f50100;
      }

      .st33 {
        fill: #353535;
      }

      .st41 {
        fill: #efeeed;
      }

      .st34 {
        fill: #cf8f42;
      }

      .st35 {
        fill: #9a2e40;
      }

      .st36 {
        fill: #d04567;
      }

      .st50 {
        fill: #e6e3e8;
      }

      .st37 {
        fill: #a7334f;
      }

      .st38 {
        fill: #41cb36;
      }

      .st51 {
        fill: #989698;
      }

      .st39 {
        fill: #7b7b7b;
      }
    </style>
  </defs>
  <g id="_圖層_11" data-name="_圖層_1">
    <g id="_圖層_x5F_2">
      <g id="_2131036525840">
        <path class="st0" d="M.79,5.41l-.21,1.24c.05,2.23,2.21,5.42,3.05,7.26.66.1.02-.82-.2-1.29-.78-1.61-1.6-3.35-1.95-5.2l1.63.04c.47,1.38,1.94,2.23,3.69,1.83,1.8-.42,2.07-1.4,2.55-3.22h1.28c0,1.3-.3,2.19-.67,3.21l-.91,2.18c-.18.86-.22.43.13.82.69-1.39,2.25-3.97,2.23-5.64l-.13-1.25c-.44-.26-.29-.17-.61-.7C6.95-1.42,1.33,2.55.86,6.1l-.06-.69h0Z"/>
        <path class="st2" d="M3.64,13.92c.56,1.13,1.64,3.61,2.36,4.36.61-.66,2.68-4.85,3.18-5.98-.35-.39-.31.04-.13-.82l.91-2.18c.37-1.03.67-1.91.67-3.21h-1.28c-.48,1.82-.75,2.8-2.55,3.22-1.74.4-3.22-.45-3.69-1.83l-1.63-.04c.34,1.85,1.17,3.59,1.95,5.2.23.47.86,1.39.2,1.29h0Z"/>
        <path class="st24" d="M5.36,3.88c-.26.05-1.23.9-1.37,1.06-1.12,1.33-.19,4.31,2.54,3.81,3.24-.59,2.19-5.51-1.17-4.88h0Z"/>
        <path class="st35" d="M12,6.65h-.58c.01,1.67-1.54,4.25-2.23,5.64-.5,1.13-2.58,5.32-3.18,5.98-.72-.75-1.8-3.23-2.36-4.36-.84-1.85-3-5.04-3.05-7.26H.02c.05,2.27,2.93,7.12,4.24,9.75.49.99.98,2.47,1.76,3.04.75-.55,1.24-2,1.68-2.88.54-1.08,1.03-2.05,1.6-3.2.83-1.67,2.68-4.55,2.72-6.7h-.02,0Z"/>
        <path class="st16" d="M5.37,4.54c-1.08.45-1.6,1.25-1.14,2.49.31.85,1.4,1.48,2.6,1.02,1.94-.74,1.01-4.54-1.46-3.52h0Z"/>
        <path class="st24" d="M0,6.65h.58l.21-1.24C.93,3,3.35.84,6,.82c2.74-.02,4.88,2.18,5.29,4.58l.13,1.25h.58c0-2.41-.88-3.98-2.46-5.16C5.4-1.6,0,1.51,0,6.65Z"/>
        <path class="st7" d="M.79,5.41l.06.69c.47-3.55,6.1-7.52,9.82-1.39.32.52.17.44.61.7-.41-2.4-2.55-4.6-5.29-4.58-2.64,0-5.06,2.17-5.2,4.58Z"/>
      </g>
    </g>
    <g id="_圖層_x5F_3">
      <g id="_2131036579936">
        <path class="st34" d="M.64,7.04l.05.39c.27,1.58,4.61,9.98,5.31,10.8.68-.81,4.74-8.73,5.1-10.12-.33-.27-.29.57-.24-.74-.75.75-3.23,7.9-4.29,9.44-.49.71-.12.24-.56.61-.77-.63-.94-1.4-1.41-2.41-1.01-2.2-2.9-5.89-3.17-8.02h1.45c.65,3.04,5.61,3.88,6.48-.9h1.29l.03,1.1C12.86,5.97,7.11-1.93,2.44,3.17c-.38.42-.87.89-1.13,1.52-.32.79-.22,1.72-.67,2.35Z"/>
        <path class="st11" d="M10.86,7.36l-.18-.17-.03-1.1h-1.29c-.87,4.78-5.83,3.93-6.48.9h-1.45c.27,2.13,2.15,5.82,3.17,8.02.46,1,.64,1.78,1.41,2.41.45-.37.07.1.56-.61,1.06-1.54,3.55-8.69,4.29-9.44h0Z"/>
        <path class="st21" d="M5.51,4.04c-1.19.29-2.09,1.41-1.8,2.84.23,1.16,1.53,2.13,2.97,1.75,2.84-.75,1.89-5.33-1.17-4.59Z"/>
        <path class="st21" d="M11.76,5.04c-.09.49.05.63-.02,1.2-.12,1.01.07.62-.49,1.19l-.15.68c-.36,1.39-4.42,9.31-5.1,10.12-.71-.82-5.04-9.22-5.31-10.8-.83-1.03-.24-1.45-.45-2.39-.12.19-.19.4-.24.63v1.25c.12.84.42,1.7.65,2.27.99,2.5,2.18,4.37,3.43,6.89.46.93,1.16,2.81,1.92,3.36.77-.57,2.98-5.55,3.6-6.72.92-1.76,2.19-3.67,2.4-5.7v-.91s-.24-1.07-.24-1.07Z"/>
        <path class="st16" d="M5.34,4.52c-.99.42-1.61,1.22-1.13,2.52.32.86,1.4,1.49,2.62,1.03,2.07-.78.99-4.6-1.49-3.55Z"/>
        <path class="st12" d="M.24,5.04c.2.94-.38,1.36.45,2.39l-.05-.39C.37-1.38,12.35-.93,11.25,7.43c.57-.57.37-.18.49-1.19.07-.57-.07-.71.02-1.2-.03-1.34-1.02-2.55-1.95-3.33C5.45-1.97.3,2.18.24,5.04Z"/>
        <path class="st3" d="M.64,7.04c.45-.63.35-1.56.67-2.35.26-.63.75-1.1,1.13-1.52C7.11-1.93,12.86,5.97,10.68,7.19l.18.17c-.05,1.32-.09.48.24.74l.15-.68C12.35-.93.37-1.38.64,7.04Z"/>
      </g>
    </g>
    <g id="_圖層_x5F_4">
      <g id="_2131036568800">
        <path class="st30" d="M3.19,13.2c.82-.36.11-.48-.96-3.18-.5-1.26-.84-2.3-.95-3.78h1.36c.38.68.58,3.11,3.37,3.12,2.37.01,2.57-1.43,3.35-3.12h1.38c-.16,2.04-1.02,3.92-1.88,5.72-1.05,2.21-.65,1.43-.38,1.79.72-2.14,3.03-5.01,3-7.73C11.4-.76,1.17-1.08.55,5.59c-.31,3.32,2.48,5.88,2.65,7.61h0Z"/>
        <path class="st39" d="M3.19,13.2c.48.88,1.03,1.69,1.47,2.52.45.85.66,1.78,1.34,2.51,1.16-1.35,1.34-2.9,2.48-4.48-.27-.36-.67.42.38-1.79.86-1.8,1.72-3.68,1.88-5.72h-1.38c-.78,1.7-.98,3.14-3.35,3.12-2.78-.02-2.99-2.45-3.37-3.12h-1.36c.11,1.48.45,2.52.95,3.78,1.07,2.71,1.78,2.82.96,3.18Z"/>
        <path class="st26" d="M8.48,13.75c-1.15,1.58-1.32,3.14-2.48,4.48-.68-.74-.89-1.66-1.34-2.51-.44-.82-.98-1.63-1.47-2.52-.16-1.73-2.96-4.29-2.65-7.61.63-6.68,10.85-6.36,10.93.42.03,2.73-2.28,5.59-3,7.73h.01ZM0,6.24c0,2.54,1.59,5.1,2.72,7.12.58,1.03.99,1.96,1.52,3.04.49.99.98,2.47,1.76,3.04.75-.55,1.24-2,1.68-2.88.54-1.08,1.03-2.05,1.6-3.2,1.1-2.23,2.72-4.43,2.72-7.12,0-7.89-12-7.83-12,0Z"/>
      </g>
    </g>
    <g id="_圖層_x5F_5">
      <g id="_2131036564864">
        <path class="st20" d="M5.77,4.54c2.24-.52,2.85,3.14.65,3.55-2.32.44-3.4-2.91-.65-3.55ZM0,6.24c0,2.54,1.59,5.1,2.72,7.12.58,1.03.99,1.96,1.52,3.04.49.99.98,2.47,1.76,3.04.75-.55,1.24-2,1.68-2.88.54-1.08,1.03-2.05,1.6-3.2,1.1-2.23,2.72-4.43,2.72-7.12,0-7.89-12-7.83-12,0Z"/>
        <path class="st13" d="M5.77,4.54c-2.75.64-1.67,3.99.65,3.55,2.2-.41,1.58-4.08-.65-3.55Z"/>
      </g>
      <g id="_2134514676592">
        <path class="st17" d="M7.63,13.98c-.13.66-.34,1.01-.62,1.64l-.58,1.15s-.09.11-.13.16l-.94-.48-1.03-2.44c-.65-.55-1.49-2.62-1.87-3.5-.58-1.35-1.03-2.68-1.14-4.24h1.5c.67,3.47,3.22,3.62,4.92,2.69,1.07-.59.7-.7,1.38-1.55h1.41c-.2,1-1.75,5.18-2.49,6.14-.25.33-.14.2-.41.43ZM5.28,4.17c1.48-.64,3.79.66,2.97,3.12-.26.77-.38.95-1.16,1.28-3,1.25-5.2-2.93-1.81-4.4ZM6,18.11c1.67-2.92,3.21-5.96,4.79-9.23C12.85,4.62,9.95.69,6,.7,2.01.7-.77,4.58,1.2,8.89l4.8,9.22Z"/>
        <path class="st6" d="M4.33,14.01c.17-.34-.3-.43,1.67-.43.03,0,.93.06.94.06.74.17.22-.14.69.34.28-.23.16-.1.41-.43.74-.96,2.29-5.14,2.49-6.14h-1.41c-.69.84-.32.96-1.38,1.55-1.7.94-4.25.79-4.92-2.69h-1.5c.11,1.56.56,2.89,1.14,4.24.38.87,1.22,2.94,1.87,3.5Z"/>
        <path class="st33" d="M1.2,8.89C-.77,4.59,2.01.72,6,.7c3.95,0,6.85,3.91,4.79,8.18-1.58,3.27-3.12,6.31-4.79,9.23L1.2,8.89ZM0,6.24c0,2.54,1.59,5.1,2.72,7.12.58,1.03.99,1.96,1.52,3.04.49.99.98,2.47,1.76,3.04.75-.55,1.24-2,1.68-2.88.54-1.08,1.03-2.05,1.6-3.2,1.1-2.23,2.72-4.43,2.72-7.12,0-7.89-12-7.83-12,0Z"/>
        <path class="st23" d="M5.73,4.49c2.38-.53,3.02,3.21.71,3.63-2.47.45-3.4-3.03-.71-3.63ZM5.28,4.17c-3.4,1.47-1.19,5.64,1.81,4.4.78-.32.9-.5,1.16-1.28.83-2.46-1.49-3.76-2.97-3.12Z"/>
        <path class="st19" d="M4.8,5.5c1.51-.77,3-.29,2.22,1.76-.8.35-1.28.35-2.12.06-.34-.87-.33-.74-.1-1.83h0ZM5.73,4.49c-2.69.6-1.76,4.08.71,3.63,2.31-.42,1.68-4.17-.71-3.63Z"/>
        <path class="st9" d="M4.8,5.5c-.22,1.09-.23.95.1,1.83.84.29,1.32.29,2.12-.06.77-2.06-.71-2.54-2.22-1.76h0Z"/>
      </g>
    </g>
    <g id="_圖層_x5F_6">
      <g id="_2134514673568">
        <path class="st8" d="M-.12,5.4c0,3.32,1.67,4.85,2.78,7.54.48,1.17,2.72,6.07,3.46,6.62l2.88-6.24c2.03-4.02,2.88-4.77,2.88-8.16C11.88,2.35,9.12.02,6.1-.12h-.54c-1.32.06-2.66.55-3.82,1.61C.92,2.24-.12,3.92-.12,5.4Z"/>
        <path class="st1" d="M5.87,17.86c.79-.82,3.82-7.63,4.64-9.27,1.92-3.86-.5-8-4.63-7.97C1.72.65-.48,4.69,1.33,8.5c1.46,3.08,3.01,6.42,4.54,9.36Z"/>
        <path class="st25" d="M5.91,16.86c.73-1,3.24-6.71,4.17-8.45,1.9-3.58-.45-7.4-4.19-7.34C2.27,1.13-.04,4.6,1.76,8.33c1.35,2.79,2.74,5.92,4.15,8.53Z"/>
        <path class="st1" d="M5.04,1.69C-1.22,3.24,1.39,12.04,7.46,10.2,12.34,8.71,10.89.25,5.04,1.69Z"/>
        <path class="st8" d="M4.94,3.91c-2.97,1.48-.86,5.53,2.04,4.26,2.69-1.17.94-5.75-2.04-4.26Z"/>
        <path class="st22" d="M5.44,4.14c-2.81.79-1.46,4.43,1.04,3.8,2.39-.6,1.6-4.55-1.04-3.8Z"/>
      </g>
    </g>
    <g id="_圖層_x5F_7">
      <g id="_2134514669440">
        <path class="st18" d="M8.57,5.95c-.16,1.88-1.17,3.19-3.11,2.76-2.51-.56-1.84-2.32-1.61-3.68-.77-.08-.09.62-.54-.3.88-.88,1.51-1.95,3.61-1.4,1.31.34,1.91,1.39,1.99,3.03-.16-.19-.27-.02-.36-.4h.02,0ZM.55,6.35l.07,1.12c.39,1.71,4.71,10.04,5.38,10.78.68-.79,4.98-9.12,5.38-10.78l.06-1.12c-1.11-.9-.25-1.5-2.04-3.27-.8-.8-1.9-1.48-3.42-1.48s-2.61.73-3.39,1.48c-1.45,1.39-1.1,2.52-2.04,3.28h0Z"/>
        <path class="st15" d="M12,6.43c-.49.37-.19.37-.62,1.04-.4,1.66-4.7,9.99-5.38,10.78-.67-.74-4.99-9.07-5.38-10.78-.45-.69-.13-.67-.62-1.04,0,2.51,2.85,7.19,4.24,9.97.49.99.98,2.47,1.76,3.04.75-.55,1.24-2,1.68-2.88,1.34-2.67,4.32-7.74,4.32-10.13Z"/>
        <path class="st31" d="M0,6.43c.49.37.17.35.62,1.04l-.07-1.12C1.69.05,7.09-.22,9.76,2.48c1.15,1.16,1.33,1.89,1.68,3.87l-.06,1.12c.43-.68.13-.67.62-1.04,0-2.09-.69-3.17-1.7-4.25C6.44-1.95,0,1.13,0,6.43Z"/>
        <path class="st28" d="M5.41,4.58c-2.71,1.17-.71,4.35,1.42,3.45,1.98-.84.97-4.48-1.42-3.45Z"/>
        <path class="st38" d="M.55,6.35c.94-.76.59-1.89,2.04-3.28.78-.75,1.94-1.48,3.39-1.48s2.62.69,3.42,1.48c1.79,1.77.93,2.37,2.04,3.27-.35-1.98-.53-2.71-1.68-3.87C7.09-.22,1.69.05.55,6.35Z"/>
        <path class="st31" d="M5.41,4.58c2.39-1.03,3.41,2.6,1.42,3.45-2.13.91-4.13-2.27-1.42-3.45ZM3.86,5.02c-.24,1.36-.9,3.13,1.61,3.68,1.93.43,2.95-.88,3.11-2.76-.33-1.13-.91-1.93-2.11-2.11-1.3-.19-2.06.29-2.6,1.19,0,0,0,0-.01,0Z"/>
        <path class="st38" d="M3.86,5.02c.54-.89,1.3-1.38,2.6-1.19,1.2.18,1.78.98,2.11,2.11.09.38.2.21.36.4-.08-1.63-.69-2.68-1.99-3.03-2.1-.55-2.73.52-3.61,1.4.45.91-.23.21.54.3h0Z"/>
      </g>
    </g>
    <g id="_圖層_x5F_8">
      <g id="_2134514666752">
        <path class="st36" d="M2.94,13.06c.47,1.19,2.4,5.25,3.06,5.98.65-.72,3.17-5.97,3.75-7.36-.4-.48-.34.04-.12-.96,0-.01.41-.95.44-1.01,1.1-2.52,1.17-3.76.94-6.54l-1.38-.28c.23,2.79-.81-2.67-3.71-2.49-3.06.19-3.78,5.67-3.51,2.47l-1.42.32c-.27,3.3.87,7.44,2.28,9.62-.08.39.37.43-.34.25,0,0,0,0,.01,0Z"/>
        <path class="st36" d="M5.42,3.96c3.22-.73,4.26,4.04,1.11,4.77-1.45.33-2.67-.65-2.89-1.82-.26-1.35.61-2.68,1.78-2.94h0ZM1,4.59c-.49.7-.37,1.31-.37,2.29,0,1.77,2.02,5.01,2.75,6.52.61.15.22.11.29-.2-1.21-1.77-2.46-5.28-2.23-7.97l1.5-.12c-.23,2.61.7,4.36,3.32,4.2,2.48-.15,3.05-1.92,2.85-4.19l1.46.05c.19,2.26-.15,3.45-1.09,5.5-.02.05-.37.81-.37.82-.19.81-.24.39.11.78.66-1.44,2.16-3.79,2.16-5.4,0-.98.12-1.58-.35-2.31-.49.41-.07.36-.47-.17-.21-.27-.18-.38-.36-.64-1.43-2.1-4.74-3.18-7.28-1.09-2.01,1.66-1.36,2.68-1.91,1.91v.02h0Z"/>
        <path class="st29" d="M0,7.29c1.66,4.69,2.15,4.93,4.32,9.27.44.88.93,2.33,1.68,2.88.5-.36,4.06-7.31,4.7-8.74.57-1.26.84-2.13,1.3-3.4-.26-.28-.2-.17-.63-.42,0,1.61-1.51,3.96-2.16,5.4-.5,1.13-2.65,5.4-3.21,5.99-.56-.6-2.21-3.9-2.62-4.87-.73-1.51-2.74-4.75-2.75-6.52-.43.25-.37.14-.63.41Z"/>
        <path class="st27" d="M4.1,6.48c.13,2.38,4.14,2.36,3.83-.46-.24-2.25-3.98-2.33-3.83.46Z"/>
        <path class="st10" d="M0,7.29c.26-.27.2-.16.63-.41,0-.98-.12-1.59.37-2.29C1.36,2.72,3.57.84,6,.83c2.43,0,4.63,1.89,5.02,3.75.47.73.36,1.32.35,2.31.43.25.37.14.63.42,0-2.61-.26-3.43-1.47-4.87-.46-.54-.24-.34-.85-.83C7.09-.46,4.01-.17,1.61,2.33.27,3.73,0,4.64,0,7.29Z"/>
        <path class="st5" d="M1,4.59c.55.76-.1-.26,1.91-1.91,2.54-2.09,5.85-1.02,7.28,1.09.18.27.15.37.36.64.4.53-.02.58.47.17-.39-1.86-2.59-3.76-5.02-3.75-2.43,0-4.64,1.89-5,3.76Z"/>
        <path class="st37" d="M4.1,6.48c-.15-2.79,3.59-2.71,3.83-.46.31,2.82-3.7,2.84-3.83.46ZM5.42,3.96c-1.17.26-2.03,1.6-1.78,2.94.22,1.17,1.43,2.16,2.89,1.82,3.15-.72,2.11-5.5-1.11-4.77h0Z"/>
      </g>
    </g>
    <g id="_圖層_x5F_9">
      <path class="st4" d="M.77,4.74c.23,1.23,2.01,2.02,2.97,2.9-.14,1.17-1.18,2.78-1.51,4.06,3.04-.81,2.29-1.41,3.88-2.37.52.21.12,0,.53.35,1.94,1.58.53,1.27,3.28,2.08-.31-1.52-1.39-2.72-1.42-4.34.72-.29,1.13-.7,1.73-1.11.64-.44,1.11-.57,1.17-1.53-.82-.25-1.1-.16-2.01-.11l-1.48.04c-1.09-.07-.7-2.57-1.8-3.76-.54.45-1.07,2.72-1.35,3.56-.68.25-3.24.2-3.99.23Z"/>
    </g>
    <g id="_圖層_x5F_11">
      <path class="st32" d="M9.34,5.35c-.03,1.17.1,1.87-.43,2.8-1.41,2.45-4.81,2.55-6.29.38-1.63-2.39-.38-5.28,2.44-5.89,1.76-.38,1.64.54,2.14-1.19C-.82,1.33-.19,8.14,2.64,10.3c3,2.3,7.74.28,7.96-3.34.1-1.56.25-3.23-1.26-1.62h0Z"/>
      <path class="st32" d="M8.4,5.67c-.82.21-.93,1.03-1.52,1.7-.58.66-1.61.76-2.4.14-.89-.71-.48-1.8.16-2.37s1.62-.79,1.67-1.69c-2.46-.52-4.91,2.68-2.71,4.93,2.44,2.51,5.79-.86,4.8-2.71Z"/>
      <path class="st32" d="M10.54,2.7h-.17l-.17.08s-.42.14-.87,0c-.48-.16-.33-.34-.31-.94l.07-.16-.14-.18c-.66.02-.81.42-1.3.95-1.26,1.34-.1,1.18-1.86,2.85-1.59,1.51-.26,2.05.85.86.45-.49.73-.83,1.45-1.06,1.12-.36.67-.39,1.44-.92.69-.48.99-.42,1.02-1.48h0Z"/>
      <path class="st14" d="M41.89,5.22c-.02.59-.17.77.3.92.44.14.81.01.86,0l.17-.08-.11-.92-1.15-.08s-.07.16-.07.16Z"/>
      <path class="st32" d="M9.34,5.35c-.03,1.17.1,1.87-.43,2.8-1.41,2.45-4.81,2.55-6.29.38-1.63-2.39-.38-5.28,2.44-5.89,1.76-.38,1.64.54,2.14-1.19C-.82,1.33-.19,8.14,2.64,10.3c3,2.3,7.74.28,7.96-3.34.1-1.56.25-3.23-1.26-1.62h0Z"/>
      <path class="st32" d="M8.4,5.67c-.82.21-.93,1.03-1.52,1.7-.58.66-1.61.76-2.4.14-.89-.71-.48-1.8.16-2.37s1.62-.79,1.67-1.69c-2.46-.52-4.91,2.68-2.71,4.93,2.44,2.51,5.79-.86,4.8-2.71Z"/>
      <path class="st32" d="M10.54,2.7h-.17l-.17.08s-.42.14-.87,0c-.48-.16-.33-.34-.31-.94l.07-.16-.14-.18c-.66.02-.81.42-1.3.95-1.26,1.34-.1,1.18-1.86,2.85-1.59,1.51-.26,2.05.85.86.45-.49.73-.83,1.45-1.06,1.12-.36.67-.39,1.44-.92.69-.48.99-.42,1.02-1.48h0Z"/>
      <path class="st32" d="M9.34,5.35c-.03,1.17.1,1.87-.43,2.8-1.41,2.45-4.81,2.55-6.29.38-1.63-2.39-.38-5.28,2.44-5.89,1.76-.38,1.64.54,2.14-1.19C-.82,1.33-.19,8.14,2.64,10.3c3,2.3,7.74.28,7.96-3.34.1-1.56.25-3.23-1.26-1.62h0Z"/>
    </g>
  </g>
  <g id="_圖層_5">
    <g id="_圖層_2">
      <g id="_x23_7c7883ff">
        <path class="st48" d="M2.05,2.46h7.91v7.58c-.12-.14-.25-.28-.37-.42-.17-.21-.3-.46-.28-.74V3.79c-.04-.44.27-.79.51-1.13-.33.2-.64.52-1.06.49-1.78,0-3.57,0-5.35.04-.31.04-.59-.1-.86-.23.09.21.26.41.23.66-.03,1.75-.03,3.5-.03,5.26.04.39-.18.72-.42,1.01-.07.04-.21.12-.28.16,0,0,0-7.59,0-7.59Z"/>
      </g>
      <g id="_x23_e6e3e8ff">
        <path class="st50" d="M9.81,2.66c-.25.34-.55.69-.51,1.13v5.09c-.03.28.1.53.28.74-1.99-.16-3.99-.08-5.98-.11-.46-.05-.88.16-1.27.37.24-.29.47-.62.42-1.01,0-1.75,0-3.51.03-5.26.02-.24-.14-.45-.23-.66.27.13.55.27.86.23,1.78-.04,3.56-.02,5.35-.04.42.03.73-.29,1.06-.49"/>
      </g>
      <g id="_圖層_3">
        <path class="st41" d="M2.08,10.57c0-1.93,0-5.72.1-7.65,2.54-.11,5.08-.05,7.62-.04,0,2.52.07,5.04-.06,7.56"/>
        <g id="_x23_989698ff" class="st40">
          <path class="st51" d="M2.02,2.77c2.63-.07,5.26-.03,7.89-.03v7.93c-2.64.01-5.27.05-7.91-.03-.08-2.63-.03-5.25.02-7.88M2.29,3.07c-.1,1.68-.09,3.36-.1,5.05-.02.76-.03,1.52-.03,2.28h7.55c-.04-.19-.13-.58-.17-.78.13-2.2.06-4.4.06-6.6-2.44,0-4.88-.06-7.32.04h0Z"/>
        </g>
      </g>
      <g id="_x23_9e99a6ff">
        <path class="st47" d="M2.33,9.89c.39-.21.81-.42,1.27-.37,1.99.03,3.99-.06,5.98.11.12.14.25.28.37.42v.17H2.05v-.16c.07-.04.21-.12.28-.16h0Z"/>
      </g>
      <g id="_x23_252527ff">
        <path class="st46" d="M3.42,3.62c1.38-.2,2.78-.06,4.17-.1.52-.03,1.25.07,1.35.71.07,1.04-.04,2.08-.15,3.11-.11.58-.17,1.32-.72,1.67-.7.15-1.45.25-2.14.01-.35-.28-.34-.86.04-1.1.44-.14.92-.11,1.38-.18.16-.92.19-1.85.2-2.78-.38-.02-.76-.03-1.15-.04-.24,1.44-.47,3.15-1.81,4.02-.55.45-1.53.18-1.56-.6.22-.53.8-.79,1.13-1.24.5-.59.71-1.36.73-2.12-.44-.06-.91,0-1.33-.17-.41-.28-.21-.8-.15-1.2h0Z"/>
      </g>
    </g>
  </g>
  <g id="_x23_000000ff">
    <path d="M4.83,10.64c.05-.04.12-.08.18-.06.08.01.12.09.16.15.18.32.36.63.54.95.08-.23.09-.49.16-.72.03-.09.12-.17.21-.16.12.01.23.05.35.08.64.16,1.28.32,1.92.48.07.02.16.04.2.11.05.07.03.16.01.24-.3,1.08-.6,2.16-.9,3.24-.02.07-.05.14-.11.17-.06.04-.14.02-.21.01-.65-.15-1.31-.29-1.96-.43-.11-.01-.21-.11-.19-.23.02-.18.07-.35.09-.52-.16.04-.31.13-.47.17-.08.03-.16-.03-.2-.1-.43-.6-.87-1.2-1.3-1.8-.06-.09-.14-.16-.15-.27-.01-.07.05-.12.1-.15.53-.39,1.05-.77,1.57-1.16"/>
  </g>
  <g id="_x23_ffffffff">
    <path class="st44" d="M5.33,13.69s-.01.09-.02.13c-.16.07-.31.14-.48.2-.08.03-.15-.02-.2-.09-.43-.6-.86-1.2-1.29-1.8-.03-.05-.08-.11-.07-.17,0-.06.06-.09.1-.12.47-.34.95-.68,1.42-1.03.05-.04.11-.08.18-.06.08.01.12.09.16.15.17.3.34.59.52.89.06.1,0,.21-.02.31"/>
    <path class="st44" d="M4.68,13.79"/>
    <path class="st44" d="M6.07,10.98c.06-.03.14-.01.2,0,.66.17,1.32.33,1.98.5.06.02.13.04.15.1.06.11,0,.23-.03.34-.27.97-.53,1.94-.8,2.91-.02.08-.06.16-.15.17-.1.01-.2-.03-.29-.04-.54-.12-1.08-.24-1.62-.36-.07-.02-.15-.03-.18-.1-.04-.05-.02-.12-.01-.18.21-1.05.42-2.1.62-3.15.02-.07.05-.16.12-.19"/>
  </g>
  <g id="_x23_ffb4dbff">
    <path class="st42" d="M4.74,11.08c.05-.03.11-.08.18-.07.07.01.11.08.15.14.19.32.38.64.57.96,0,.02,0,.06,0,.07,0,0-.03.02-.04.03-.18-.26-.32-.55-.5-.81-.08,0-.16.03-.24,0-.07-.03-.13-.08-.18-.13-.26.17-.52.35-.78.53.01.09.04.18,0,.27-.02.06-.06.13-.01.18.25.35.5.71.74,1.06.05.07.09.15.16.2.12.03.25.04.35.13.07-.02.14-.05.21-.07,0,.04-.02.07-.02.11-.16.05-.31.14-.47.19-.08.03-.14-.04-.18-.1-.38-.54-.76-1.08-1.14-1.62-.03-.05-.09-.13-.04-.19.08-.09.19-.15.29-.22.32-.23.64-.45.96-.68Z"/>
    <path class="st42" d="M6.24,11.23c.07-.01.14,0,.21.02.52.13,1.04.26,1.56.39.06.02.13.03.16.09.04.06.02.13,0,.2-.23.86-.46,1.72-.69,2.58-.03.1-.04.23-.14.29-.06.01-.11,0-.17,0-.49-.11-.98-.22-1.48-.33-.1-.01-.19-.1-.16-.21.17-.84.34-1.68.51-2.53.03-.13.04-.25.08-.38.01-.05.05-.1.11-.12M6.4,11.68c-.08.05-.17.05-.26.06-.05.21-.09.43-.14.64-.11.55-.24,1.09-.33,1.64.07.04.16.07.2.15.04.07.04.16.05.24.36.1.73.17,1.09.25.04-.07.08-.15.14-.19.07-.05.17-.05.25-.06.2-.73.4-1.47.59-2.2-.07-.05-.14-.08-.19-.15-.05-.09-.04-.2-.04-.3-.4-.11-.8-.2-1.2-.3-.05.08-.08.18-.16.24Z"/>
    <path class="st42" d="M4.47,12.42c.03-.13.06-.26.09-.39.2.07.42.09.62.15.19.06.33.27.27.47-.04.12-.17.15-.29.17-.14.02-.21.18-.35.19-.13.02-.26-.08-.33-.19-.08-.12-.05-.27-.02-.39Z"/>
    <path class="st42" d="M6.35,12.72c.21-.14.43-.25.64-.4.08.15.17.3.27.44.09.14.19.29.19.46,0,.18-.1.37-.27.46-.14.06-.28-.02-.4-.1-.08-.07-.19-.02-.29-.03-.14,0-.28-.07-.33-.2-.09-.22,0-.5.2-.63Z"/>
  </g>
  <g id="_x23_ff5890ff">
    <path class="st45" d="M3.9,11.81c.26-.18.52-.36.78-.53.06.05.11.1.18.13.08.02.16,0,.24,0,.18.26.31.55.5.81,0,0,.03-.02.04-.03-.02.05-.04.1-.06.16-.14-.22-.28-.45-.41-.68-.03-.05-.06-.11-.11-.14-.08,0-.15,0-.23,0-.07-.02-.13-.07-.19-.11-.22.14-.44.3-.66.45.01.08.04.15.02.23-.02.07-.08.16-.01.23.24.35.49.7.73,1.05.04.05.07.12.15.12.11,0,.22.04.3.11.07-.03.14-.05.21-.08,0,.03-.01.06-.02.08-.07.02-.14.05-.21.07-.1-.08-.23-.09-.35-.13-.07-.05-.11-.13-.16-.2-.24-.36-.5-.71-.74-1.06-.05-.06,0-.12.01-.18.03-.09,0-.18,0-.27Z"/>
    <path class="st45" d="M6.4,11.68c.08-.06.12-.16.16-.24.4.1.8.19,1.2.3,0,.1-.01.21.04.3.05.07.12.11.19.15-.19.74-.39,1.47-.59,2.2-.08.01-.17.02-.25.06-.07.05-.1.13-.14.19-.36-.08-.73-.15-1.09-.25-.01-.08-.01-.16-.05-.24-.04-.08-.13-.11-.2-.15.1-.55.23-1.09.33-1.64.05-.21.09-.43.14-.64.09-.01.18,0,.26-.06M6.63,11.55c-.04.08-.08.17-.15.22-.08.05-.18.05-.27.07-.15.7-.3,1.4-.44,2.1.07.05.15.09.2.16.04.07.04.16.05.24.31.07.63.15.94.21.05-.07.08-.15.16-.19.07-.04.16-.04.24-.05.18-.69.37-1.37.54-2.06-.08-.05-.18-.1-.21-.2-.02-.08-.02-.17-.04-.25-.34-.09-.67-.17-1.01-.25Z"/>
    <path class="st45" d="M4.49,11.94c.26.1.53.13.79.23.16.06.24.22.27.38,0,.06-.02.13-.04.19-.08.09-.2.12-.31.15-.13.03-.21.16-.34.19-.09.02-.17-.02-.25-.05-.12-.1-.23-.23-.22-.39,0-.23.09-.46.09-.69M4.47,12.42c-.03.13-.05.28.02.39.07.11.19.2.33.19.14-.01.21-.17.35-.19.11-.02.24-.05.29-.17.06-.19-.08-.41-.27-.47-.2-.06-.42-.08-.62-.15-.03.13-.06.26-.09.39Z"/>
    <path class="st45" d="M6.28,12.71c.24-.18.51-.32.74-.52.12.28.3.53.43.81.11.22.06.48-.09.67-.08.08-.19.16-.31.15-.14,0-.25-.1-.38-.15-.14-.01-.29.03-.42-.04-.11-.05-.17-.16-.2-.26-.05-.23.02-.5.22-.65M6.35,12.72c-.2.13-.29.41-.2.63.05.13.19.21.33.2.1,0,.2-.04.29.03.11.08.26.16.4.1.17-.09.27-.27.27-.46,0-.17-.1-.32-.19-.46-.1-.14-.19-.29-.27-.44-.2.15-.43.26-.64.4Z"/>
  </g>
  <g id="_x23_fffb51ff">
    <path class="st43" d="M3.99,11.84c.22-.15.44-.31.66-.45.06.04.12.09.19.11.08.01.15,0,.23,0,.05.03.08.09.11.14.13.23.27.46.41.68.02.07-.01.14-.03.21-.03-.16-.12-.32-.27-.38-.25-.11-.53-.13-.79-.23,0,.24-.08.46-.09.69-.01.16.1.3.22.39,0,.04-.02.08-.03.11.11.04.23.08.35.04.11-.03.17-.13.23-.21.1,0,.2,0,.3,0-.03.18-.07.36-.1.55-.07.03-.14.06-.21.08-.09-.07-.19-.1-.3-.11-.07,0-.11-.07-.15-.12-.24-.35-.49-.7-.73-1.05-.06-.07,0-.15.01-.23.02-.08,0-.16-.02-.23Z"/>
    <path class="st43" d="M6.63,11.55c.34.08.68.16,1.01.25.02.08.01.17.04.25.03.1.13.15.21.2-.17.69-.36,1.37-.54,2.06-.08.01-.16.01-.24.05-.07.05-.11.12-.16.19-.32-.06-.63-.14-.94-.21-.01-.08,0-.17-.05-.24-.05-.07-.13-.11-.2-.16.14-.7.29-1.4.44-2.1.09-.02.19-.02.27-.07.07-.06.11-.15.15-.22M6.28,12.71c-.2.15-.27.41-.22.65-.05.03-.12.03-.14.09.04.17.19.32.36.35.13.03.26-.01.38-.06.08.09.18.18.31.22.17.06.39-.01.49-.17-.02-.05-.06-.09-.09-.13.15-.19.2-.45.09-.67-.13-.27-.31-.52-.43-.81-.23.2-.5.34-.74.52Z"/>
  </g>
  <g id="_x23_00b700ff">
    <path class="st49" d="M5.21,12.88c.11-.03.23-.06.31-.15,0,.07-.02.14-.03.22h-.02c-.1,0-.2,0-.3,0-.06.09-.12.18-.23.21-.12.04-.24,0-.35-.04,0-.04.02-.08.03-.11.08.03.16.07.25.05.13-.03.21-.16.34-.19Z"/>
    <path class="st49" d="M5.91,13.45c.02-.06.09-.07.14-.09.03.11.09.22.2.26.13.07.28.03.42.04.13.04.24.14.38.15.12.01.23-.06.31-.15.03.04.07.08.09.13-.1.16-.31.23-.49.17-.12-.03-.22-.12-.31-.22-.12.05-.25.09-.38.06-.18-.03-.32-.18-.36-.35Z"/>
  </g>
</svg>