<?xml version="1.0" encoding="UTF-8"?>
<svg id="_圖層_1" xmlns="http://www.w3.org/2000/svg" version="1.1" xmlns:xodm="http://www.corel.com/coreldraw/odm/2003" viewBox="0 0 12 19.68">
  <!-- Generator: Adobe Illustrator 30.0.0, SVG Export Plug-In . SVG Version: 2.1.1 Build 123)  -->
  <defs>
    <style>
      .st0 {
        fill: #d04458;
      }

      .st0, .st1, .st2, .st3, .st4, .st5, .st6, .st7, .st8, .st9, .st10, .st11, .st12, .st13, .st14, .st15, .st16, .st17, .st18, .st19, .st20, .st21, .st22, .st23, .st24, .st25, .st26, .st27, .st28, .st29, .st30 {
        fill-rule: evenodd;
      }

      .st0, .st1, .st2, .st3, .st5, .st6, .st9, .st12, .st13, .st14, .st15, .st16, .st17, .st18, .st19, .st20, .st21, .st22, .st23, .st27, .st28, .st29, .st30 {
        display: none;
      }

      .st1 {
        fill: #fadd57;
      }

      .st2 {
        fill: #ca2b3e;
      }

      .st3 {
        fill: #d49858;
      }

      .st4 {
        fill: #f2f2f2;
      }

      .st5 {
        fill: #d4586d;
      }

      .st6 {
        fill: #c1a32d;
      }

      .st7 {
        fill: #f0f0f0;
      }

      .st8 {
        fill: #3d3d3d;
      }

      .st9 {
        fill: #cb8429;
      }

      .st10 {
        fill: #373737;
      }

      .st11 {
        fill: #454545;
      }

      .st12 {
        fill: #b57837;
      }

      .st13 {
        fill: #2e8228;
      }

      .st14 {
        fill: #fefefe;
      }

      .st15 {
        fill: #2fb22c;
      }

      .st16 {
        fill: #9b672f;
      }

      .st17 {
        fill: #fffffe;
      }

      .st18 {
        fill: #b0364a;
      }

      .st19 {
        fill: #ffd326;
      }

      .st20 {
        fill: #6a6a6a;
      }

      .st21 {
        fill: #f6f6f6;
      }

      .st31 {
        fill: #399d95;
      }

      .st22 {
        fill: #8c8c8c;
      }

      .st23 {
        fill: #36982e;
      }

      .st24 {
        fill: #353535;
      }

      .st25 {
        fill: #dbdbdb;
      }

      .st26 {
        fill: #3f3f3f;
      }

      .st27 {
        fill: #cf8f42;
      }

      .st28 {
        fill: #9a2e40;
      }

      .st29 {
        fill: #41cb36;
      }

      .st30 {
        fill: #7b7b7b;
      }
    </style>
  </defs>
  <g id="_圖層_x5F_2">
    <g id="_2130622065504">
      <path class="st0" d="M.79,5.41l-.21,1.24c.05,2.23,2.21,5.42,3.05,7.26.66.1.02-.82-.2-1.29-.78-1.61-1.6-3.35-1.95-5.2l1.63.04c.47,1.38,1.94,2.23,3.69,1.83,1.8-.42,2.07-1.4,2.55-3.22h1.28c0,1.3-.3,2.19-.67,3.21l-.91,2.18c-.18.86-.22.43.13.82.69-1.39,2.25-3.97,2.23-5.64l-.13-1.25c-.44-.26-.29-.17-.61-.7C6.95-1.42,1.33,2.55.86,6.1l-.06-.69h0Z"/>
      <path class="st2" d="M3.64,13.92c.56,1.13,1.64,3.61,2.36,4.36.61-.66,2.68-4.85,3.18-5.98-.35-.39-.31.04-.13-.82l.91-2.18c.37-1.03.67-1.91.67-3.21h-1.28c-.48,1.82-.75,2.8-2.55,3.22-1.74.4-3.22-.45-3.69-1.83l-1.63-.04c.34,1.85,1.17,3.59,1.95,5.2.23.47.86,1.39.2,1.29h0Z"/>
      <path class="st18" d="M5.36,3.88c-.26.05-1.23.9-1.37,1.06-1.12,1.33-.19,4.31,2.54,3.81,3.24-.59,2.19-5.51-1.17-4.88h0Z"/>
      <path class="st28" d="M12,6.65h-.58c.01,1.67-1.54,4.25-2.23,5.64-.5,1.13-2.58,5.32-3.18,5.98-.72-.75-1.8-3.23-2.36-4.36-.84-1.85-3-5.04-3.05-7.26H.02c.05,2.27,2.93,7.12,4.24,9.75.49.99.98,2.47,1.76,3.04.75-.55,1.24-2,1.68-2.88.54-1.08,1.03-2.05,1.6-3.2.83-1.67,2.68-4.55,2.72-6.7h-.02Z"/>
      <path class="st14" d="M5.37,4.54c-1.08.45-1.6,1.25-1.14,2.49.31.85,1.4,1.48,2.6,1.02,1.94-.74,1.01-4.54-1.46-3.52h0Z"/>
      <path class="st18" d="M0,6.65h.58l.21-1.24C.93,3,3.35.84,6,.82c2.74-.02,4.88,2.18,5.29,4.58l.13,1.25h.58c0-2.41-.88-3.98-2.46-5.16C5.4-1.6,0,1.51,0,6.65Z"/>
      <path class="st5" d="M.79,5.41l.06.69c.47-3.55,6.1-7.52,9.82-1.39.32.52.17.44.61.7-.41-2.4-2.55-4.6-5.29-4.58-2.64.01-5.06,2.17-5.2,4.58Z"/>
    </g>
  </g>
  <g id="_圖層_x5F_3">
    <g id="_2130622058736">
      <path class="st27" d="M.64,7.04l.05.39c.27,1.58,4.61,9.98,5.31,10.8.68-.81,4.74-8.73,5.1-10.12-.33-.27-.29.57-.24-.74-.75.75-3.23,7.9-4.29,9.44-.49.71-.12.24-.56.61-.77-.63-.94-1.4-1.41-2.41-1.01-2.2-2.9-5.89-3.17-8.02h1.45c.65,3.04,5.61,3.88,6.48-.9h1.29l.03,1.1C12.86,5.97,7.11-1.93,2.44,3.17c-.38.42-.87.89-1.13,1.52-.32.79-.22,1.72-.67,2.35Z"/>
      <path class="st9" d="M10.86,7.36l-.18-.17-.03-1.1h-1.29c-.87,4.78-5.83,3.93-6.48.9h-1.45c.27,2.13,2.15,5.82,3.17,8.02.46,1,.64,1.78,1.41,2.41.45-.37.07.1.56-.61,1.06-1.54,3.55-8.69,4.29-9.44h0Z"/>
      <path class="st16" d="M5.51,4.04c-1.19.29-2.09,1.41-1.8,2.84.23,1.16,1.53,2.13,2.97,1.75,2.84-.75,1.89-5.33-1.17-4.59Z"/>
      <path class="st16" d="M11.76,5.04c-.09.49.05.63-.02,1.2-.12,1.01.07.62-.49,1.19l-.15.68c-.36,1.39-4.42,9.31-5.1,10.12-.71-.82-5.04-9.22-5.31-10.8-.83-1.03-.24-1.45-.45-2.39C.12,5.23.05,5.44,0,5.67v1.25c.12.84.42,1.7.65,2.27.99,2.5,2.18,4.37,3.43,6.89.46.93,1.16,2.81,1.92,3.36.77-.57,2.98-5.55,3.6-6.72.92-1.76,2.19-3.67,2.4-5.7v-.91s-.24-1.07-.24-1.07Z"/>
      <path class="st14" d="M5.34,4.52c-.99.42-1.61,1.22-1.13,2.52.32.86,1.4,1.49,2.62,1.03,2.07-.78.99-4.6-1.49-3.55Z"/>
      <path class="st12" d="M.24,5.04c.2.94-.38,1.36.45,2.39l-.05-.39C.37-1.38,12.35-.93,11.25,7.43c.57-.57.37-.18.49-1.19.07-.57-.07-.71.02-1.2-.03-1.34-1.02-2.55-1.95-3.33C5.45-1.97.3,2.18.24,5.04Z"/>
      <path class="st3" d="M.64,7.04c.45-.63.35-1.56.67-2.35.26-.63.75-1.1,1.13-1.52C7.11-1.93,12.86,5.97,10.68,7.19l.18.17c-.05,1.32-.09.48.24.74l.15-.68C12.35-.93.37-1.38.64,7.04Z"/>
    </g>
  </g>
  <g id="_圖層_x5F_4">
    <g id="_2130622031904">
      <path class="st22" d="M3.19,13.2c.82-.36.11-.48-.96-3.18-.5-1.26-.84-2.3-.95-3.78h1.36c.38.68.58,3.11,3.37,3.12,2.37.01,2.57-1.43,3.35-3.12h1.38c-.16,2.04-1.02,3.92-1.88,5.72-1.05,2.21-.65,1.43-.38,1.79.72-2.14,3.03-5.01,3-7.73C11.4-.76,1.17-1.08.55,5.59c-.31,3.32,2.48,5.88,2.65,7.61h0Z"/>
      <path class="st30" d="M3.19,13.2c.48.88,1.03,1.69,1.47,2.52.45.85.66,1.78,1.34,2.51,1.16-1.35,1.34-2.9,2.48-4.48-.27-.36-.67.42.38-1.79.86-1.8,1.72-3.68,1.88-5.72h-1.38c-.78,1.7-.98,3.14-3.35,3.12-2.78-.02-2.99-2.45-3.37-3.12h-1.36c.11,1.48.45,2.52.95,3.78,1.07,2.71,1.78,2.82.96,3.18Z"/>
      <path class="st20" d="M8.48,13.75c-1.15,1.58-1.32,3.14-2.48,4.48-.68-.74-.89-1.66-1.34-2.51-.44-.82-.98-1.63-1.47-2.52-.16-1.73-2.96-4.29-2.65-7.61.63-6.68,10.85-6.36,10.93.42.03,2.73-2.28,5.59-3,7.73h.01ZM0,6.24c0,2.54,1.59,5.1,2.72,7.12.58,1.03.99,1.96,1.52,3.04.49.99.98,2.47,1.76,3.04.75-.55,1.24-2,1.68-2.88.54-1.08,1.03-2.05,1.6-3.2,1.1-2.23,2.72-4.43,2.72-7.12,0-7.89-12-7.83-12,0Z"/>
    </g>
  </g>
  <g id="_圖層_x5F_5">
    <g id="_2130760701392">
      <path class="st26" d="M5.77,4.54c2.24-.52,2.85,3.14.65,3.55-2.32.44-3.4-2.91-.65-3.55ZM0,6.24c0,2.54,1.59,5.1,2.72,7.12.58,1.03.99,1.96,1.52,3.04.49.99.98,2.47,1.76,3.04.75-.55,1.24-2,1.68-2.88.54-1.08,1.03-2.05,1.6-3.2,1.1-2.23,2.72-4.43,2.72-7.12,0-7.89-12-7.83-12,0Z"/>
      <path class="st7" d="M5.77,4.54c-2.75.64-1.67,3.99.65,3.55,2.2-.41,1.58-4.08-.65-3.55Z"/>
    </g>
    <g id="_2130904904560">
      <path class="st11" d="M7.63,13.98c-.13.66-.34,1.01-.62,1.64l-.58,1.15s-.09.11-.13.16l-.94-.48-1.03-2.44c-.65-.55-1.49-2.62-1.87-3.5-.58-1.35-1.03-2.68-1.14-4.24h1.5c.67,3.47,3.22,3.62,4.92,2.69,1.07-.59.7-.7,1.38-1.55h1.41c-.2,1-1.75,5.18-2.49,6.14-.25.33-.14.2-.41.43ZM5.28,4.17c1.48-.64,3.79.66,2.97,3.12-.26.77-.38.95-1.16,1.28-3,1.25-5.2-2.93-1.81-4.4ZM6,18.11c1.67-2.92,3.21-5.96,4.79-9.23C12.85,4.62,9.95.69,6,.7c-3.99,0-6.77,3.88-4.8,8.19l4.8,9.22Z"/>
      <path class="st8" d="M2.82,6.27h-1.5c.11,1.56.56,2.89,1.14,4.24.38.87,1.22,2.94,1.87,3.5.17-.34-.3-.43,1.67-.43.03,0,.93.06.94.06.74.17.22-.14.69.34.28-.23.16-.1.41-.43.74-.96,2.29-5.14,2.49-6.14l.3-1.51"/>
      <path class="st24" d="M1.2,8.89C-.77,4.59,2.01.72,6,.7c3.95,0,6.85,3.91,4.79,8.18-1.58,3.27-3.12,6.31-4.79,9.23L1.2,8.89ZM0,6.24c0,2.54,1.59,5.1,2.72,7.12.58,1.03.99,1.96,1.52,3.04.49.99.98,2.47,1.76,3.04.75-.55,1.24-2,1.68-2.88.54-1.08,1.03-2.05,1.6-3.2,1.1-2.23,2.72-4.43,2.72-7.12,0-7.89-12-7.83-12,0Z"/>
      <path class="st10" d="M5.73,4.49c2.38-.53,3.02,3.21.71,3.63-2.47.45-3.4-3.03-.71-3.63ZM5.28,4.17c-3.4,1.47-1.19,5.64,1.81,4.4.78-.32.9-.5,1.16-1.28.83-2.46-1.49-3.76-2.97-3.12Z"/>
      <path class="st25" d="M4.8,5.5c1.51-.77,3-.29,2.22,1.76-.8.35-1.28.35-2.12.06-.34-.87-.33-.74-.1-1.83h0ZM5.73,4.49c-2.69.6-1.76,4.08.71,3.63,2.31-.42,1.68-4.17-.71-3.63Z"/>
      <path class="st4" d="M4.8,5.5c-.22,1.09-.23.95.1,1.83.84.29,1.32.29,2.12-.06.77-2.06-.71-2.54-2.22-1.76h0Z"/>
    </g>
  </g>
  <g id="_圖層_x5F_6">
    <g id="_2130904899328">
      <path class="st6" d="M-.12,5.4c0,3.32,1.67,4.85,2.78,7.54.48,1.17,2.72,6.07,3.46,6.62l2.88-6.24c2.03-4.02,2.88-4.77,2.88-8.16C11.88,2.35,9.12.02,6.1-.12h-.54c-1.32.06-2.66.55-3.82,1.61C.92,2.24-.12,3.92-.12,5.4Z"/>
      <path class="st1" d="M5.87,17.86c.79-.82,3.82-7.63,4.64-9.27,1.92-3.86-.5-8-4.63-7.97C1.72.65-.48,4.69,1.33,8.5c1.46,3.08,3.01,6.42,4.54,9.36Z"/>
      <path class="st19" d="M5.91,16.86c.73-1,3.24-6.71,4.17-8.45,1.9-3.58-.45-7.4-4.19-7.34C2.27,1.13-.04,4.6,1.76,8.33c1.35,2.79,2.74,5.92,4.15,8.53Z"/>
      <path class="st1" d="M5.04,1.69C-1.22,3.24,1.39,12.04,7.46,10.2,12.34,8.71,10.89.25,5.04,1.69Z"/>
      <path class="st6" d="M4.94,3.91c-2.97,1.48-.86,5.53,2.04,4.26,2.69-1.17.94-5.75-2.04-4.26Z"/>
      <path class="st17" d="M5.44,4.14c-2.81.79-1.46,4.43,1.04,3.8,2.39-.6,1.6-4.55-1.04-3.8Z"/>
    </g>
  </g>
  <g id="_圖層_x5F_7">
    <g id="_2130904883104">
      <path class="st15" d="M8.57,5.95c-.16,1.88-1.17,3.19-3.11,2.76-2.51-.56-1.84-2.32-1.61-3.68-.77-.08-.09.62-.54-.3.88-.88,1.51-1.95,3.61-1.4,1.31.34,1.91,1.39,1.99,3.03-.16-.19-.27-.02-.36-.4h.02ZM.55,6.35l.07,1.12c.39,1.71,4.71,10.04,5.38,10.78.68-.79,4.98-9.12,5.38-10.78l.06-1.12c-1.11-.9-.25-1.5-2.04-3.27-.8-.8-1.9-1.48-3.42-1.48s-2.61.73-3.39,1.48c-1.45,1.39-1.1,2.52-2.04,3.28h0Z"/>
      <path class="st13" d="M12,6.43c-.49.37-.19.37-.62,1.04-.4,1.66-4.7,9.99-5.38,10.78-.67-.74-4.99-9.07-5.38-10.78C.17,6.78.49,6.8,0,6.43,0,8.94,2.85,13.62,4.24,16.4c.49.99.98,2.47,1.76,3.04.75-.55,1.24-2,1.68-2.88,1.34-2.67,4.32-7.74,4.32-10.13Z"/>
      <path class="st23" d="M0,6.43c.49.37.17.35.62,1.04l-.07-1.12C1.69.05,7.09-.22,9.76,2.48c1.15,1.16,1.33,1.89,1.68,3.87l-.06,1.12c.43-.68.13-.67.62-1.04,0-2.09-.69-3.17-1.7-4.25C6.44-1.95,0,1.13,0,6.43Z"/>
      <path class="st21" d="M5.41,4.58c-2.71,1.17-.71,4.35,1.42,3.45,1.98-.84.97-4.48-1.42-3.45Z"/>
      <path class="st29" d="M.55,6.35c.94-.76.59-1.89,2.04-3.28.78-.75,1.94-1.48,3.39-1.48s2.62.69,3.42,1.48c1.79,1.77.93,2.37,2.04,3.27-.35-1.98-.53-2.71-1.68-3.87C7.09-.22,1.69.05.55,6.35Z"/>
      <path class="st23" d="M5.41,4.58c2.39-1.03,3.41,2.6,1.42,3.45-2.13.91-4.13-2.27-1.42-3.45ZM3.86,5.02c-.24,1.36-.9,3.13,1.61,3.68,1.93.43,2.95-.88,3.11-2.76-.33-1.13-.91-1.93-2.11-2.11-1.3-.19-2.06.29-2.6,1.19h-.01Z"/>
      <path class="st29" d="M3.86,5.02c.54-.89,1.3-1.38,2.6-1.19,1.2.18,1.78.98,2.11,2.11.09.38.2.21.36.4-.08-1.63-.69-2.68-1.99-3.03-2.1-.55-2.73.52-3.61,1.4.45.91-.23.21.54.3h0Z"/>
    </g>
  </g>
  <g id="_x23_15857cff1">
    <path class="st31" d="M5.69,1.59c1.25-.38,1.12,1.39,1.63,2.09.39,1.57,2.48.46,3.59,1.19.23,1.76-3.03,2.08-1.88,4.16,1.2,3.23-1.66,1.45-2.87.57-1.2.35-2.18,1.33-3.46,1.41-.02-1.2.4-2.33.55-3.51-.65-.95-2.48-1.27-2.31-2.64,1.06-.18,2.13-.24,3.19-.4.58-.92.95-1.97,1.57-2.87h-.01Z"/>
  </g>
</svg>