<?xml version="1.0" encoding="UTF-8"?>
<svg id="_圖層_1" data-name="圖層_1" xmlns="http://www.w3.org/2000/svg" version="1.1" viewBox="0 0 150 150">
  <!-- Generator: Adobe Illustrator 30.0.0, SVG Export Plug-In . SVG Version: 2.1.1 Build 123)  -->
  <defs>
    <style>
      .st0 {
        fill: #4ebae9;
      }

      .st1 {
        fill: #68868e;
      }

      .st2 {
        fill: #fff;
      }

      .st3 {
        fill: #2d374b;
      }

      .st4 {
        fill: #8dacb5;
      }

      .st5 {
        fill: #e6e6e6;
        isolation: isolate;
        opacity: .9;
      }

      .st6 {
        fill: #2c354a;
      }

      .st7 {
        fill: #1b428d;
      }

      .st8 {
        fill: #222221;
      }

      .st9 {
        fill: #d7e7ea;
      }

      .st10 {
        fill: #2b5da7;
      }
    </style>
  </defs>
  <path class="st9" d="M66.35,24.17c4.39-.83,8.94-.81,13.34-.07-4.45-.2-8.9-.17-13.34.07Z"/>
  <path class="st9" d="M54.77,31.67c9.9-5.09,21.95-5.87,32.35-1.83,10.02,3.76,18.23,11.96,22.02,21.96,3.56,8.98,3.26,19.23.04,28.26-4.02,10.6-12.47,19.44-22.69,24.26-7.9,2.43-16.43,3.67-24.58,1.72-12.8-2.77-23.81-12.59-27.89-25.06-3.53-9.9-2.22-20.84,1.62-30.43,4.19-8.06,11.11-14.68,19.13-18.88M57.45,36.44c-11.68,4.71-19.62,16.7-20.57,29.12-1.2,14.16,7.32,28.6,20.6,33.9,15.88,7.07,36.5-.21,44.14-15.88,8.63-12.32,6.25-30.53-4.17-41.1-9.92-10.44-27.59-14.09-40-6.04Z"/>
  <path class="st9" d="M102.04,95.04c1.67,1.6,3.3,3.23,4.89,4.91-.59.43-1.77,1.31-2.36,1.74-1.44-1.44-2.88-2.88-4.33-4.32.45-.58,1.35-1.75,1.8-2.33Z"/>
  <path class="st3" d="M39.69,38.61c7.02-7.47,16.43-13,26.66-14.44,4.44-.24,8.89-.27,13.34-.07,11.55,1.75,22.59,8.36,28.84,18.35,4.7,7.39,7.09,16.26,7.04,25-.59,9.38-4.25,18.46-9.86,25.97,6.31,4.15,12.33,8.78,17.58,14.23,3.24,3.45,8.16,5.7,9.53,10.58,1.94,4.21-.89,8.74-4.04,11.46-4.24,3.35-11.16,2.1-14.32-2.19-6.2-7.95-14.06-14.8-18.08-24.25-7.91,5.58-16.99,9.98-26.83,10.25-12.66.6-25.49-4.72-33.81-14.33-9.23-10.49-12.71-25.75-8.75-39.18,1.9-8.24,6.67-15.56,12.7-21.38M54.77,31.67c-8.02,4.2-14.94,10.82-19.13,18.88-1.74,2.36-3.42,4.82-4.39,7.61-4.24,12.42-2.16,27.01,6.28,37.23,11.11,14.3,33.67,19.31,48.96,8.93,10.22-4.82,18.67-13.66,22.69-24.26,3.22-9.03,3.52-19.28-.04-28.26-3.79-10-12-18.2-22.02-21.96-10.4-4.04-22.45-3.26-32.35,1.83M102.04,95.04c-.45.58-1.35,1.75-1.8,2.33-.99.8-1.97,1.61-2.96,2.41,1.58,1.63,3.18,3.24,4.8,4.84.83-.98,1.66-1.95,2.49-2.93.59-.43,1.77-1.31,2.36-1.74-1.59-1.68-3.22-3.31-4.89-4.91M105.38,103.98c-1.04,1.12-2.06,2.26-3.06,3.4,4.4,5.34,8.9,10.59,13.4,15.84,1.92,1.98,3.91,4.43,6.81,4.86,2.31-.17,4.23-1.7,6.25-2.69.12-2.33,1.46-5.06-.13-7.13-3.28-4.43-7.74-7.82-12.24-10.92-1.67-1.66-3.33-3.32-4.97-5-.36-.53-1.1-1.59-1.47-2.12-1.54,1.24-3.07,2.5-4.59,3.76Z"/>
  <path class="st1" d="M57.45,36.44c12.41-8.05,30.08-4.4,40,6.04,10.42,10.57,12.8,28.78,4.17,41.1,2.61-9.32,3.53-19.7-.58-28.74-2.05-5.02-5.97-8.87-9.78-12.6-1.98-3.27-5.42-5.07-9.14-5.55-8.08-1.99-16.56-2.21-24.67-.25Z"/>
  <path class="st1" d="M31.25,58.16c.97-2.79,2.65-5.25,4.39-7.61-3.84,9.59-5.15,20.53-1.62,30.43,4.08,12.47,15.09,22.29,27.89,25.06,8.15,1.95,16.68.71,24.58-1.72-15.29,10.38-37.85,5.37-48.96-8.93-8.44-10.22-10.52-24.81-6.28-37.23Z"/>
  <path class="st6" d="M57.45,36.44c8.11-1.96,16.59-1.74,24.67.25-1.43.84-2.86,1.67-4.29,2.49-9.03-1.47-18.89-.57-26.36,5.14-13.85,10.49-14.85,33.51-2.25,45.4,11.13,11.7,31.66,11.84,43.07.5,6.89-7.43,9.84-18.41,7.39-28.27-.97-3.78-2.34-7.44-3.8-11.05-2.02-2.61-3.92-5.36-4.62-8.66,3.81,3.73,7.73,7.58,9.78,12.6,4.11,9.04,3.19,19.42.58,28.74-7.64,15.67-28.26,22.95-44.14,15.88-13.28-5.3-21.8-19.74-20.6-33.9.95-12.42,8.89-24.41,20.57-29.12Z"/>
  <path class="st2" d="M68.44,61.09c1.43-.82,2.86-1.65,4.29-2.49,3.72.48,7.16,2.28,9.14,5.55.7,3.3,2.6,6.05,4.62,8.66-.62,1.32-1.23,2.65-2.03,3.87-4.99-.89-9.86-2.66-14.76-4.04-4.27-2.32-2.12-7.87-1.26-11.55Z"/>
  <path class="st5" d="M51.47,44.32c7.47-5.71,17.33-6.61,26.36-5.14-.86,3.68-3.01,9.23,1.26,11.55,4.9,1.38,9.77,3.15,14.76,4.04.8-1.22,1.41-2.55,2.03-3.87,1.46,3.61,2.83,7.27,3.8,11.05,2.45,9.86-.5,20.84-7.39,28.27-11.41,11.34-31.94,11.2-43.07-.5-12.6-11.89-11.6-34.91,2.25-45.4Z"/>
  <path class="st4" d="M97.28,99.78c.99-.8,1.97-1.61,2.96-2.41,1.45,1.44,2.89,2.88,4.33,4.32-.83.98-1.66,1.95-2.49,2.93-1.62-1.6-3.22-3.21-4.8-4.84Z"/>
  <path class="st10" d="M105.38,103.98c1.52-1.26,3.05-2.52,4.59-3.76.37.53,1.11,1.59,1.47,2.12-.85.14-2.54.42-3.39.56,5.58,6.18,10.73,13.37,18.58,16.8-2.53-4.79-6.42-8.59-10.22-12.36,4.5,3.1,8.96,6.49,12.24,10.92,1.59,2.07.25,4.8.13,7.13-3.68-1.43-7.52-2.95-10.15-6.03-4.48-5.08-8.65-10.42-13.25-15.38Z"/>
  <path class="st0" d="M108.05,102.9c.85-.14,2.54-.42,3.39-.56,1.64,1.68,3.3,3.34,4.97,5,3.8,3.77,7.69,7.57,10.22,12.36-7.85-3.43-13-10.62-18.58-16.8Z"/>
  <path class="st7" d="M102.32,107.38c1-1.14,2.02-2.28,3.06-3.4,4.6,4.96,8.77,10.3,13.25,15.38,2.63,3.08,6.47,4.6,10.15,6.03-2.02.99-3.94,2.52-6.25,2.69-2.9-.43-4.89-2.88-6.81-4.86-4.5-5.25-9-10.5-13.4-15.84Z"/>
  <g id="_x23_3c3c3aff">
    <path class="st8" d="M17.22,80.73c.39.1.76.24,1.13.39.15.04.29.08.44.12.15.08.3.16.45.25.07,0,.2.03.26.04.4.18.81.34,1.2.53.06.01.19.03.25.05.81.42,1.69.68,2.49,1.11.07,0,.2.02.26.03.25.14.49.27.74.4.07,0,.21.03.27.03.15.08.3.16.44.24.35.11.69.26,1.02.43.59.23,1.18.46,1.75.74.06.01.19.03.25.04,1.38.67,2.85,1.15,4.22,1.84.06.01.19.03.25.04.82.4,1.69.69,2.49,1.12.07,0,.2.02.26.03.25.14.5.27.74.41.07,0,.2.02.26.03.56.33,1.2.49,1.76.83.07.01.2.03.26.05.89.49,1.89.75,2.77,1.26.07,0,.2.02.26.03.55.35,1.18.54,1.76.83.06.01.19.03.26.04.77.49,1.69.66,2.48,1.11.07.01.2.03.27.04.81.4,1.62.92,1.95,1.8,0,.14,0,.27,0,.41-.25.72-.9,1.17-1.63,1.31-.61.15-1.25.08-1.88.05-.68-.19-1.39-.27-2.06-.5-.57-.17-1.14-.36-1.71-.52-.35-.12-.69-.24-1.04-.36-.06-.02-.19-.04-.26-.06-.14-.05-.29-.1-.43-.16-.29-.13-.59-.24-.89-.37-.07-.01-.2-.04-.26-.05-.14-.05-.29-.11-.43-.16-.3-.12-.6-.24-.9-.37-.07,0-.2-.02-.27-.03-.15-.09-.29-.18-.44-.27-.07-.01-.2-.03-.27-.04-.15-.05-.3-.1-.45-.15-.15-.08-.3-.16-.45-.24-.07-.01-.2-.03-.26-.05-.15-.05-.3-.1-.45-.15-.15-.08-.3-.16-.45-.25-.07,0-.2-.01-.27-.02-.15-.09-.3-.18-.45-.27-.07,0-.2-.02-.27-.02-.3-.13-.6-.26-.9-.4-.07,0-.2-.02-.26-.03-.15-.09-.3-.18-.45-.27-.07,0-.2-.02-.27-.03-.3-.13-.6-.26-.9-.39-.07,0-.2-.02-.27-.03-.15-.09-.29-.18-.45-.27-.07,0-.21,0-.28-.01-.15-.09-.29-.19-.44-.28-.07,0-.21,0-.28-.01-.15-.09-.29-.18-.44-.27-.07,0-.2-.02-.27-.03-.3-.14-.6-.26-.9-.39-.06-.01-.19-.03-.26-.04-.76-.37-1.58-.59-2.35-.96-.06-.01-.19-.04-.26-.05-.44-.18-.89-.35-1.33-.52-.07-.01-.2-.04-.26-.05-.14-.06-.29-.11-.43-.17-.14-.04-.29-.09-.44-.13-.2-.08-.4-.15-.6-.22-.07-.02-.19-.05-.26-.06-.25-.07-.5-.14-.75-.22-.72-.18-1.48-.24-2.22-.16-.25.03-.51.19-.58.45-.16.48-.22.98-.33,1.47-.07.3-.13.61-.2.91-.38,1.86-.72,3.73-1.1,5.6-.24,1.07-.39,2.15-.63,3.22-.04.24-.09.48-.14.72-.09.46-.18.93-.23,1.4-.07.3-.13.61-.21.91-.02.17-.05.35-.08.53-.09.35-.12.71-.21,1.06-.02.17-.05.35-.08.52-.07.24-.11.48-.16.72-.11.58-.18,1.16-.29,1.74-.08.28-.1.57-.14.86-.08.28-.11.58-.14.87-.08.28-.11.58-.14.87-.08.35-.12.71-.21,1.06-.02.17-.05.35-.08.53-.08.3-.14.61-.21.91-.02.13-.05.26-.08.39-.13.49-.22.99-.35,1.48-.02.06-.06.19-.08.25-.18.65-.35,1.31-.66,1.92,0,.07-.02.2-.03.26-.09.15-.18.3-.27.45,0,.07-.01.2-.02.27-.56.95-1,2.2-2.17,2.54-.66-.02-1.01-.7-1.25-1.23-.07-.24-.15-.47-.23-.71-.1-.42-.07-.86-.23-1.27v-2.22c.26-.73.05-1.51.25-2.25.03-.78.19-1.55.22-2.34.19-1,.32-2.02.44-3.04.24-1.15.37-2.32.59-3.47.08-.28.11-.58.14-.87.09-.35.12-.71.2-1.06.1-.46.18-.93.24-1.39.06-.24.11-.48.15-.72.06-.24.1-.48.14-.72.18-1.02.4-2.02.57-3.04.06-.24.11-.48.15-.72.06-.24.1-.48.14-.72.15-.67.29-1.35.44-2.03.06-.24.1-.48.14-.72.07-.3.13-.61.2-.91.08-.38.16-.75.24-1.12.06-.24.1-.48.14-.72.17-.67.29-1.35.43-2.03.18-.63.28-1.29.5-1.91.02-.06.05-.19.07-.25.4-1.24.85-2.75,2.22-3.23.2-.06.4-.12.6-.18h.49c.55.16,1.13.18,1.66.38Z"/>
    <path class="st8" d="M143.12,91.12v2.26c-.11.33-.15.68-.18,1.03-.06.2-.11.39-.15.59-.02.05-.05.16-.07.22-.07.58-.24,1.14-.41,1.69-.13.49-.28.97-.45,1.45-.01.06-.04.19-.05.26-.13.3-.26.6-.39.9,0,.07-.02.2-.03.27-.09.15-.18.3-.27.45,0,.07-.02.2-.02.27-.39.68-.61,1.44-1,2.11-.92,1.94-1.99,3.81-3.21,5.58-1.8,2.63-3.85,5.1-6.26,7.2-2.06,1.92-4.4,3.51-6.78,5.02-2.13,1.32-4.28,2.64-6.49,3.83-1.89,1.07-3.87,1.99-5.81,2.98-.66.36-1.38.56-2.02.95-.07,0-.2.02-.27.03-.25.14-.5.27-.74.41-.07,0-.21.01-.27.02-.15.09-.29.18-.44.27-.07,0-.21.01-.28.02-.15.09-.3.18-.44.27-.07,0-.2.02-.26.03-.3.13-.6.25-.9.38-.14.04-.29.09-.43.13-.39.14-.77.3-1.15.46-.07.01-.2.04-.26.05-.14.05-.29.11-.43.16-.62.21-1.26.38-1.88.58-.33.1-.67.19-1.01.29-.52.17-1.05.3-1.59.43-.62.16-1.25.3-1.88.44-.3.07-.6.13-.9.2-.24.04-.48.09-.72.14-.42.09-.84.17-1.26.24-.35.08-.71.11-1.06.2-.56.08-1.12.17-1.68.23-.49.16-1.02.09-1.53.15-.5.14-1.04.07-1.55.19-.56.12-1.16-.04-1.7.2h-8.12c-.69-.24-1.44-.06-2.14-.23-.47-.09-.95-.06-1.43-.09-.35-.16-.75-.11-1.12-.16-1.6-.24-3.21-.44-4.81-.73-.72-.17-1.45-.27-2.17-.44-1.91-.39-3.81-.81-5.68-1.37-.13-.02-.26-.04-.4-.06-.39-.14-.8-.24-1.19-.37-.06-.02-.19-.05-.25-.07-.25-.08-.5-.14-.76-.22-.07-.02-.19-.05-.26-.06-.14-.06-.29-.11-.43-.16-.14-.05-.29-.09-.43-.14-.14-.05-.29-.11-.43-.16-.19-.05-.39-.09-.58-.13-.44-.17-.88-.32-1.32-.49-.15-.05-.29-.1-.44-.14-.14-.05-.29-.11-.43-.16-.07-.01-.2-.03-.26-.04-.15-.08-.3-.16-.45-.24-.15-.05-.3-.1-.45-.15-.07-.01-.2-.03-.27-.04-.15-.09-.29-.18-.44-.27-.07-.01-.2-.03-.27-.04-.15-.05-.29-.1-.45-.15-.25-.13-.5-.25-.74-.39-.07,0-.2-.02-.27-.02-.15-.09-.3-.18-.45-.27-.07,0-.2-.02-.27-.02-.24-.13-.49-.26-.74-.38-.46-.14-.89-.36-1.31-.6-.07,0-.2-.02-.26-.03-2.92-1.49-5.9-2.89-8.62-4.72-2.71-1.71-5.26-3.68-7.67-5.78-.53-.58-1.21-1.01-1.74-1.59-.58-.62-1.24-1.18-1.78-1.84-.44-.61-1.04-1.07-1.48-1.68-1.63-1.87-3.07-3.88-4.47-5.92-.57-.79-1.11-1.61-1.45-2.53-.02-.06-.06-.19-.08-.25-.19-.79-.25-1.64.04-2.41.3-.75,1.04-1.2,1.78-1.42.22-.08.44.01.64.08.06.01.19.04.26.05,1.03.54,1.8,1.45,2.46,2.38,1.86,2.63,3.85,5.18,6.01,7.58.64.84,1.49,1.49,2.17,2.29,4.1,4.22,8.94,7.73,14.2,10.38.9.49,1.88.81,2.77,1.32.07,0,.21.03.27.03.25.14.5.27.74.41.07,0,.2.01.27.02.15.09.3.18.45.28.07,0,.21,0,.28.01.15.09.3.18.44.27.07.01.2.03.27.04.15.05.3.1.45.15.15.08.3.16.45.24.07.01.2.03.26.04.15.06.29.11.44.17.15.04.29.09.43.13.43.18.88.34,1.32.51.49.14.98.27,1.45.43.06.02.19.05.26.06.14.05.29.11.43.16.25.07.51.13.76.2.06.02.19.06.26.08.25.07.5.14.75.22.07.02.2.06.26.08.19.05.38.1.58.15.25.07.51.13.76.21.13.02.26.05.39.07.19.06.39.11.58.16.49.13.99.22,1.48.33.19.05.39.1.58.15.37.07.75.16,1.12.23.3.07.61.13.91.21.18.02.36.05.53.07,2.13.44,4.29.79,6.45,1.08.5.06,1.01,0,1.51.12.69.13,1.4,0,2.1.09,1.19.21,2.41.08,3.61.12,2.17-.04,4.35.11,6.51-.14,2.45-.14,4.9-.41,7.31-.82.77-.13,1.55-.25,2.31-.44.48-.08.97-.17,1.44-.28.19-.05.39-.1.58-.15.19-.05.38-.1.58-.15.33-.07.65-.16.98-.24.19-.05.38-.1.58-.14.4-.11.8-.22,1.19-.35.06-.02.19-.05.25-.07.4-.12.8-.23,1.19-.35.14-.05.29-.1.43-.14.15-.05.29-.11.43-.16.07-.01.2-.04.26-.05.2-.08.4-.16.6-.24.07-.01.2-.03.26-.05.29-.14.6-.27.9-.39.07,0,.2-.02.27-.02.15-.09.3-.18.44-.28.07,0,.21,0,.28-.01.15-.09.3-.19.44-.28.07,0,.21,0,.28,0,.15-.09.3-.18.44-.28.07,0,.2-.02.27-.03,3.11-1.44,6.21-2.94,9.06-4.85,2.64-1.69,5.06-3.69,7.39-5.77,1.15-1.16,2.31-2.32,3.47-3.47,3.16-3.58,5.99-7.48,8.21-11.72.5-.76.79-1.63,1.23-2.41.31-.72.64-1.43.89-2.18.02-.06.05-.19.07-.25.12-.33.21-.67.29-1.02.27-.65.56-1.68,1.47-1.54.44.29.81.67,1.1,1.11Z"/>
  </g>
</svg>