<?xml version="1.0" encoding="UTF-8"?>
<svg id="_圖層_1" data-name="圖層_1" xmlns="http://www.w3.org/2000/svg" version="1.1" xmlns:xodm="http://www.corel.com/coreldraw/odm/2003" viewBox="0 0 12 19.68">
  <!-- Generator: Adobe Illustrator 30.0.0, SVG Export Plug-In . SVG Version: 2.1.1 Build 123)  -->
  <defs>
    <style>
      .st0 {
        fill: #d04458;
      }

      .st0, .st1, .st2, .st3, .st4, .st5, .st6, .st7, .st8, .st9, .st10, .st11, .st12, .st13, .st14, .st15, .st16, .st17, .st18, .st19, .st20, .st21, .st22, .st23, .st24, .st25, .st26, .st27, .st28, .st29, .st30, .st31, .st32, .st33, .st34, .st35, .st36, .st37, .st38, .st39, .st40, .st41, .st42, .st43, .st44, .st45, .st46, .st47 {
        fill-rule: evenodd;
      }

      .st0, .st1, .st2, .st3, .st4, .st5, .st6, .st7, .st8, .st9, .st11, .st12, .st14, .st15, .st16, .st17, .st18, .st19, .st21, .st22, .st23, .st24, .st25, .st26, .st27, .st28, .st29, .st31, .st32, .st33, .st34, .st35, .st36, .st37, .st38, .st39, .st40, .st43, .st44, .st46, .st47 {
        display: none;
      }

      .st1 {
        fill: #fadd57;
      }

      .st2 {
        fill: #ca2b3e;
      }

      .st3 {
        fill: #d49858;
      }

      .st48 {
        fill: #fffeec;
      }

      .st49 {
        fill: #fbe600;
      }

      .st50 {
        fill: #feef00;
      }

      .st4 {
        fill: #d4586d;
      }

      .st5 {
        fill: #367eae;
      }

      .st6 {
        fill: #3377a7;
      }

      .st51 {
        fill: #fffef1;
      }

      .st7 {
        fill: #c1a32d;
      }

      .st8 {
        fill: #59a1d5;
      }

      .st9 {
        fill: #4596d0;
      }

      .st52 {
        fill: #fffee9;
      }

      .st10 {
        fill: #3d3d3d;
      }

      .st53 {
        fill: #fff200;
      }

      .st11 {
        fill: #cb8429;
      }

      .st54 {
        fill: #dd8000;
      }

      .st12 {
        fill: #009964;
      }

      .st13 {
        fill: #454545;
      }

      .st14 {
        fill: #b57837;
      }

      .st15 {
        fill: #fbfafb;
      }

      .st16 {
        fill: #2e8228;
      }

      .st55, .st45 {
        fill: #f18600;
      }

      .st17 {
        fill: #2d83cb;
      }

      .st56 {
        fill: #f8e000;
      }

      .st18 {
        fill: #fefefe;
      }

      .st19 {
        fill: #2fb22c;
      }

      .st20 {
        fill: #ffdf00;
      }

      .st57 {
        fill: #3c2f20;
      }

      .st21 {
        fill: #00e2ab;
      }

      .st58 {
        fill: #f3e509;
      }

      .st22 {
        fill: #09b28a;
      }

      .st59 {
        fill: #fff300;
      }

      .st60 {
        fill: #fffeef;
      }

      .st23 {
        fill: #fefeff;
      }

      .st24 {
        fill: #9b672f;
      }

      .st25 {
        fill: #2e6d99;
      }

      .st26 {
        fill: #fffffe;
      }

      .st61 {
        fill: #f9e100;
      }

      .st27 {
        fill: #004e2b;
      }

      .st28 {
        fill: #b0364a;
      }

      .st29 {
        fill: #ffd326;
      }

      .st30 {
        fill: #fdfdfd;
      }

      .st31 {
        fill: #6a6a6a;
      }

      .st32 {
        fill: #fefef7;
      }

      .st33 {
        fill: #f6f6f6;
      }

      .st34 {
        fill: #ffb801;
      }

      .st35 {
        fill: #8c8c8c;
      }

      .st36 {
        fill: #36982e;
      }

      .st37 {
        fill: #64d0e7;
      }

      .st38 {
        fill: #fd8f14;
      }

      .st39 {
        fill: #f50100;
      }

      .st62 {
        fill: #fff100;
      }

      .st40 {
        fill: #fee801;
      }

      .st41 {
        fill: #353535;
      }

      .st63 {
        fill: #3b2c23;
      }

      .st42 {
        fill: #3f3f3f;
      }

      .st64 {
        fill: #fff400;
      }

      .st43 {
        fill: #cf8f42;
      }

      .st44 {
        fill: #9a2e40;
      }

      .st65 {
        fill: #e18300;
      }

      .st66 {
        fill: #fffef0;
      }

      .st46 {
        fill: #41cb36;
      }

      .st47 {
        fill: #7b7b7b;
      }
    </style>
  </defs>
  <g id="_圖層_x5F_2" data-name="圖層_x5F_2">
    <g id="_2130947430576">
      <path class="st0" d="M.79,5.41l-.21,1.24c.05,2.23,2.21,5.42,3.05,7.26.66.1.02-.82-.2-1.29-.78-1.61-1.6-3.35-1.95-5.2l1.63.04c.47,1.38,1.94,2.23,3.69,1.83,1.8-.42,2.07-1.4,2.55-3.22h1.28c0,1.3-.3,2.19-.67,3.21l-.91,2.18c-.18.86-.22.43.13.82.69-1.39,2.25-3.97,2.23-5.64l-.13-1.25c-.44-.26-.29-.17-.61-.7C6.95-1.42,1.33,2.55.86,6.1l-.06-.69Z"/>
      <path class="st2" d="M3.64,13.92c.56,1.13,1.64,3.61,2.36,4.36.61-.66,2.68-4.85,3.18-5.98-.35-.39-.31.04-.13-.82l.91-2.18c.37-1.03.67-1.91.67-3.21h-1.28c-.48,1.82-.75,2.8-2.55,3.22-1.74.4-3.22-.45-3.69-1.83l-1.63-.04c.34,1.85,1.17,3.59,1.95,5.2.23.47.86,1.39.2,1.29Z"/>
      <path class="st28" d="M5.36,3.88c-.26.05-1.23.9-1.37,1.06-1.12,1.33-.19,4.31,2.54,3.81,3.24-.59,2.19-5.51-1.17-4.88Z"/>
      <path class="st44" d="M12,6.65h-.58c.01,1.67-1.54,4.25-2.23,5.64-.5,1.13-2.58,5.32-3.18,5.98-.72-.75-1.8-3.23-2.36-4.36-.84-1.85-3-5.04-3.05-7.26h-.58c.05,2.27,2.93,7.12,4.24,9.75.49.99.98,2.47,1.76,3.04.75-.55,1.24-2,1.68-2.88.54-1.08,1.03-2.05,1.6-3.2.83-1.67,2.68-4.55,2.72-6.7Z"/>
      <path class="st18" d="M5.37,4.54c-1.08.45-1.6,1.25-1.14,2.49.31.85,1.4,1.48,2.6,1.02,1.94-.74,1.01-4.54-1.46-3.52Z"/>
      <path class="st28" d="M0,6.65h.58l.21-1.24C.93,3,3.35.84,6,.82c2.74-.02,4.88,2.18,5.29,4.58l.13,1.25h.58c0-2.41-.88-3.98-2.46-5.16C5.4-1.6,0,1.51,0,6.65Z"/>
      <path class="st4" d="M.79,5.41l.06.69c.47-3.55,6.1-7.52,9.82-1.39.32.52.17.44.61.7-.41-2.4-2.55-4.6-5.29-4.58C3.35.84.93,3,.79,5.41Z"/>
    </g>
  </g>
  <g id="_圖層_x5F_3" data-name="圖層_x5F_3">
    <g id="_2130657452720">
      <path class="st43" d="M.64,7.04l.05.39c.27,1.58,4.61,9.98,5.31,10.8.68-.81,4.74-8.73,5.1-10.12-.33-.27-.29.57-.24-.74-.75.75-3.23,7.9-4.29,9.44-.49.71-.12.24-.56.61-.77-.63-.94-1.4-1.41-2.41-1.01-2.2-2.9-5.89-3.17-8.02h1.45c.65,3.04,5.61,3.88,6.48-.9h1.29l.03,1.1C12.86,5.97,7.11-1.93,2.44,3.17c-.38.42-.87.89-1.13,1.52-.32.79-.22,1.72-.67,2.35Z"/>
      <path class="st11" d="M10.86,7.36l-.18-.17-.03-1.1h-1.29c-.87,4.78-5.83,3.93-6.48.9h-1.45c.27,2.13,2.15,5.82,3.17,8.02.46,1,.64,1.78,1.41,2.41.45-.37.07.1.56-.61,1.06-1.54,3.55-8.69,4.29-9.44Z"/>
      <path class="st24" d="M5.51,4.04c-1.19.29-2.09,1.41-1.8,2.84.23,1.16,1.53,2.13,2.97,1.75,2.84-.75,1.89-5.33-1.17-4.59Z"/>
      <path class="st24" d="M11.76,5.04c-.09.49.05.63-.02,1.2-.12,1.01.07.62-.49,1.19l-.15.68c-.36,1.39-4.42,9.31-5.1,10.12-.71-.82-5.04-9.22-5.31-10.8-.83-1.03-.24-1.45-.45-2.39-.12.19-.19.4-.24.63v1.25c.12.84.42,1.7.65,2.27.99,2.5,2.18,4.37,3.43,6.89.46.93,1.16,2.81,1.92,3.36.77-.57,2.98-5.55,3.6-6.72.92-1.76,2.19-3.67,2.4-5.7v-.91l-.24-1.07Z"/>
      <path class="st18" d="M5.34,4.52c-.99.42-1.61,1.22-1.13,2.52.32.86,1.4,1.49,2.62,1.03,2.07-.78.99-4.6-1.49-3.55Z"/>
      <path class="st14" d="M.24,5.04c.2.94-.38,1.36.45,2.39l-.05-.39C.37-1.38,12.35-.93,11.25,7.43c.57-.57.37-.18.49-1.19.07-.57-.07-.71.02-1.2-.03-1.34-1.02-2.55-1.95-3.33C5.45-1.97.3,2.18.24,5.04Z"/>
      <path class="st3" d="M.64,7.04c.45-.63.35-1.56.67-2.35.26-.63.75-1.1,1.13-1.52C7.11-1.93,12.86,5.97,10.68,7.19l.18.17c-.05,1.32-.09.48.24.74l.15-.68C12.35-.93.37-1.38.64,7.04Z"/>
    </g>
  </g>
  <g id="_圖層_x5F_4" data-name="圖層_x5F_4">
    <g id="_2130883197264">
      <path class="st35" d="M3.19,13.2c.82-.36.11-.48-.96-3.18-.5-1.26-.84-2.3-.95-3.78h1.36c.38.68.58,3.11,3.37,3.12,2.37.01,2.57-1.43,3.35-3.12h1.38c-.16,2.04-1.02,3.92-1.88,5.72-1.05,2.21-.65,1.43-.38,1.79.72-2.14,3.03-5.01,3-7.73C11.4-.76,1.17-1.08.55,5.59c-.31,3.32,2.48,5.88,2.65,7.61Z"/>
      <path class="st47" d="M3.19,13.2c.48.88,1.03,1.69,1.47,2.52.45.85.66,1.78,1.34,2.51,1.16-1.35,1.34-2.9,2.48-4.48-.27-.36-.67.42.38-1.79.86-1.8,1.72-3.68,1.88-5.72h-1.38c-.78,1.7-.98,3.14-3.35,3.12-2.78-.02-2.99-2.45-3.37-3.12h-1.36c.11,1.48.45,2.52.95,3.78,1.07,2.71,1.78,2.82.96,3.18Z"/>
      <path class="st31" d="M8.48,13.75c-1.15,1.58-1.32,3.14-2.48,4.48-.68-.74-.89-1.66-1.34-2.51-.44-.82-.98-1.63-1.47-2.52-.16-1.73-2.96-4.29-2.65-7.61.63-6.68,10.85-6.36,10.93.42.03,2.73-2.28,5.59-3,7.73ZM0,6.24c0,2.54,1.59,5.1,2.72,7.12.58,1.03.99,1.96,1.52,3.04.49.99.98,2.47,1.76,3.04.75-.55,1.24-2,1.68-2.88.54-1.08,1.03-2.05,1.6-3.2,1.1-2.23,2.72-4.43,2.72-7.12C12-1.65,0-1.59,0,6.24Z"/>
    </g>
  </g>
  <g id="_圖層_x5F_5" data-name="圖層_x5F_5">
    <g id="_2130613875232">
      <path class="st42" d="M5.77,4.54,0,6.24c0,2.54,1.59,5.1,2.72,7.12.58,1.03.99,1.96,1.52,3.04.49.99.98,2.47,1.76,3.04.75-.55,1.24-2,1.68-2.88.54-1.08,1.03-2.05,1.6-3.2,1.1-2.23,2.72-4.43,2.72-7.12C12-1.65,0-1.59,0,6.24Z"/>
    </g>
    <g id="_2130789140416">
      <path class="st13" d="M7.63,13.98c-.13.66-.34,1.01-.62,1.64l-.58,1.15c-.04.05-.09.11-.13.16l-.94-.48-1.03-2.44c-.65-.55-1.49-2.62-1.87-3.5-.58-1.35-1.03-2.68-1.14-4.24h1.5c.67,3.47,3.22,3.62,4.92,2.69,1.07-.59.7-.7,1.38-1.55h1.41c-.2,1-1.75,5.18-2.49,6.14-.25.33-.14.2-.41.43ZM5.28,4.17c1.48-.64,3.79.66,2.97,3.12-.26.77-.38.95-1.16,1.28-3,1.25-5.2-2.93-1.81-4.4ZM6,18.11c1.67-2.92,3.21-5.96,4.79-9.23C12.85,4.62,9.95.69,6,.7c-3.99.01-6.77,3.88-4.8,8.19l4.8,9.22Z"/>
      <path class="st10" d="M4.33,14.01c.17-.34-.3-.43,1.67-.43.03,0,.93.06.94.06.74.17.22-.14.69.34.28-.23.16-.1.41-.43.74-.96,2.29-5.14,2.49-6.14h-1.41c-.69.84-.32.96-1.38,1.55-1.7.94-4.25.79-4.92-2.69h-1.5c.11,1.56.56,2.89,1.14,4.24.38.87,1.22,2.94,1.87,3.5Z"/>
      <path class="st41" d="M1.2,8.89C-.77,4.59,2.01.72,6,.7c3.95-.01,6.85,3.91,4.79,8.18-1.58,3.27-3.12,6.31-4.79,9.23L1.2,8.89ZM0,6.24c0,2.54,1.59,5.1,2.72,7.12.58,1.03.99,1.96,1.52,3.04.49.99.98,2.47,1.76,3.04.75-.55,1.24-2,1.68-2.88.54-1.08,1.03-2.05,1.6-3.2,1.1-2.23,2.72-4.43,2.72-7.12C12-1.65,0-1.59,0,6.24Z"/>
    </g>
  </g>
  <g id="_圖層_x5F_6" data-name="圖層_x5F_6">
    <g id="_2130789200080">
      <path class="st7" d="M-.12,5.4c0,3.32,1.67,4.85,2.78,7.54.48,1.17,2.72,6.07,3.46,6.62l2.88-6.24c2.03-4.02,2.88-4.77,2.88-8.16C11.88,2.35,9.12.02,6.1-.12h-.54c-1.32.06-2.66.55-3.82,1.61C.92,2.24-.12,3.92-.12,5.4Z"/>
      <path class="st1" d="M5.87,17.86c.79-.82,3.82-7.63,4.64-9.27,1.92-3.86-.5-8-4.63-7.97C1.72.65-.48,4.69,1.33,8.5c1.46,3.08,3.01,6.42,4.54,9.36Z"/>
      <path class="st29" d="M5.91,16.86c.73-1,3.24-6.71,4.17-8.45,1.9-3.58-.45-7.4-4.19-7.34C2.27,1.13-.04,4.6,1.76,8.33c1.35,2.79,2.74,5.92,4.15,8.53Z"/>
      <path class="st1" d="M5.04,1.69C-1.22,3.24,1.39,12.04,7.46,10.2,12.34,8.71,10.89.25,5.04,1.69Z"/>
      <path class="st7" d="M4.94,3.91c-2.97,1.48-.86,5.53,2.04,4.26,2.69-1.17.94-5.75-2.04-4.26Z"/>
      <path class="st26" d="M5.44,4.14c-2.81.79-1.46,4.43,1.04,3.8,2.39-.6,1.6-4.55-1.04-3.8Z"/>
    </g>
  </g>
  <g id="_圖層_x5F_7" data-name="圖層_x5F_7">
    <g id="_2130789193744">
      <path class="st19" d="M8.57,5.95c-.16,1.88-1.17,3.19-3.11,2.76-2.51-.56-1.84-2.32-1.61-3.68-.77-.08-.09.62-.54-.3.88-.88,1.51-1.95,3.61-1.4,1.31.34,1.91,1.39,1.99,3.03-.16-.19-.27-.02-.36-.4ZM.55,6.35l.07,1.12c.39,1.71,4.71,10.04,5.38,10.78.68-.79,4.98-9.12,5.38-10.78l.06-1.12c-1.11-.9-.25-1.5-2.04-3.27-.8-.8-1.9-1.48-3.42-1.48-1.46,0-2.61.73-3.39,1.48-1.45,1.39-1.1,2.52-2.04,3.28Z"/>
      <path class="st16" d="M12,6.43c-.49.37-.19.37-.62,1.04-.4,1.66-4.7,9.99-5.38,10.78-.67-.74-4.99-9.07-5.38-10.78-.45-.69-.13-.67-.62-1.04,0,2.51,2.85,7.19,4.24,9.97.49.99.98,2.47,1.76,3.04.75-.55,1.24-2,1.68-2.88,1.34-2.67,4.32-7.74,4.32-10.13Z"/>
      <path class="st36" d="M0,6.43c.49.37.17.35.62,1.04l-.07-1.12C1.69.05,7.09-.22,9.76,2.48c1.15,1.16,1.33,1.89,1.68,3.87l-.06,1.12c.43-.68.13-.67.62-1.04,0-2.09-.69-3.17-1.7-4.25C6.44-1.95,0,1.13,0,6.43Z"/>
      <path class="st33" d="M5.41,4.58c-2.71,1.17-.71,4.35,1.42,3.45,1.98-.84.97-4.48-1.42-3.45Z"/>
      <path class="st46" d="M.55,6.35c.94-.76.59-1.89,2.04-3.28.78-.75,1.94-1.48,3.39-1.48,1.52,0,2.62.69,3.42,1.48,1.79,1.77.93,2.37,2.04,3.27-.35-1.98-.53-2.71-1.68-3.87C7.09-.22,1.69.05.55,6.35Z"/>
      <path class="st36" d="M5.41,4.58c2.39-1.03,3.41,2.6,1.42,3.45-2.13.91-4.13-2.27-1.42-3.45ZM3.86,5.02c-.24,1.36-.9,3.13,1.61,3.68,1.93.43,2.95-.88,3.11-2.76-.33-1.13-.91-1.93-2.11-2.11-1.3-.19-2.06.29-2.6,1.19Z"/>
      <path class="st46" d="M3.86,5.02c.54-.89,1.3-1.38,2.6-1.19,1.2.18,1.78.98,2.11,2.11.09.38.2.21.36.4-.08-1.63-.69-2.68-1.99-3.03-2.1-.55-2.73.52-3.61,1.4.45.91-.23.21.54.3Z"/>
    </g>
  </g>
  <g id="_圖層_x5F_8" data-name="圖層_x5F_8">
    <g id="_2130789187168">
      <path class="st17" d="M3.38,13.4c.41.97,2.05,4.27,2.62,4.87.55-.59,2.71-4.86,3.21-5.99-.34-.39-.29.03-.11-.78,0-.01.35-.77.37-.82.94-2.05,1.28-3.24,1.09-5.5l-1.46-.05c.19,2.27-.37,4.04-2.85,4.19-2.61.16-3.54-1.6-3.32-4.2l-1.5.12c-.23,2.69,1.02,6.19,2.23,7.97-.06.32.32.35-.29.2Z"/>
      <path class="st9" d="M5.42,3.96c3.22-.73,4.26,4.04,1.11,4.77-1.45.33-2.67-.65-2.89-1.82-.26-1.35.61-2.68,1.78-2.94ZM1,4.59c-.49.7-.37,1.31-.37,2.29.01,1.77,2.02,5.01,2.75,6.52.61.15.22.11.29-.2-1.21-1.77-2.46-5.28-2.23-7.97l1.5-.12c-.23,2.61.7,4.36,3.32,4.2,2.48-.15,3.05-1.92,2.85-4.19l1.46.05c.19,2.26-.15,3.45-1.09,5.5-.02.05-.37.81-.37.82-.19.81-.24.39.11.78.66-1.44,2.16-3.79,2.16-5.4,0-.98.12-1.58-.35-2.31-.49.41-.07.36-.47-.17-.21-.27-.18-.38-.36-.64-1.43-2.1-4.74-3.18-7.28-1.09-2.01,1.66-1.36,2.68-1.91,1.91Z"/>
      <path class="st25" d="M0,7.29c1.66,4.69,2.15,4.93,4.32,9.27.44.88.93,2.33,1.68,2.88.5-.36,4.06-7.31,4.7-8.74.57-1.26.84-2.13,1.3-3.4-.26-.28-.2-.17-.63-.42,0,1.61-1.51,3.96-2.16,5.4-.5,1.13-2.65,5.4-3.21,5.99-.56-.6-2.21-3.9-2.62-4.87-.73-1.51-2.74-4.75-2.75-6.52-.43.25-.37.14-.63.41Z"/>
      <path class="st23" d="M4.1,6.48c.13,2.38,4.14,2.36,3.83-.46-.24-2.25-3.98-2.33-3.83.46Z"/>
      <path class="st5" d="M0,7.29c.26-.27.2-.16.63-.41,0-.98-.12-1.59.37-2.29C1.36,2.72,3.57.84,6,.83c2.43,0,4.63,1.89,5.02,3.75.47.73.36,1.32.35,2.31.43.25.37.14.63.42,0-2.61-.26-3.43-1.47-4.87-.46-.54-.24-.34-.85-.83C7.09-.46,4.01-.17,1.61,2.33.27,3.73,0,4.64,0,7.29Z"/>
      <path class="st8" d="M1,4.59c.55.76-.1-.26,1.91-1.91,2.54-2.09,5.85-1.02,7.28,1.09.18.27.15.37.36.64.4.53-.02.58.47.17-.39-1.86-2.59-3.76-5.02-3.75-2.43,0-4.64,1.89-5,3.76Z"/>
      <path class="st6" d="M4.1,6.48c-.15-2.79,3.59-2.71,3.83-.46.31,2.82-3.7,2.84-3.83.46ZM5.42,3.96c-1.17.26-2.03,1.6-1.78,2.94.22,1.17,1.43,2.16,2.89,1.82,3.15-.72,2.11-5.5-1.11-4.77Z"/>
    </g>
  </g>
  <g id="_圖層_x5F_1" data-name="圖層_x5F_1">
    <path class="st39" d="M9.34,5.35c-.03,1.17.1,1.87-.43,2.8-1.41,2.45-4.81,2.55-6.29.38-1.63-2.39-.38-5.28,2.44-5.89,1.76-.38,1.64.54,2.14-1.19C-.82,1.33-.19,8.14,2.64,10.3c3,2.3,7.74.28,7.96-3.34.1-1.56.25-3.23-1.26-1.62Z"/>
    <path class="st39" d="M8.4,5.67c-.82.21-.93,1.03-1.52,1.7-.58.66-1.61.76-2.4.14-.89-.71-.48-1.8.16-2.37.64-.57,1.62-.79,1.67-1.69-2.46-.52-4.91,2.68-2.71,4.93,2.44,2.51,5.79-.86,4.8-2.71Z"/>
    <path class="st39" d="M10.54,2.7h-.17l-.17.08s-.42.14-.87,0c-.48-.16-.33-.34-.31-.94l.07-.16-.14-.18c-.66.02-.81.42-1.3.95-1.26,1.34-.1,1.18-1.86,2.85-1.59,1.51-.26,2.05.85.86.45-.49.73-.83,1.45-1.06,1.12-.36.67-.39,1.44-.92.69-.48.99-.42,1.02-1.48Z"/>
    <path class="st15" d="M41.89,5.22c-.02.59-.17.77.3.92.44.14.81.01.86,0l.17-.08-.11-.92-1.15-.08-.07.16Z"/>
    <path class="st39" d="M9.34,5.35c-.03,1.17.1,1.87-.43,2.8-1.41,2.45-4.81,2.55-6.29.38-1.63-2.39-.38-5.28,2.44-5.89,1.76-.38,1.64.54,2.14-1.19C-.82,1.33-.19,8.14,2.64,10.3c3,2.3,7.74.28,7.96-3.34.1-1.56.25-3.23-1.26-1.62Z"/>
    <path class="st39" d="M8.4,5.67c-.82.21-.93,1.03-1.52,1.7-.58.66-1.61.76-2.4.14-.89-.71-.48-1.8.16-2.37.64-.57,1.62-.79,1.67-1.69-2.46-.52-4.91,2.68-2.71,4.93,2.44,2.51,5.79-.86,4.8-2.71Z"/>
    <path class="st39" d="M10.54,2.7h-.17l-.17.08s-.42.14-.87,0c-.48-.16-.33-.34-.31-.94l.07-.16-.14-.18c-.66.02-.81.42-1.3.95-1.26,1.34-.1,1.18-1.86,2.85-1.59,1.51-.26,2.05.85.86.45-.49.73-.83,1.45-1.06,1.12-.36.67-.39,1.44-.92.69-.48.99-.42,1.02-1.48Z"/>
    <path class="st39" d="M9.34,5.35c-.03,1.17.1,1.87-.43,2.8-1.41,2.45-4.81,2.55-6.29.38-1.63-2.39-.38-5.28,2.44-5.89,1.76-.38,1.64.54,2.14-1.19C-.82,1.33-.19,8.14,2.64,10.3c3,2.3,7.74.28,7.96-3.34.1-1.56.25-3.23-1.26-1.62Z"/>
    <g id="_2130789153664">
      <path class="st32" d="M3.89,9.7h-.02v.12h-.02v.07h-.02v.02h-.17v.02h-.93v-.02h-.88v-.02h-.02v-.36h-.02v-1.11h.02v-.17h.02v-.05h1.83v.02h.14v.05h.02v.15h.02v.17h.02v.22h.02v.65h-.02v.24ZM1.78,5.65h.02v-.1h.02v-.02h.02v-.02h.02v-.02h.05v-.02h.09v-.02h.19v-.02h.19v-.02h1v.02h.12v.02h.07v.02h.05v.02h.05v.02h.05v.02h.05v.02h.02v.02h.02v.02h.02v.05h.02v.07h.02v.1h.02v.1h.02v.15h.02v.36h-.02v.31h-.02v.1h-.02v.05h-.02v.05h-.02v.02h-.02v.02h-.05v.02h-.07v.02h-.09v.02h-.12v.02h-.09v.02h-1.26v-.02h-.07v-.02h-.05v-.02h-.02v-.02h-.05v-.02h-.02v-.02h-.02v-.07h-.02v-.15h-.02v-.1h-.02v-.24h-.02v-.27h-.02v-.48ZM3.04,2.58h-.02v.02h-.02v.02h-.02v.02h-.02v.05h-.02v.02h-.02v.05h-.02v.05h-.02v.05h-.02v.05h-.02v.05h-.02v.07h-.02v.05h-.02v.05h-.02v.05h-.02v.05h-.02v.05h-.02v.07h-.02v.05h-.02v.02h-.02v.05h-.02v.07h-.02v.05h-.02v.05h-.02v.05h-.02v.05h-.02v.05h-.02v.05h-.02v.05h-.02v.05h-.02v.05h-.02v.05h-.02v.05h-.02v.05h-.02v.05h-.02v.05h-.02v.05h-.02v.05h-.02v.05h-.02v.05h-.02v.05h-.02v.05h-.02v.05h-.02v.05h-.02v.05h-.02v.05h-.02v.05h-.02v.05h-.02v.05h-.02v.05h-.02v.05h-.02v.05h-.02v.05h-.02v.05h-.02v.02h-.02v.05h-.02v.05h-.02v.05h-.02v.05h-.02v.05h-.02v.05h-.02v.05h-.02v.05h-.02v.05h-.02v.07h-.02v.05h-.02v.07h-.02v.05h-.02v.07h-.02v.05h-.02v.02h-.02v.05h-.02v.05h-.02v.02h-.02v.02h-.02v.02h-.02v.02h-.02v.02h-.02v.02h-.02v.02h-.02v.02h-.02v.02h-.02v.02h-.05v.12h-.02v.1h-.02v.22h-.02v3.75h.02v.19h.14v.02h1.4v.02h2.23v-.05h.02v-.12h.02v-2.73h-.02v-.39h-.02v-.31h-.02v-.46h-.02v-.15h-.02v-.1h-.02v-.05h-.02v-.05h-.02v-.05h-.02v-.05h-.02v-.05h-.02v-.05h-.02v-.07h-.02v-.05h-.02v-.05h-.02v-.05h-.02v-.05h-.02v-.02h-.02v-.05h-.02v-.05h-.02v-.05h-.02v-.05h-.02v-.05h-.02v-.05h-.02v-.07h-.02v-.05h-.02v-.05h-.02v-.05h-.02v-.05h-.02v-.05h-.02v-.05h-.02v-.05h-.02v-.05h-.02v-.05h-.02v-.07h-.02v-.05h-.02v-.05h-.02v-.07h-.02v-.05h-.02v-.07h-.02v-.05h-.02v-.05h-.02v-.05h-.02v-.05h-.02v-.05h-.02v-.05h-.02v-.07h-.02v-.05h-.02v-.02h-.02v-.05h-.02v-.07h-.02v-.05h-.02v-.07h-.02v-.05h-.02v-.07h-.02v-.05h-.02v-.05h-.02v-.07h-.02v-.05h-.02v-.05h-.02v-.07h-.02v-.05h-.02v-.07h-.02v-.05h-.02v-.07h-.02v-.07h-.02v-.1h-.02v-.07h-.02v-.07h-.02v-.1h-.02v-.05h-.02v-.07h-.02v-.07h-.02v-.1h-.02v-.02h-.02v.02Z"/>
      <path class="st32" d="M7.95,8.57h.02v-.29h.02v-.05h.05v-.02h1.61v.02h.26v.02h.07v.02h.02v.05h.02v.07h.02v.19h.02v1.31h-.02v.02h-.12v.02h-.14v.02h-.78v-.02h-.47v-.02h-.52v-.02h-.05v-.22h-.02v-1.11ZM7.88,5.79h.02v-.05h.02v-.05h.02v-.1h.02v-.05h.02v-.1h.05v-.02h.14v-.02h.24v-.02h.33v-.02h.36v-.02h.38v.02h.12v.02h.09v.02h.07v.02h.05v.02h.05v.02h.05v.02h.02v.02h.02v.02h.02v.02h.02v.05h.02v.1h.02v.97h-.02v.12h-.02v.1h-.02v.02h-.02v.02h-.02v.02h-.05v.02h-.05v.02h-.07v.02h-.07v.02h-.14v.02h-.17v.02h-1.04v-.02h-.14v-.02h-.05v-.02h-.02v-.02h-.02v-.02h-.02v-.02h-.02v-.05h-.02v-.05h-.02v-.02h-.02v-.07h-.02v-.1h-.02v-.14h-.02v-.22h-.02v-.1h-.02v-.43ZM9.11,2.48h-.02v.07h-.02v.05h-.02v.05h-.02v.05h-.02v.05h-.02v.05h-.02v.05h-.02v.07h-.02v.05h-.02v.07h-.02v.05h-.02v.07h-.02v.05h-.02v.05h-.02v.05h-.02v.05h-.02v.05h-.02v.05h-.02v.05h-.02v.05h-.02v.05h-.02v.05h-.02v.07h-.02v.05h-.02v.05h-.02v.05h-.02v.05h-.02v.05h-.02v.05h-.02v.05h-.02v.05h-.02v.05h-.02v.05h-.02v.05h-.02v.05h-.02v.05h-.02v.05h-.02v.05h-.02v.05h-.02v.07h-.02v.05h-.02v.05h-.02v.05h-.02v.05h-.02v.05h-.02v.05h-.02v.05h-.02v.05h-.02v.05h-.02v.05h-.02v.05h-.02v.05h-.02v.05h-.02v.05h-.02v.05h-.02v.05h-.02v.07h-.02v.05h-.02v.07h-.02v.05h-.02v.05h-.02v.05h-.02v.05h-.02v.05h-.02v.05h-.02v.05h-.02v.05h-.02v.05h-.02v.02h-.02v.05h-.02v.05h-.02v.05h-.02v.05h-.02v.05h-.02v.05h-.02v.05h-.02v.07h-.02v.12h-.02v.27h-.02v1.33h-.02v1.86h-.02v.72h.02v.02h3.58v-.02h.14v-.05h.02v-2.95h-.02v-1.06h-.02v-.24h-.02v-.05h-.02v-.02h-.02v-.05h-.02v-.02h-.02v-.05h-.02v-.02h-.02v-.05h-.02v-.05h-.02v-.02h-.02v-.05h-.02v-.05h-.02v-.05h-.02v-.05h-.02v-.05h-.02v-.02h-.02v-.05h-.02v-.05h-.02v-.05h-.02v-.05h-.02v-.05h-.02v-.05h-.02v-.05h-.02v-.05h-.02v-.05h-.02v-.05h-.02v-.05h-.02v-.05h-.02v-.05h-.02v-.05h-.02v-.05h-.02v-.05h-.02v-.05h-.02v-.02h-.02v-.07h-.02v-.05h-.02v-.05h-.02v-.05h-.02v-.07h-.02v-.05h-.02v-.05h-.02v-.07h-.02v-.05h-.02v-.05h-.02v-.07h-.02v-.05h-.02v-.05h-.02v-.05h-.02v-.05h-.02v-.05h-.02v-.07h-.02v-.05h-.02v-.07h-.02v-.05h-.02v-.05h-.02v-.07h-.02v-.05h-.02v-.05h-.02v-.05h-.02v-.07h-.02v-.05h-.02v-.05h-.02v-.1h-.02v-.07h-.02v-.07h-.02v-.07h-.02v-.1h-.02v-.07h-.02v-.07h-.02v-.07h-.02v-.07h-.02v-.07h-.02v-.07h-.02v-.05h-.02v-.05h-.02v.02Z"/>
      <path class="st27" d="M10.91,10.7h-.14v.02h-3.58v-.02h-.02v-.72h.02v-1.86h.02v-1.33h.02v-.27h.02v-.12h.02v-.07h.02v-.05h.02v-.05h.02v-.05h.02v-.05h.02v-.05h.02v-.05h.02v-.05h.02v-.02h.02v-.05h.02v-.05h.02v-.05h.02v-.05h.02v-.05h.02v-.05h.02v-.05h.02v-.05h.02v-.05h.02v-.07h.02v-.05h.02v-.07h.02v-.05h.02v-.05h.02v-.05h.02v-.05h.02v-.05h.02v-.05h.02v-.05h.02v-.05h.02v-.05h.02v-.05h.02v-.05h.02v-.05h.02v-.05h.02v-.05h.02v-.05h.02v-.05h.02v-.07h.02v-.05h.02v-.05h.02v-.05h.02v-.05h.02v-.05h.02v-.05h.02v-.05h.02v-.05h.02v-.05h.02v-.05h.02v-.05h.02v-.05h.02v-.05h.02v-.05h.02v-.05h.02v-.05h.02v-.07h.02v-.05h.02v-.05h.02v-.05h.02v-.05h.02v-.05h.02v-.05h.02v-.05h.02v-.05h.02v-.05h.02v-.05h.02v-.07h.02v-.05h.02v-.07h.02v-.05h.02v-.07h.02v-.05h.02v-.05h.02v-.05h.02v-.05h.02v-.05h.02v-.05h.02v-.07h.02v-.02h.02v.05h.02v.05h.02v.07h.02v.07h.02v.07h.02v.07h.02v.07h.02v.07h.02v.1h.02v.07h.02v.07h.02v.07h.02v.1h.02v.05h.02v.05h.02v.07h.02v.05h.02v.05h.02v.05h.02v.07h.02v.05h.02v.05h.02v.07h.02v.05h.02v.07h.02v.05h.02v.05h.02v.05h.02v.05h.02v.05h.02v.07h.02v.05h.02v.05h.02v.07h.02v.05h.02v.05h.02v.07h.02v.05h.02v.05h.02v.05h.02v.07h.02v.02h.02v.05h.02v.05h.02v.05h.02v.05h.02v.05h.02v.05h.02v.05h.02v.05h.02v.05h.02v.05h.02v.05h.02v.05h.02v.05h.02v.05h.02v.05h.02v.05h.02v.05h.02v.02h.02v.05h.02v.05h.02v.05h.02v.05h.02v.05h.02v.02h.02v.05h.02v.05h.02v.02h.02v.05h.02v.02h.02v.05h.02v.02h.02v.05h.02v.24h.02v1.06h.02v2.95h-.02v.05ZM.97,6.71h.02v-.22h.02v-.1h.02v-.12h.05v-.02h.02v-.02h.02v-.02h.02v-.02h.02v-.02h.02v-.02h.02v-.02h.02v-.02h.02v-.02h.02v-.02h.02v-.05h.02v-.05h.02v-.02h.02v-.05h.02v-.07h.02v-.05h.02v-.07h.02v-.05h.02v-.07h.02v-.05h.02v-.05h.02v-.05h.02v-.05h.02v-.05h.02v-.05h.02v-.05h.02v-.05h.02v-.05h.02v-.02h.02v-.05h.02v-.05h.02v-.05h.02v-.05h.02v-.05h.02v-.05h.02v-.05h.02v-.05h.02v-.05h.02v-.05h.02v-.05h.02v-.05h.02v-.05h.02v-.05h.02v-.05h.02v-.05h.02v-.05h.02v-.05h.02v-.05h.02v-.05h.02v-.05h.02v-.05h.02v-.05h.02v-.05h.02v-.05h.02v-.05h.02v-.05h.02v-.05h.02v-.05h.02v-.05h.02v-.05h.02v-.05h.02v-.07h.02v-.05h.02v-.02h.02v-.05h.02v-.07h.02v-.05h.02v-.05h.02v-.05h.02v-.05h.02v-.05h.02v-.07h.02v-.05h.02v-.05h.02v-.05h.02v-.05h.02v-.05h.02v-.02h.02v-.05h.02v-.02h.02v-.02h.02v-.02h.02v-.02h.02v.02h.02v.1h.02v.07h.02v.07h.02v.05h.02v.1h.02v.07h.02v.07h.02v.1h.02v.07h.02v.07h.02v.05h.02v.07h.02v.05h.02v.07h.02v.05h.02v.05h.02v.07h.02v.05h.02v.05h.02v.07h.02v.05h.02v.07h.02v.05h.02v.07h.02v.05h.02v.02h.02v.05h.02v.07h.02v.05h.02v.05h.02v.05h.02v.05h.02v.05h.02v.05h.02v.07h.02v.05h.02v.07h.02v.05h.02v.05h.02v.07h.02v.05h.02v.05h.02v.05h.02v.05h.02v.05h.02v.05h.02v.05h.02v.05h.02v.05h.02v.07h.02v.05h.02v.05h.02v.05h.02v.05h.02v.05h.02v.05h.02v.02h.02v.05h.02v.05h.02v.05h.02v.05h.02v.07h.02v.05h.02v.05h.02v.05h.02v.05h.02v.05h.02v.05h.02v.1h.02v.15h.02v.46h.02v.31h.02v.39h.02v2.73h-.02v.12h-.02v.05h-2.23v-.02h-1.4v-.02h-.14v-.19h-.02v-3.75ZM9.01.74h.02v.05h.02v.05h.02v.02h.02v.05h.02v.02h.02v.05h.02v.05h.02v.05h.02v.05h.02v.05h.02v.05h.02v.05h.02v.05h.02v.05h.02v.07h.02v.05h.02v.05h.02v.05h.02v.07h.02v.05h.02v.05h.02v.05h.02v.07h.02v.05h.02v.05h.02v.05h.02v.05h.02v.05h.02v.05h.02v.05h.02v.07h.02v.05h.02v.05h.02v.05h.02v.05h.02v.07h.02v.05h.02v.05h.02v.05h.02v.07h.02v.05h.02v.05h.02v.05h.02v.05h.02v.05h.02v.07h.02v.05h.02v.07h.02v.05h.02v.07h.02v.07h.02v.05h.02v.05h.02v.07h.02v.05h.02v.07h.02v.05h.02v.05h.02v.07h.02v.05h.02v.05h.02v.07h.02v.05h.02v.05h.02v.07h.02v.05h.02v.07h.02v.05h.02v.05h.02v.07h.02v.05h.02v.07h.02v.05h.02v.07h.02v.05h.02v.07h.02v.07h.02v.07h.02v.12h.02v.1h.02v.43h-.02v.07h-.02v.07h-.02v.05h-.02v.07h-.02v.05h-.02v.02h-.05v-.05h-.02v-.05h-.02v-.07h-.02v-.05h-.02v-.02h-.02v-.05h-.02v-.07h-.02v-.05h-.02v-.05h-.02v-.05h-.02v-.05h-.02v-.05h-.02v-.07h-.02v-.05h-.02v-.05h-.02v-.05h-.02v-.05h-.02v-.05h-.02v-.05h-.02v-.02h-.02v-.05h-.02v-.05h-.02v-.05h-.02v-.05h-.02v-.05h-.02v-.05h-.02v-.07h-.02v-.05h-.02v-.07h-.02v-.05h-.02v-.07h-.02v-.05h-.02v-.05h-.02v-.05h-.02v-.07h-.02v-.05h-.02v-.05h-.02v-.05h-.02v-.05h-.02v-.05h-.02v-.07h-.02v-.05h-.02v-.05h-.02v-.07h-.02v-.05h-.02v-.05h-.02v-.07h-.02v-.05h-.02v-.05h-.02v-.05h-.02v-.07h-.02v-.05h-.02v-.05h-.02v-.07h-.02v-.05h-.02v-.05h-.02v-.07h-.02v-.05h-.02v-.07h-.02v-.07h-.02v-.07h-.02v-.05h-.02v-.05h-.02v-.07h-.02v-.05h-.02v-.05h-.02v-.02h-.02v-.05h-.02v-.05h-.02v-.05h-.02v-.07h-.02v-.19h-.02v.19h-.02v.1h-.02v.05h-.02v.07h-.02v.05h-.02v.05h-.02v.05h-.02v.02h-.02v.05h-.02v.05h-.02v.05h-.02v.05h-.02v.05h-.02v.07h-.02v.05h-.02v.05h-.02v.05h-.02v.05h-.02v.05h-.02v.05h-.02v.05h-.02v.07h-.02v.05h-.02v.05h-.02v.05h-.02v.05h-.02v.05h-.02v.05h-.02v.05h-.02v.05h-.02v.05h-.02v.05h-.02v.05h-.02v.05h-.02v.05h-.02v.05h-.02v.05h-.02v.05h-.02v.05h-.02v.05h-.02v.05h-.02v.05h-.02v.07h-.02v.02h-.02v.07h-.02v.05h-.02v.05h-.02v.05h-.02v.07h-.02v.05h-.02v.05h-.02v.05h-.02v.05h-.02v.07h-.02v.05h-.02v.05h-.02v.05h-.02v.05h-.02v.05h-.02v.05h-.02v.07h-.02v.05h-.02v.05h-.02v.05h-.02v.07h-.02v.05h-.02v.05h-.02v.05h-.02v.05h-.02v.05h-.02v.05h-.02v.05h-.02v.05h-.02v.05h-.02v.05h-.02v.02h-.02v.07h-.02v.02h-.02v.05h-.02v.02h-.02v.05h-.02v.05h-.02v.05h-.02v.05h-.02v.02h-.02v.02h-.02v.02h-.07v.02h-.07v.02h-.09v.02h-.12v.02h-.09v.02h-.26v.02h-.52v-.02h-.24v-.02h-.14v-.02h-.09v-.02h-.09v.02h.07v.02h.02v.02h.14v.02h.14v.02h.12v.02h.17v.02h.43v-.02h.19v-.02h.12v-.02h.12v-.02h.09v-.02h.05v-.02h.05v-.02h.07v-.02h.05v-.02h.07v-.02h.07v-.02h.02v.58h-.02v.63h-.02v.58h-.17v-.02h-.71v.02h-.83v.02h-.33v.02h-.19v-.02h-.02v-.15h-.02v-.31h-.02v-.19h-.02v-.34h-.02v-.34h-.02v-.36h-.02v-.05h-.02v-.07h.02v-.02h.05v.02h.05v-.02h.02v.02h.05v-.02h-.05v-.02h-.02v-.02h-.02v-.05h-.02v-.05h-.02v-.05h-.02v-.02h-.02v-.05h-.02v-.05h-.02v-.05h-.02v-.05h-.02v-.05h-.02v-.05h-.02v-.05h-.02v-.05h-.02v-.05h-.02v-.05h-.02v-.05h-.02v-.05h-.02v-.07h-.02v-.05h-.02v-.05h-.02v-.05h-.02v-.07h-.02v-.05h-.02v-.05h-.02v-.05h-.02v-.07h-.02v-.05h-.02v-.05h-.02v-.05h-.02v-.05h-.02v-.05h-.02v-.05h-.02v-.07h-.02v-.05h-.02v-.05h-.02v-.05h-.02v-.05h-.02v-.07h-.02v-.05h-.02v-.05h-.02v-.05h-.02v-.07h-.02v-.05h-.02v-.05h-.02v-.05h-.02v-.05h-.02v-.05h-.02v-.05h-.02v-.05h-.02v-.07h-.02v-.05h-.02v-.05h-.02v-.07h-.02v-.05h-.02v-.05h-.02v-.07h-.02v-.05h-.02v-.05h-.02v-.05h-.02v-.05h-.02v-.05h-.02v-.05h-.02v-.05h-.02v-.05h-.02v-.05h-.02v-.07h-.02v-.07h-.02v-.05h-.02v-.05h-.02v-.07h-.02v-.05h-.02v-.05h-.02v-.07h-.02v-.07h-.02v-.05h-.02v-.05h-.02v-.07h-.02v-.05h-.02v-.07h-.02v-.14h-.02v-.02h-.02v.17h-.02v.07h-.02v.05h-.02v.05h-.02v.05h-.02v.05h-.02v.07h-.02v.05h-.02v.05h-.02v.05h-.02v.05h-.02v.05h-.02v.05h-.02v.05h-.02v.05h-.02v.07h-.02v.05h-.02v.05h-.02v.05h-.02v.05h-.02v.05h-.02v.05h-.02v.05h-.02v.05h-.02v.05h-.02v.05h-.02v.05h-.02v.05h-.02v.07h-.02v.02h-.02v.05h-.02v.07h-.02v.05h-.02v.02h-.02v.05h-.02v.05h-.02v.05h-.02v.05h-.02v.05h-.02v.05h-.02v.05h-.02v.05h-.02v.05h-.02v.05h-.02v.05h-.02v.05h-.02v.05h-.02v.05h-.02v.05h-.02v.05h-.02v.05h-.02v.05h-.02v.05h-.02v.05h-.02v.05h-.02v.05h-.02v.05h-.02v.07h-.02v.05h-.02v.05h-.02v.05h-.02v.05h-.02v.07h-.02v.05h-.02v.05h-.02v.05h-.02v.05h-.02v.05h-.02v.05h-.02v.05h-.02v.05h-.02v.02h-.02v.05h-.02v.02h-.02v.05h-.02v.02h-.02v.05h-.02v.02h-.02v.02h-.02v.02h-.02v.02h-.02v.05h-.02v-.24h-.02v-.27h.02v-.19h.02v-.12h.02v-.1h.02v-.12h.02v-.1h.02v-.1h.02v-.05h.02v-.07h.02v-.07h.02v-.05h.02v-.05h.02v-.05h.02v-.07h.02v-.05h.02v-.05h.02v-.05h.02v-.05h.02v-.05h.02v-.05h.02v-.05h.02v-.05h.02v-.05h.02v-.05h.02v-.05h.02v-.05h.02v-.05h.02v-.05h.02v-.05h.02v-.05h.02v-.05h.02v-.07h.02v-.05h.02v-.05h.02v-.05h.02v-.07h.02v-.05h.02v-.05h.02v-.05h.02v-.07h.02v-.05h.02v-.05h.02v-.05h.02v-.05h.02v-.05h.02v-.05h.02v-.05h.02v-.05h.02v-.05h.02v-.05h.02v-.05h.02v-.05h.02v-.07h.02v-.02h.02v-.05h.02v-.05h.02v-.02h.02v-.05h.02v-.05h.02v-.05h.02v-.05h.02v-.02h.02v-.05h.02v-.02h.02v-.05h.02v-.05h.02v-.05h.02v-.05h.02v-.07h.02v-.15h-.02v.12h-.02v.07h-.02v.05h-.02v.05h-.02v.05h-.02v.02h-.02v.05h-.02v.05h-.02v.02h-.02v.05h-.02v.05h-.02v.05h-.02v.02h-.02v.05h-.02v.05h-.02v.05h-.02v.02h-.02v.05h-.02v.05h-.02v.05h-.02v.05h-.02v.05h-.02v.05h-.02v.05h-.02v.02h-.02v.05h-.02v.05h-.02v.05h-.02v.05h-.02v.05h-.02v.02h-.02v.05h-.02v.05h-.02v.05h-.02v.05h-.02v.05h-.02v.02h-.02v.05h-.02v.07h-.02v.05h-.02v.05h-.02v.05h-.02v.05h-.02v.05h-.02v.05h-.02v.05h-.02v.05h-.02v.05h-.02v.02h-.02v.05h-.02v.02h-.02v.05h-.02v.05h-.02v.02h-.02v.05h-.02v.02h-.02v.05h-.02v.02h-.02v.02h-.02v.02h-.02v.02h-.02v.02h-.02v.02h-.02v.07h.02v-.02h.02v-.02h.02v-.02h.02v-.02h.05v-.02h.02v-.02h.02v.05h-.02v.07h-.02v.05h-.02v.05h-.02v.05h-.02v.07h-.02v.02h-.02v.07h-.02v.12h-.02v.1h-.02v.07h-.02v.07h-.02v.07h-.02v.07h-.05v-.07h-.02v-.19h-.02v-.82h-.02v-1.72h.02v-1.4h.02v-.46h.02v-.02h.02v-.02h.57v.02h3.63v.02h1.87v-.02h.66v-.02h.4v-.02h.28v-.02h.4v-.02h2.23v.02h.02v.19h.02v.41h.02v3.84h-.02v.1h-.02v.02h-.02v-.02h-.02v-.02h-.02v-.07h-.02v-.07h-.02v-.05h-.02v-.05h-.02v-.07h-.02v-.05h-.02v-.07h-.02v-.05h-.02v-.05h-.02v-.05h-.02v-.07h-.02v-.05h-.02v-.05h-.02v-.05h-.02v-.07h-.02v-.07h-.02v-.05h-.02v-.05h-.02v-.1h-.02v-.05h-.02v-.05h-.02v-.07h-.02v-.05h-.02v-.07h-.02v-.05h-.02v-.05h-.02v-.07h-.02v-.05h-.02v-.05h-.02v-.05h-.02v-.07h-.02v-.05h-.02v-.05h-.02v-.05h-.02v-.05h-.02v-.07h-.02v-.05h-.02v-.07h-.02v-.05h-.02v-.05h-.02v-.05h-.02v-.07h-.02v-.05h-.02v-.05h-.02v-.07h-.02v-.05h-.02v-.05h-.02v-.07h-.02v-.05h-.02v-.05h-.02v-.05h-.02v-.07h-.02v-.05h-.02v-.05h-.02v-.05h-.02v-.05h-.02v-.05h-.02v-.05h-.02v-.05h-.02v-.05h-.02v-.05h-.02v-.05h-.02v-.05h-.02v-.05h-.02v-.02h-.02v-.05h-.02v-.05h-.02v-.05h-.02v-.05h-.02v-.02h-.02v-.07h-.02v-.05h-.02v-.05h-.02v-.1h-.02v-.05h-.02v-.12h-.02v-.05h-.02v-.1h-.02v-.02h-.02v-.02h-.12v.05h.02v.05h.02v.05h.02v.05ZM10.06.33h-1.61v.02H.81v.65h-.02v3.07h.02v2.83h-.02v2.46h.02v1.35h.02v.15h2.73v-.02h3.49v.02h3.87v-.02h.14v-.02h.02v-.02h.02v-4.74h-.02v-.63h.02v-.97h.02V.67h-.02v-.27h-.02v-.07h-.09v-.02h-.92v.02Z"/>
      <polygon class="st12" points="5.1 .88 5.1 .91 5.08 .91 5.08 .93 5.05 .93 5.05 .98 5.03 .98 5.03 1.05 5 1.05 5 2.99 5.03 2.99 5.03 3.35 5.05 3.35 5.05 3.52 5.08 3.52 5.08 3.62 5.1 3.62 5.1 3.76 5.12 3.76 5.12 3.88 5.15 3.88 5.15 4.03 5.17 4.03 5.17 4.1 5.19 4.1 5.19 4.2 5.22 4.2 5.22 4.32 5.24 4.32 5.24 4.44 5.27 4.44 5.27 4.53 5.29 4.53 5.29 4.58 5.31 4.58 5.31 4.68 5.34 4.68 5.34 4.78 5.36 4.78 5.36 4.9 5.38 4.9 5.38 5.04 5.36 5.04 5.36 5.07 5.34 5.07 5.34 5.09 5.31 5.09 5.31 5.11 5.29 5.11 5.29 5.23 5.27 5.23 5.27 5.26 5.24 5.26 5.24 5.28 5.22 5.28 5.22 5.36 5.19 5.36 5.19 5.4 5.17 5.4 5.17 5.38 5.12 5.38 5.12 5.33 5.1 5.33 5.1 5.31 5.05 5.31 5.05 5.28 5.03 5.28 5.03 5.23 5 5.23 5 5.19 4.98 5.19 4.98 5.14 4.96 5.14 4.96 5.11 4.93 5.11 4.93 5.07 4.91 5.07 4.91 4.99 4.89 4.99 4.89 4.94 4.86 4.94 4.86 4.9 4.84 4.9 4.84 4.85 4.81 4.85 4.81 4.78 4.79 4.78 4.79 4.73 4.77 4.73 4.77 4.68 4.74 4.68 4.74 4.63 4.72 4.63 4.72 4.58 4.7 4.58 4.7 4.53 4.67 4.53 4.67 4.49 4.65 4.49 4.65 4.46 4.63 4.46 4.63 4.36 4.6 4.36 4.6 4.32 4.58 4.32 4.58 4.27 4.55 4.27 4.55 4.2 4.53 4.2 4.53 4.17 4.51 4.17 4.51 4.1 4.48 4.1 4.48 4.07 4.46 4.07 4.46 4 4.44 4 4.44 3.95 4.41 3.95 4.41 3.91 4.39 3.91 4.39 3.86 4.36 3.86 4.36 3.78 4.34 3.78 4.34 3.74 4.32 3.74 4.32 3.69 4.29 3.69 4.29 3.64 4.27 3.64 4.27 3.59 4.25 3.59 4.25 3.54 4.22 3.54 4.22 3.47 4.2 3.47 4.2 3.42 4.17 3.42 4.17 3.37 4.15 3.37 4.15 3.33 4.13 3.33 4.13 3.25 4.1 3.25 4.1 3.2 4.08 3.2 4.08 3.13 4.06 3.13 4.06 3.11 4.03 3.11 4.03 3.04 4.01 3.04 4.01 2.99 3.98 2.99 3.98 2.94 3.96 2.94 3.96 2.89 3.94 2.89 3.94 2.82 3.91 2.82 3.91 2.77 3.89 2.77 3.89 2.72 3.87 2.72 3.87 2.67 3.84 2.67 3.84 2.62 3.82 2.62 3.82 2.58 3.8 2.58 3.8 2.53 3.77 2.53 3.77 2.48 3.75 2.48 3.75 2.43 3.72 2.43 3.72 2.38 3.7 2.38 3.7 2.33 3.68 2.33 3.68 2.26 3.65 2.26 3.65 2.21 3.63 2.21 3.63 2.17 3.61 2.17 3.61 2.12 3.58 2.12 3.58 2.07 3.56 2.07 3.56 2.02 3.53 2.02 3.53 1.97 3.51 1.97 3.51 1.92 3.49 1.92 3.49 1.88 3.46 1.88 3.46 1.83 3.44 1.83 3.44 1.8 3.42 1.8 3.42 1.75 3.39 1.75 3.39 1.71 3.37 1.71 3.37 1.68 3.34 1.68 3.34 1.66 3.32 1.66 3.32 1.61 3.3 1.61 3.3 1.56 3.27 1.56 3.27 1.54 3.25 1.54 3.25 1.51 3.23 1.51 3.23 1.49 3.2 1.49 3.2 1.46 3.18 1.46 3.18 1.44 3.15 1.44 3.15 1.42 3.13 1.42 3.13 1.39 3.11 1.39 3.11 1.37 3.08 1.37 3.08 1.34 3.06 1.34 3.06 1.32 3.04 1.32 3.04 1.3 3.01 1.3 3.01 1.32 3.04 1.32 3.04 1.34 3.06 1.34 3.06 1.37 3.08 1.37 3.08 1.39 3.11 1.39 3.11 1.44 3.13 1.44 3.13 1.46 3.15 1.46 3.15 1.49 3.18 1.49 3.18 1.51 3.2 1.51 3.2 1.54 3.23 1.54 3.23 1.59 3.25 1.59 3.25 1.61 3.27 1.61 3.27 1.63 3.3 1.63 3.3 1.68 3.32 1.68 3.32 1.71 3.34 1.71 3.34 1.75 3.37 1.75 3.37 1.8 3.39 1.8 3.39 1.85 3.42 1.85 3.42 1.9 3.44 1.9 3.44 1.95 3.46 1.95 3.46 2 3.49 2 3.49 2.04 3.51 2.04 3.51 2.09 3.53 2.09 3.53 2.12 3.56 2.12 3.56 2.17 3.58 2.17 3.58 2.21 3.61 2.21 3.61 2.26 3.63 2.26 3.63 2.31 3.65 2.31 3.65 2.36 3.68 2.36 3.68 2.41 3.7 2.41 3.7 2.48 3.72 2.48 3.72 2.53 3.75 2.53 3.75 2.58 3.77 2.58 3.77 2.62 3.8 2.62 3.8 2.7 3.82 2.7 3.82 2.75 3.84 2.75 3.84 2.79 3.87 2.79 3.87 2.87 3.89 2.87 3.89 2.91 3.91 2.91 3.91 2.96 3.94 2.96 3.94 3.01 3.96 3.01 3.96 3.06 3.98 3.06 3.98 3.11 4.01 3.11 4.01 3.16 4.03 3.16 4.03 3.2 4.06 3.2 4.06 3.28 4.08 3.28 4.08 3.33 4.1 3.33 4.1 3.37 4.13 3.37 4.13 3.42 4.15 3.42 4.15 3.49 4.17 3.49 4.17 3.54 4.2 3.54 4.2 3.62 4.22 3.62 4.22 3.66 4.25 3.66 4.25 3.74 4.27 3.74 4.27 3.78 4.29 3.78 4.29 3.83 4.32 3.83 4.32 3.91 4.34 3.91 4.34 3.95 4.36 3.95 4.36 4 4.39 4 4.39 4.05 4.41 4.05 4.41 4.1 4.44 4.1 4.44 4.15 4.46 4.15 4.46 4.2 4.48 4.2 4.48 4.24 4.51 4.24 4.51 4.32 4.53 4.32 4.53 4.36 4.55 4.36 4.55 4.41 4.58 4.41 4.58 4.46 4.6 4.46 4.6 4.51 4.63 4.51 4.63 4.56 4.65 4.56 4.65 4.61 4.67 4.61 4.67 4.63 4.7 4.63 4.7 4.68 4.72 4.68 4.72 4.75 4.74 4.75 4.74 4.8 4.77 4.8 4.77 4.85 4.79 4.85 4.79 4.9 4.81 4.9 4.81 4.97 4.84 4.97 4.84 5.02 4.86 5.02 4.86 5.07 4.89 5.07 4.89 5.11 4.91 5.11 4.91 5.16 4.93 5.16 4.93 5.21 4.96 5.21 4.96 5.26 4.98 5.26 4.98 5.31 5 5.31 5 5.36 5.03 5.36 5.03 5.4 5.05 5.4 5.05 5.43 5.08 5.43 5.08 5.48 5.1 5.48 5.1 5.5 5.12 5.5 5.12 5.55 5.15 5.55 5.15 5.57 5.17 5.57 5.17 5.62 5.19 5.62 5.19 5.65 5.22 5.65 5.22 5.67 5.24 5.67 5.24 5.69 5.27 5.69 5.27 5.72 5.29 5.72 5.29 5.74 5.31 5.74 5.31 5.77 5.34 5.77 5.34 5.79 5.36 5.79 5.36 5.81 5.38 5.81 5.38 5.84 5.41 5.84 5.41 5.86 5.43 5.86 5.43 5.89 5.48 5.89 5.48 5.91 5.53 5.91 5.53 5.94 5.57 5.94 5.57 5.96 5.67 5.96 5.67 5.98 5.81 5.98 5.81 6.01 6.21 6.01 6.21 5.98 6.38 5.98 6.38 5.96 6.5 5.96 6.5 5.94 6.59 5.94 6.59 5.91 6.64 5.91 6.64 5.89 6.67 5.89 6.67 5.86 6.69 5.86 6.69 5.84 6.71 5.84 6.71 5.81 6.74 5.81 6.74 5.77 6.76 5.77 6.76 5.74 6.78 5.74 6.78 5.69 6.81 5.69 6.81 5.65 6.83 5.65 6.83 5.62 6.86 5.62 6.86 5.57 6.88 5.57 6.88 5.52 6.9 5.52 6.9 5.48 6.93 5.48 6.93 5.43 6.95 5.43 6.95 5.4 6.97 5.4 6.97 5.36 7 5.36 7 5.31 7.02 5.31 7.02 5.26 7.04 5.26 7.04 5.21 7.07 5.21 7.07 5.16 7.09 5.16 7.09 5.11 7.12 5.11 7.12 5.07 7.14 5.07 7.14 5.02 7.16 5.02 7.16 4.97 7.19 4.97 7.19 4.92 7.21 4.92 7.21 4.87 7.23 4.87 7.23 4.8 7.26 4.8 7.26 4.78 7.28 4.78 7.28 4.7 7.31 4.7 7.31 4.65 7.33 4.65 7.33 4.61 7.35 4.61 7.35 4.56 7.38 4.56 7.38 4.51 7.4 4.51 7.4 4.46 7.42 4.46 7.42 4.41 7.45 4.41 7.45 4.36 7.47 4.36 7.47 4.32 7.5 4.32 7.5 4.27 7.52 4.27 7.52 4.22 7.54 4.22 7.54 4.17 7.57 4.17 7.57 4.1 7.59 4.1 7.59 4.05 7.61 4.05 7.61 4 7.64 4 7.64 3.98 7.66 3.98 7.66 3.91 7.69 3.91 7.69 3.88 7.71 3.88 7.71 3.83 7.73 3.83 7.73 3.78 7.76 3.78 7.76 3.71 7.78 3.71 7.78 3.69 7.8 3.69 7.8 3.62 7.83 3.62 7.83 3.57 7.85 3.57 7.85 3.52 7.88 3.52 7.88 3.45 7.9 3.45 7.9 3.4 7.92 3.4 7.92 3.35 7.95 3.35 7.95 3.28 7.97 3.28 7.97 3.23 7.99 3.23 7.99 3.18 8.02 3.18 8.02 3.13 8.04 3.13 8.04 3.06 8.06 3.06 8.06 3.01 8.09 3.01 8.09 2.96 8.11 2.96 8.11 2.91 8.14 2.91 8.14 2.87 8.16 2.87 8.16 2.79 8.18 2.79 8.18 2.77 8.21 2.77 8.21 2.7 8.23 2.7 8.23 2.62 8.25 2.62 8.25 2.58 8.28 2.58 8.28 2.53 8.3 2.53 8.3 2.46 8.33 2.46 8.33 2.41 8.35 2.41 8.35 2.36 8.37 2.36 8.37 2.31 8.4 2.31 8.4 2.24 8.42 2.24 8.42 2.19 8.44 2.19 8.44 2.14 8.47 2.14 8.47 2.09 8.49 2.09 8.49 2.04 8.52 2.04 8.52 2 8.54 2 8.54 1.92 8.56 1.92 8.56 1.88 8.59 1.88 8.59 1.83 8.61 1.83 8.61 1.75 8.63 1.75 8.63 1.71 8.66 1.71 8.66 1.66 8.68 1.66 8.68 1.59 8.71 1.59 8.71 1.54 8.73 1.54 8.73 1.46 8.75 1.46 8.75 1.39 8.78 1.39 8.78 1.34 8.8 1.34 8.8 1.27 8.82 1.27 8.82 1.17 8.85 1.17 8.85 1.1 8.87 1.1 8.87 1.05 8.9 1.05 8.9 1.01 8.92 1.01 8.92 .98 8.94 .98 8.94 .96 8.97 .96 8.97 .93 9.01 .93 9.01 .91 9.04 .91 9.04 .88 9.11 .88 9.11 .86 9.08 .86 9.08 .84 9.06 .84 9.06 .79 9.04 .79 9.04 .74 9.01 .74 9.01 .79 8.82 .79 8.82 .76 8.73 .76 8.73 .79 8.59 .79 8.59 .81 8.3 .81 8.3 .84 7.04 .84 7.04 .86 5.17 .86 5.17 .88 5.1 .88"/>
      <polygon class="st22" points="5.1 .88 5.05 .88 5.05 .91 5.03 .91 5.03 .93 5 .93 5 .98 4.98 .98 4.98 2.84 5 2.84 5 1.05 5.03 1.05 5.03 .98 5.05 .98 5.05 .93 5.08 .93 5.08 .91 5.1 .91 5.1 .88 5.17 .88 5.17 .86 7.04 .86 7.04 .84 8.3 .84 8.3 .81 8.59 .81 8.59 .79 8.73 .79 8.73 .76 8.82 .76 8.82 .79 9.01 .79 9.01 .69 8.99 .69 8.99 .64 8.97 .64 8.97 .59 8.94 .59 8.94 .55 9.06 .55 9.06 .57 9.08 .57 9.08 .55 9.11 .55 9.11 .52 9.16 .52 9.16 .55 9.18 .55 9.18 .52 9.25 .52 9.25 .5 9.32 .5 9.32 .47 9.89 .47 9.89 .45 10.13 .45 10.13 .43 8.75 .43 8.75 .45 8.35 .45 8.35 .47 8.06 .47 8.06 .5 7.66 .5 7.66 .52 7 .52 7 .55 5.12 .55 5.12 .52 1.49 .52 1.49 .5 .92 .5 .92 .52 .9 .52 .9 .55 .88 .55 .88 1.01 .85 1.01 .85 2.41 .83 2.41 .83 4.12 .85 4.12 .85 4.94 .88 4.94 .88 5.14 .9 5.14 .9 5.21 .95 5.21 .95 5.14 .97 5.14 .97 5.07 1 5.07 1 4.99 1.02 4.99 1.02 4.92 1.04 4.92 1.04 4.82 1.07 4.82 1.07 4.7 1.09 4.7 1.09 4.63 1.11 4.63 1.11 4.61 1.14 4.61 1.14 4.53 1.16 4.53 1.16 4.49 1.19 4.49 1.19 4.44 1.21 4.44 1.21 4.39 1.23 4.39 1.23 4.32 1.26 4.32 1.26 4.27 1.23 4.27 1.23 4.29 1.21 4.29 1.21 4.32 1.16 4.32 1.16 4.34 1.14 4.34 1.14 4.36 1.11 4.36 1.11 4.39 1.09 4.39 1.09 4.41 1.07 4.41 1.07 4.34 1.09 4.34 1.09 4.32 1.11 4.32 1.11 4.29 1.14 4.29 1.14 4.27 1.16 4.27 1.16 4.24 1.19 4.24 1.19 4.22 1.21 4.22 1.21 4.2 1.23 4.2 1.23 4.15 1.26 4.15 1.26 4.12 1.28 4.12 1.28 4.07 1.3 4.07 1.3 4.05 1.33 4.05 1.33 4 1.35 4 1.35 3.95 1.38 3.95 1.38 3.93 1.4 3.93 1.4 3.88 1.42 3.88 1.42 3.86 1.45 3.86 1.45 3.81 1.47 3.81 1.47 3.76 1.49 3.76 1.49 3.71 1.52 3.71 1.52 3.66 1.54 3.66 1.54 3.62 1.57 3.62 1.57 3.57 1.59 3.57 1.59 3.52 1.61 3.52 1.61 3.47 1.64 3.47 1.64 3.42 1.66 3.42 1.66 3.35 1.68 3.35 1.68 3.3 1.71 3.3 1.71 3.28 1.73 3.28 1.73 3.23 1.75 3.23 1.75 3.18 1.78 3.18 1.78 3.13 1.8 3.13 1.8 3.08 1.83 3.08 1.83 3.04 1.85 3.04 1.85 3.01 1.87 3.01 1.87 2.96 1.9 2.96 1.9 2.91 1.92 2.91 1.92 2.87 1.94 2.87 1.94 2.82 1.97 2.82 1.97 2.77 1.99 2.77 1.99 2.75 2.02 2.75 2.02 2.7 2.04 2.7 2.04 2.65 2.06 2.65 2.06 2.6 2.09 2.6 2.09 2.55 2.11 2.55 2.11 2.5 2.13 2.5 2.13 2.46 2.16 2.46 2.16 2.41 2.18 2.41 2.18 2.38 2.21 2.38 2.21 2.33 2.23 2.33 2.23 2.29 2.25 2.29 2.25 2.24 2.28 2.24 2.28 2.21 2.3 2.21 2.3 2.17 2.32 2.17 2.32 2.12 2.35 2.12 2.35 2.07 2.37 2.07 2.37 2.04 2.4 2.04 2.4 2 2.42 2 2.42 1.95 2.44 1.95 2.44 1.92 2.47 1.92 2.47 1.88 2.49 1.88 2.49 1.83 2.51 1.83 2.51 1.78 2.54 1.78 2.54 1.71 2.56 1.71 2.56 1.56 2.54 1.56 2.54 1.51 2.51 1.51 2.51 1.49 2.49 1.49 2.49 1.46 2.47 1.46 2.47 1.42 2.44 1.42 2.44 1.39 2.42 1.39 2.42 1.37 2.4 1.37 2.4 1.34 2.37 1.34 2.37 1.32 2.35 1.32 2.35 1.3 2.32 1.3 2.32 1.27 2.3 1.27 2.3 1.25 2.28 1.25 2.28 1.22 2.25 1.22 2.25 1.2 2.23 1.2 2.23 1.17 2.21 1.17 2.21 1.15 2.18 1.15 2.18 1.13 2.16 1.13 2.16 1.1 2.13 1.1 2.13 1.08 2.11 1.08 2.11 1.05 2.06 1.05 2.06 1.03 2.04 1.03 2.04 1.01 1.99 1.01 1.99 .98 1.97 .98 1.97 .96 1.92 .96 1.92 .93 1.9 .93 1.9 .91 1.85 .91 1.85 .88 1.8 .88 1.8 .86 1.73 .86 1.73 .84 1.68 .84 1.68 .81 1.59 .81 1.59 .79 1.54 .79 1.54 .76 1.52 .76 1.52 .72 1.54 .72 1.54 .69 1.49 .69 1.49 .67 1.57 .67 1.57 .62 1.59 .62 1.59 .57 1.57 .57 1.57 .55 3.56 .55 3.56 .57 5.69 .57 5.69 .59 6.31 .59 6.31 .62 6.29 .62 6.29 .64 6.48 .64 6.48 .67 6.4 .67 6.4 .69 6.5 .69 6.5 .72 6.45 .72 6.45 .74 6.52 .74 6.52 .79 6.5 .79 6.5 .81 6.71 .81 6.71 .84 5.15 .84 5.15 .86 5.1 .86 5.1 .88"/>
      <polygon class="st21" points="9.27 1.17 9.3 1.17 9.3 1.2 9.32 1.2 9.32 1.25 9.35 1.25 9.35 1.3 9.37 1.3 9.37 1.34 9.39 1.34 9.39 1.39 9.42 1.39 9.42 1.42 9.44 1.42 9.44 1.46 9.46 1.46 9.46 1.51 9.49 1.51 9.49 1.56 9.51 1.56 9.51 1.61 9.54 1.61 9.54 1.66 9.56 1.66 9.56 1.71 9.58 1.71 9.58 1.75 9.61 1.75 9.61 1.8 9.63 1.8 9.63 1.85 9.65 1.85 9.65 1.9 9.68 1.9 9.68 1.95 9.7 1.95 9.7 2 9.73 2 9.73 2.07 9.75 2.07 9.75 2.12 9.77 2.12 9.77 2.17 9.8 2.17 9.8 2.21 9.82 2.21 9.82 2.29 9.84 2.29 9.84 2.33 9.87 2.33 9.87 2.38 9.89 2.38 9.89 2.46 9.92 2.46 9.92 2.5 9.94 2.5 9.94 2.55 9.96 2.55 9.96 2.62 9.99 2.62 9.99 2.67 10.01 2.67 10.01 2.72 10.03 2.72 10.03 2.77 10.06 2.77 10.06 2.84 10.08 2.84 10.08 2.89 10.1 2.89 10.1 2.96 10.13 2.96 10.13 3.01 10.15 3.01 10.15 3.06 10.18 3.06 10.18 3.11 10.2 3.11 10.2 3.16 10.22 3.16 10.22 3.23 10.25 3.23 10.25 3.28 10.27 3.28 10.27 3.33 10.29 3.33 10.29 3.37 10.32 3.37 10.32 3.45 10.34 3.45 10.34 3.49 10.37 3.49 10.37 3.54 10.39 3.54 10.39 3.62 10.41 3.62 10.41 3.66 10.44 3.66 10.44 3.74 10.46 3.74 10.46 3.78 10.48 3.78 10.48 3.83 10.51 3.83 10.51 3.93 10.53 3.93 10.53 3.98 10.56 3.98 10.56 4.03 10.58 4.03 10.58 4.1 10.6 4.1 10.6 4.17 10.63 4.17 10.63 4.22 10.65 4.22 10.65 4.27 10.67 4.27 10.67 4.32 10.7 4.32 10.7 4.39 10.72 4.39 10.72 4.44 10.75 4.44 10.75 4.49 10.77 4.49 10.77 4.53 10.79 4.53 10.79 4.61 10.82 4.61 10.82 4.65 10.84 4.65 10.84 4.73 10.86 4.73 10.86 4.78 10.89 4.78 10.89 4.82 10.91 4.82 10.91 4.9 10.94 4.9 10.94 4.97 10.96 4.97 10.96 4.99 10.98 4.99 10.98 5.02 11.01 5.02 11.01 4.99 11.03 4.99 11.03 4.9 11.05 4.9 11.05 1.05 11.03 1.05 11.03 .64 11.01 .64 11.01 .45 10.98 .45 10.98 .43 10.13 .43 10.13 .45 9.89 .45 9.89 .47 9.32 .47 9.32 .5 9.25 .5 9.25 .52 9.18 .52 9.18 .55 9.16 .55 9.16 .52 9.11 .52 9.11 .55 9.08 .55 9.08 .59 9.11 .59 9.11 .69 9.13 .69 9.13 .74 9.16 .74 9.16 .86 9.18 .86 9.18 .91 9.2 .91 9.2 1.01 9.23 1.01 9.23 1.05 9.25 1.05 9.25 1.1 9.27 1.1 9.27 1.17"/>
      <polygon class="st12" points="5.19 6.49 5.15 6.49 5.15 6.47 5.08 6.47 5.08 6.44 5 6.44 5 6.42 4.96 6.42 4.96 6.39 4.86 6.39 4.86 6.37 4.84 6.37 4.84 6.39 4.79 6.39 4.79 6.37 4.74 6.37 4.74 6.39 4.72 6.39 4.72 6.47 4.74 6.47 4.74 6.52 4.77 6.52 4.77 6.88 4.79 6.88 4.79 7.22 4.81 7.22 4.81 7.55 4.84 7.55 4.84 7.75 4.86 7.75 4.86 8.06 4.89 8.06 4.89 8.21 4.91 8.21 4.91 8.23 5.1 8.23 5.1 8.21 5.43 8.21 5.43 8.18 6.26 8.18 6.26 8.16 6.97 8.16 6.97 8.18 7.14 8.18 7.14 7.6 7.16 7.6 7.16 6.97 7.19 6.97 7.19 6.39 7.16 6.39 7.16 6.42 7.09 6.42 7.09 6.44 7.02 6.44 7.02 6.47 6.97 6.47 6.97 6.49 6.9 6.49 6.9 6.52 6.86 6.52 6.86 6.54 6.81 6.54 6.81 6.56 6.71 6.56 6.71 6.59 6.59 6.59 6.59 6.61 6.48 6.61 6.48 6.64 6.29 6.64 6.29 6.66 5.86 6.66 5.86 6.64 5.69 6.64 5.69 6.61 5.57 6.61 5.57 6.59 5.43 6.59 5.43 6.56 5.29 6.56 5.29 6.54 5.27 6.54 5.27 6.52 5.19 6.52 5.19 6.49"/>
      <polygon class="st37" points="8.04 8.23 7.99 8.23 7.99 8.28 7.97 8.28 7.97 8.57 7.95 8.57 7.95 9.68 7.97 9.68 7.97 9.9 8.02 9.9 8.02 9.92 8.54 9.92 8.54 9.95 9.01 9.95 9.01 9.97 9.8 9.97 9.8 9.95 9.94 9.95 9.94 9.92 10.06 9.92 10.06 9.9 10.08 9.9 10.08 8.59 10.06 8.59 10.06 8.4 10.03 8.4 10.03 8.33 10.01 8.33 10.01 8.28 9.99 8.28 9.99 8.26 9.92 8.26 9.92 8.23 9.65 8.23 9.65 8.21 8.04 8.21 8.04 8.23"/>
      <polygon class="st37" points="1.85 8.26 1.83 8.26 1.83 8.42 1.8 8.42 1.8 9.54 1.83 9.54 1.83 9.9 1.85 9.9 1.85 9.92 2.73 9.92 2.73 9.95 3.65 9.95 3.65 9.92 3.82 9.92 3.82 9.9 3.84 9.9 3.84 9.83 3.87 9.83 3.87 9.7 3.89 9.7 3.89 9.46 3.91 9.46 3.91 8.81 3.89 8.81 3.89 8.59 3.87 8.59 3.87 8.42 3.84 8.42 3.84 8.28 3.82 8.28 3.82 8.23 3.68 8.23 3.68 8.21 1.85 8.21 1.85 8.26"/>
      <polygon class="st37" points="9.11 5.36 8.75 5.36 8.75 5.38 8.42 5.38 8.42 5.4 8.18 5.4 8.18 5.43 8.04 5.43 8.04 5.45 7.99 5.45 7.99 5.55 7.97 5.55 7.97 5.6 7.95 5.6 7.95 5.69 7.92 5.69 7.92 5.74 7.9 5.74 7.9 5.79 7.88 5.79 7.88 6.23 7.9 6.23 7.9 6.32 7.92 6.32 7.92 6.54 7.95 6.54 7.95 6.68 7.97 6.68 7.97 6.78 7.99 6.78 7.99 6.85 8.02 6.85 8.02 6.88 8.04 6.88 8.04 6.93 8.06 6.93 8.06 6.97 8.09 6.97 8.09 7 8.11 7 8.11 7.02 8.14 7.02 8.14 7.05 8.16 7.05 8.16 7.07 8.21 7.07 8.21 7.1 8.35 7.1 8.35 7.12 9.39 7.12 9.39 7.1 9.56 7.1 9.56 7.07 9.7 7.07 9.7 7.05 9.77 7.05 9.77 7.02 9.84 7.02 9.84 7 9.89 7 9.89 6.97 9.94 6.97 9.94 6.95 9.96 6.95 9.96 6.93 9.99 6.93 9.99 6.9 10.01 6.9 10.01 6.81 10.03 6.81 10.03 6.68 10.06 6.68 10.06 5.72 10.03 5.72 10.03 5.62 10.01 5.62 10.01 5.57 9.99 5.57 9.99 5.55 9.96 5.55 9.96 5.52 9.94 5.52 9.94 5.5 9.92 5.5 9.92 5.48 9.87 5.48 9.87 5.45 9.82 5.45 9.82 5.43 9.77 5.43 9.77 5.4 9.7 5.4 9.7 5.38 9.61 5.38 9.61 5.36 9.49 5.36 9.49 5.33 9.11 5.33 9.11 5.36"/>
      <polygon class="st21" points="3.32 1.63 3.32 1.66 3.34 1.66 3.34 1.68 3.37 1.68 3.37 1.71 3.39 1.71 3.39 1.75 3.42 1.75 3.42 1.8 3.44 1.8 3.44 1.83 3.46 1.83 3.46 1.88 3.49 1.88 3.49 1.92 3.51 1.92 3.51 1.97 3.53 1.97 3.53 2.02 3.56 2.02 3.56 2.07 3.58 2.07 3.58 2.12 3.61 2.12 3.61 2.17 3.63 2.17 3.63 2.21 3.65 2.21 3.65 2.26 3.68 2.26 3.68 2.33 3.7 2.33 3.7 2.38 3.72 2.38 3.72 2.43 3.75 2.43 3.75 2.48 3.77 2.48 3.77 2.53 3.8 2.53 3.8 2.58 3.82 2.58 3.82 2.62 3.84 2.62 3.84 2.67 3.87 2.67 3.87 2.72 3.89 2.72 3.89 2.77 3.91 2.77 3.91 2.82 3.94 2.82 3.94 2.89 3.96 2.89 3.96 2.94 3.98 2.94 3.98 2.99 4.01 2.99 4.01 3.04 4.03 3.04 4.03 3.11 4.06 3.11 4.06 3.13 4.08 3.13 4.08 3.2 4.1 3.2 4.1 3.25 4.13 3.25 4.13 3.28 4.15 3.28 4.15 3.3 4.17 3.3 4.17 3.35 4.2 3.35 4.2 3.4 4.22 3.4 4.22 3.47 4.25 3.47 4.25 3.49 4.27 3.49 4.27 3.57 4.34 3.57 4.34 3.59 4.36 3.59 4.36 3.66 4.39 3.66 4.39 3.71 4.41 3.71 4.41 3.74 4.44 3.74 4.44 3.78 4.46 3.78 4.46 3.81 4.48 3.81 4.48 3.83 4.53 3.83 4.53 3.86 4.58 3.86 4.58 3.88 4.65 3.88 4.65 3.91 4.7 3.91 4.7 3.88 4.77 3.88 4.77 3.86 4.96 3.86 4.96 3.88 5.1 3.88 5.1 3.62 5.08 3.62 5.08 3.52 5.05 3.52 5.05 3.35 5.03 3.35 5.03 2.99 5 2.99 5 2.84 4.98 2.84 4.98 .98 5 .98 5 .93 5.03 .93 5.03 .91 5.05 .91 5.05 .88 5.1 .88 5.1 .86 5.15 .86 5.15 .84 6.71 .84 6.71 .81 6.5 .81 6.5 .79 6.52 .79 6.52 .74 6.45 .74 6.45 .72 6.5 .72 6.5 .69 6.4 .69 6.4 .67 6.48 .67 6.48 .64 6.29 .64 6.29 .62 6.31 .62 6.31 .59 5.69 .59 5.69 .57 4.81 .57 4.81 .59 5.03 .59 5.03 .62 5.08 .62 5.08 .64 5.12 .64 5.12 .74 5.1 .74 5.1 .79 5.08 .79 5.08 .81 5.05 .81 5.05 .84 5.03 .84 5.03 .86 4.96 .86 4.96 .88 4.91 .88 4.91 .91 4.86 .91 4.86 .93 4.84 .93 4.84 .96 4.81 .96 4.81 .98 4.77 .98 4.77 1.01 4.74 1.01 4.74 1.03 4.72 1.03 4.72 1.05 4.67 1.05 4.67 1.08 4.55 1.08 4.55 1.1 4.48 1.1 4.48 1.13 4.41 1.13 4.41 1.15 4.34 1.15 4.34 1.17 4.29 1.17 4.29 1.2 4.25 1.2 4.25 1.22 4.2 1.22 4.2 1.25 4.15 1.25 4.15 1.27 4.13 1.27 4.13 1.3 4.1 1.3 4.1 1.32 4.06 1.32 4.06 1.34 4.01 1.34 4.01 1.37 3.98 1.37 3.98 1.39 3.94 1.39 3.94 1.42 3.89 1.42 3.89 1.44 3.84 1.44 3.84 1.46 3.46 1.46 3.46 1.49 3.44 1.49 3.44 1.51 3.42 1.51 3.42 1.54 3.39 1.54 3.39 1.56 3.37 1.56 3.37 1.61 3.34 1.61 3.34 1.63 3.32 1.63"/>
      <polygon class="st37" points="2.4 5.4 2.21 5.4 2.21 5.43 2.02 5.43 2.02 5.45 1.92 5.45 1.92 5.48 1.87 5.48 1.87 5.5 1.85 5.5 1.85 5.52 1.83 5.52 1.83 5.55 1.8 5.55 1.8 5.65 1.78 5.65 1.78 6.13 1.8 6.13 1.8 6.39 1.83 6.39 1.83 6.64 1.85 6.64 1.85 6.73 1.87 6.73 1.87 6.88 1.9 6.88 1.9 6.95 1.92 6.95 1.92 6.97 1.94 6.97 1.94 7 1.99 7 1.99 7.02 2.02 7.02 2.02 7.05 2.06 7.05 2.06 7.07 2.13 7.07 2.13 7.1 3.39 7.1 3.39 7.07 3.49 7.07 3.49 7.05 3.61 7.05 3.61 7.02 3.7 7.02 3.7 7 3.77 7 3.77 6.97 3.82 6.97 3.82 6.95 3.84 6.95 3.84 6.93 3.87 6.93 3.87 6.88 3.89 6.88 3.89 6.83 3.91 6.83 3.91 6.73 3.94 6.73 3.94 6.42 3.96 6.42 3.96 6.06 3.94 6.06 3.94 5.91 3.91 5.91 3.91 5.81 3.89 5.81 3.89 5.72 3.87 5.72 3.87 5.65 3.84 5.65 3.84 5.6 3.82 5.6 3.82 5.57 3.8 5.57 3.8 5.55 3.77 5.55 3.77 5.52 3.72 5.52 3.72 5.5 3.68 5.5 3.68 5.48 3.63 5.48 3.63 5.45 3.58 5.45 3.58 5.43 3.51 5.43 3.51 5.4 3.39 5.4 3.39 5.38 2.4 5.38 2.4 5.4"/>
      <polygon class="st40" points="5.17 5.6 5.15 5.6 5.15 5.57 5.12 5.57 5.12 5.55 5.1 5.55 5.1 5.57 5.08 5.57 5.08 5.52 5.1 5.52 5.1 5.5 5.08 5.5 5.08 5.45 5.05 5.45 5.05 5.43 5.03 5.43 5.03 5.38 5 5.38 5 5.36 4.98 5.36 4.98 5.31 4.96 5.31 4.96 5.36 4.98 5.36 4.98 5.38 5 5.38 5 5.43 5.03 5.43 5.03 5.45 5.05 5.45 5.05 5.5 5.08 5.5 5.08 5.52 5.03 5.52 5.03 5.5 5 5.5 5 5.45 4.98 5.45 4.98 5.43 4.96 5.43 4.96 5.38 4.91 5.38 4.91 5.36 4.89 5.36 4.89 5.33 4.86 5.33 4.86 5.31 4.81 5.31 4.81 5.45 4.77 5.45 4.77 5.48 4.6 5.48 4.6 5.5 4.58 5.5 4.58 5.52 4.55 5.52 4.55 5.55 4.53 5.55 4.53 5.57 4.55 5.57 4.55 5.6 4.51 5.6 4.51 5.57 4.48 5.57 4.48 5.55 4.46 5.55 4.46 5.57 4.48 5.57 4.48 5.67 4.51 5.67 4.51 5.72 4.53 5.72 4.53 5.77 4.55 5.77 4.55 5.81 4.58 5.81 4.58 5.86 4.6 5.86 4.6 5.91 4.63 5.91 4.63 5.96 4.65 5.96 4.65 6.01 4.67 6.01 4.67 6.06 4.7 6.06 4.7 6.1 4.72 6.1 4.72 6.15 4.74 6.15 4.74 6.18 4.77 6.18 4.77 6.23 4.79 6.23 4.79 6.27 4.81 6.27 4.81 6.32 4.84 6.32 4.84 6.35 4.86 6.35 4.86 6.37 4.91 6.37 4.91 6.39 4.96 6.39 4.96 6.42 5 6.42 5 6.44 5.08 6.44 5.08 6.47 5.15 6.47 5.15 6.49 5.29 6.49 5.29 6.52 5.38 6.52 5.38 6.54 5.53 6.54 5.53 6.56 5.76 6.56 5.76 6.59 6.29 6.59 6.29 6.56 6.55 6.56 6.55 6.54 6.64 6.54 6.64 6.52 6.76 6.52 6.76 6.49 6.86 6.49 6.86 6.47 6.93 6.47 6.93 6.44 7 6.44 7 6.42 7.02 6.42 7.02 6.39 7.04 6.39 7.04 6.37 7.07 6.37 7.07 6.32 7.09 6.32 7.09 6.27 7.12 6.27 7.12 6.23 7.14 6.23 7.14 6.18 7.16 6.18 7.16 6.15 7.19 6.15 7.19 6.1 7.21 6.1 7.21 6.08 7.23 6.08 7.23 6.01 7.26 6.01 7.26 5.98 7.28 5.98 7.28 5.94 7.31 5.94 7.31 5.89 7.33 5.89 7.33 5.84 7.35 5.84 7.35 5.79 7.38 5.79 7.38 5.74 7.4 5.74 7.4 5.69 7.42 5.69 7.42 5.65 7.45 5.65 7.45 5.6 7.47 5.6 7.47 5.55 7.5 5.55 7.5 5.5 7.52 5.5 7.52 5.43 7.54 5.43 7.54 5.38 7.57 5.38 7.57 5.33 7.59 5.33 7.59 5.28 7.61 5.28 7.61 5.21 7.64 5.21 7.64 5.16 7.66 5.16 7.66 5.11 7.69 5.11 7.69 5.07 7.71 5.07 7.71 5.02 7.73 5.02 7.73 4.97 7.76 4.97 7.76 4.92 7.78 4.92 7.78 4.85 7.8 4.85 7.8 4.8 7.83 4.8 7.83 4.75 7.85 4.75 7.85 4.7 7.88 4.7 7.88 4.65 7.9 4.65 7.9 4.58 7.92 4.58 7.92 4.53 7.95 4.53 7.95 4.49 7.97 4.49 7.97 4.44 7.99 4.44 7.99 4.36 8.02 4.36 8.02 4.34 8.04 4.34 8.04 4.27 8.06 4.27 8.06 4.22 8.09 4.22 8.09 4.15 8.11 4.15 8.11 4.12 8.09 4.12 8.09 4.15 8.06 4.15 8.06 4.17 8.04 4.17 8.04 4.15 8.06 4.15 8.06 4.1 8.04 4.1 8.04 4.07 8.02 4.07 8.02 4.1 7.97 4.1 7.97 4.15 7.95 4.15 7.95 4.12 7.92 4.12 7.92 4.17 7.9 4.17 7.9 4.15 7.85 4.15 7.85 4.12 7.83 4.12 7.83 4.07 7.78 4.07 7.78 4.03 7.76 4.03 7.76 4.05 7.73 4.05 7.73 4.07 7.71 4.07 7.71 4.1 7.69 4.1 7.69 4.05 7.66 4.05 7.66 4.1 7.61 4.1 7.61 4.07 7.64 4.07 7.64 4.05 7.61 4.05 7.61 4.07 7.59 4.07 7.59 4.1 7.57 4.1 7.57 4.17 7.54 4.17 7.54 4.22 7.52 4.22 7.52 4.27 7.5 4.27 7.5 4.32 7.47 4.32 7.47 4.36 7.45 4.36 7.45 4.41 7.42 4.41 7.42 4.46 7.4 4.46 7.4 4.51 7.38 4.51 7.38 4.56 7.35 4.56 7.35 4.61 7.33 4.61 7.33 4.65 7.31 4.65 7.31 4.7 7.28 4.7 7.28 4.78 7.26 4.78 7.26 4.8 7.23 4.8 7.23 4.87 7.21 4.87 7.21 4.92 7.19 4.92 7.19 4.97 7.16 4.97 7.16 5.02 7.14 5.02 7.14 5.07 7.12 5.07 7.12 5.11 7.09 5.11 7.09 5.16 7.07 5.16 7.07 5.21 7.04 5.21 7.04 5.26 7.02 5.26 7.02 5.31 7 5.31 7 5.36 6.97 5.36 6.97 5.4 6.95 5.4 6.95 5.43 6.93 5.43 6.93 5.48 6.9 5.48 6.9 5.52 6.88 5.52 6.88 5.57 6.86 5.57 6.86 5.62 6.83 5.62 6.83 5.65 6.81 5.65 6.81 5.69 6.78 5.69 6.78 5.74 6.76 5.74 6.76 5.77 6.74 5.77 6.74 5.81 6.71 5.81 6.71 5.84 6.69 5.84 6.69 5.86 6.67 5.86 6.67 5.89 6.64 5.89 6.64 5.91 6.59 5.91 6.59 5.94 6.5 5.94 6.5 5.96 6.38 5.96 6.38 5.98 6.21 5.98 6.21 6.01 5.81 6.01 5.81 5.98 5.67 5.98 5.67 5.96 5.57 5.96 5.57 5.94 5.53 5.94 5.53 5.91 5.48 5.91 5.48 5.89 5.43 5.89 5.43 5.86 5.38 5.86 5.38 5.84 5.36 5.84 5.36 5.81 5.34 5.81 5.34 5.79 5.31 5.79 5.31 5.77 5.29 5.77 5.29 5.74 5.27 5.74 5.27 5.77 5.24 5.77 5.24 5.74 5.22 5.74 5.22 5.72 5.24 5.72 5.24 5.74 5.27 5.74 5.27 5.72 5.24 5.72 5.24 5.69 5.22 5.69 5.22 5.72 5.19 5.72 5.19 5.69 5.17 5.69 5.17 5.67 5.15 5.67 5.15 5.65 5.12 5.65 5.12 5.6 5.1 5.6 5.1 5.57 5.12 5.57 5.12 5.6 5.15 5.6 5.15 5.65 5.17 5.65 5.17 5.67 5.19 5.67 5.19 5.69 5.22 5.69 5.22 5.67 5.19 5.67 5.19 5.65 5.17 5.65 5.17 5.6"/>
      <polygon class="st32" points="2.54 1.54 2.56 1.54 2.56 1.37 2.59 1.37 2.59 1.34 2.61 1.34 2.61 1.27 2.63 1.27 2.63 1.15 2.61 1.15 2.61 1.08 2.59 1.08 2.59 1.05 2.56 1.05 2.56 1.03 2.51 1.03 2.51 1.01 2.47 1.01 2.47 .98 2.4 .98 2.4 .96 2.37 .96 2.37 .93 2.44 .93 2.44 .96 2.49 .96 2.49 .98 2.54 .98 2.54 1.01 2.59 1.01 2.59 1.03 2.63 1.03 2.63 1.05 2.7 1.05 2.7 1.08 2.75 1.08 2.75 1.1 2.77 1.1 2.77 1.13 2.82 1.13 2.82 1.15 2.87 1.15 2.87 1.17 2.89 1.17 2.89 1.2 2.94 1.2 2.94 1.22 2.96 1.22 2.96 1.25 2.99 1.25 2.99 1.27 3.01 1.27 3.01 1.3 3.06 1.3 3.06 1.32 3.08 1.32 3.08 1.34 3.11 1.34 3.11 1.37 3.13 1.37 3.13 1.39 3.15 1.39 3.15 1.42 3.18 1.42 3.18 1.44 3.2 1.44 3.2 1.49 3.23 1.49 3.23 1.51 3.25 1.51 3.25 1.54 3.27 1.54 3.27 1.56 3.3 1.56 3.3 1.61 3.32 1.61 3.32 1.63 3.34 1.63 3.34 1.61 3.37 1.61 3.37 1.56 3.39 1.56 3.39 1.54 3.42 1.54 3.42 1.51 3.44 1.51 3.44 1.49 3.46 1.49 3.46 1.46 3.84 1.46 3.84 1.44 3.89 1.44 3.89 1.42 3.94 1.42 3.94 1.39 3.98 1.39 3.98 1.37 4.01 1.37 4.01 1.34 4.06 1.34 4.06 1.32 4.1 1.32 4.1 1.3 4.13 1.3 4.13 1.27 4.15 1.27 4.15 1.25 4.2 1.25 4.2 1.22 4.25 1.22 4.25 1.2 4.29 1.2 4.29 1.17 4.34 1.17 4.34 1.15 4.41 1.15 4.41 1.13 4.48 1.13 4.48 1.1 4.55 1.1 4.55 1.08 4.67 1.08 4.67 1.05 4.72 1.05 4.72 1.03 4.74 1.03 4.74 1.01 4.77 1.01 4.77 .98 4.81 .98 4.81 .96 4.84 .96 4.84 .93 4.86 .93 4.86 .91 4.91 .91 4.91 .88 4.96 .88 4.96 .86 5.03 .86 5.03 .84 5.05 .84 5.05 .81 5.08 .81 5.08 .79 5.1 .79 5.1 .74 5.12 .74 5.12 .64 5.08 .64 5.08 .62 5.03 .62 5.03 .59 4.81 .59 4.81 .57 3.56 .57 3.56 .55 1.57 .55 1.57 .57 1.59 .57 1.59 .62 1.57 .62 1.57 .67 1.49 .67 1.49 .69 1.54 .69 1.54 .72 1.52 .72 1.52 .76 1.54 .76 1.54 .79 1.59 .79 1.59 .81 1.68 .81 1.68 .84 1.73 .84 1.73 .86 1.8 .86 1.8 .88 1.85 .88 1.85 .91 1.9 .91 1.9 .93 1.92 .93 1.92 .96 1.97 .96 1.97 .98 1.99 .98 1.99 1.01 2.04 1.01 2.04 1.03 2.06 1.03 2.06 1.05 2.11 1.05 2.11 1.08 2.13 1.08 2.13 1.1 2.16 1.1 2.16 1.13 2.18 1.13 2.18 1.15 2.21 1.15 2.21 1.17 2.23 1.17 2.23 1.2 2.25 1.2 2.25 1.22 2.28 1.22 2.28 1.25 2.3 1.25 2.3 1.27 2.32 1.27 2.32 1.3 2.35 1.3 2.35 1.32 2.37 1.32 2.37 1.34 2.4 1.34 2.4 1.37 2.42 1.37 2.42 1.39 2.44 1.39 2.44 1.42 2.47 1.42 2.47 1.46 2.49 1.46 2.49 1.49 2.51 1.49 2.51 1.51 2.54 1.51 2.54 1.54"/>
      <path class="st38" d="M4.32,3.88v-.05h-.02v-.05h-.02v-.05h-.02v-.07h-.02v-.05h-.02v-.07h-.02v-.05h-.02v-.07h-.02v-.05h-.02v-.05h-.02v-.05h-.02v-.07h-.02v-.05h-.02v-.05h-.02v-.05h-.02v-.05h-.02v-.05h-.02v-.05h-.02v-.05h-.02v-.07h-.02v-.05h-.02v-.05h-.02v-.07h-.02v-.05h-.02v-.05h-.02v-.05h-.02v-.07h-.02v-.05h-.02v-.05h-.02v-.05h-.02v-.05h-.02v-.05h-.02v-.05h-.02v-.02h-.02v-.05h-.02v-.05h-.02v-.05h-.02v-.05h-.02v-.05h-.02v-.05h-.02v-.05h-.02v-.05h-.02v-.02h-.02v-.05h-.02v-.02h-.02v-.02h-.02v-.05h-.02v-.02h-.02v-.02h-.02v-.02h-.02v-.02h-.02v-.05h-.02v-.02h-.02v-.02h-.02v-.02h-.02v-.05h-.02v-.02h-.02v-.02h-.02v-.02h-.05v-.02h-.02v-.02h-.05v-.02h-.05v-.02h-.02v-.02h-.05v-.02h-.07v-.02h-.05v-.02h-.05v-.02h-.05v-.02h-.05v-.02h-.07v.02h.02v.02h.07v.02h.05v.02h.05v.02h.02v.02h.02v.07h.02v.12h-.02v.07h-.02v.02h-.02v.17h-.02v.02h.02v.02h.02v.15h-.02v.07h-.02v.05h-.02v.05h-.02v.05h-.02v.05h-.02v.02h-.02v.05h-.02v.02h-.02v.05h-.02v.05h-.02v.05h-.02v.05h-.02v.02h-.02v.05h-.02v.05h-.02v.02h-.02v.07h-.02v.05h-.02v.05h-.02v.05h-.02v.05h-.02v.05h-.02v.05h-.02v.05h-.02v.02h.02v-.02h.02v-.02h.02v-.02h.02v-.02h.02v-.05h.02v-.05h.02v-.05h.02v-.05h.02v-.02h.02v.02h.02v-.02h.02v-.02h.07v-.02h.05v.02h.02v.05h.02v.02h.05v.02h.02v.05h-.02v.02h.02v-.02h.07v.02h.02v.02h.02v-.05h.02v.05h.02v-.05h.02v-.05h.02v-.05h.02v-.05h.02v-.07h.02v-.05h.02v-.05h.02v-.05h.02v-.05h.02v-.07h.02v-.17h.02v.02h.02v.14h.02v.07h.02v.05h.02v.07h.02v.05h.02v.05h.02v.07h.02v.07h.02v.05h.02v.05h.02v.07h.02v.05h.02v.05h.02v.07h.02v.07h.02v.05h.02v.05h.02v.05h.02v.05h.02v.05h.02v.05h.02v.05h.02v.05h.02v.05h.02v.07h.02v.05h.02v.05h.02v.07h.02v.05h.02v.05h.02v.07h.02v.05h.02v-.05h-.02v-.02h.02v.02h.02v.02h.05v-.02h.02v-.02h.05v-.02h.02v-.05h.24v.02h.05v.02h.02v.02h.02v.02h.02v.05h.02v.02h.02v-.07h.02ZM3.2,1.46v-.02h-.02v-.02h-.02v-.02h-.02v-.02h-.02v-.02h-.02v-.02h-.02v-.02h-.02v.02h.02v.02h.02v.02h.02v.02h.02v.02h.02v.02h.02v.02h.02ZM4.36,3.98v-.02h-.02v.02h-.02v-.02h-.02v.05h.05v-.02h.02Z"/>
      <path class="st38" d="M8.9,2.5h.02v-.05h.02v-.05h.02v-.07h.02v-.05h.02v-.1h.02v-.19h.02v.19h.02v.07h.02v.05h.02v.05h.02v.05h.02v.02h.02v.05h.02v.05h.02v.07h.02v.05h.02v.05h.02v.07h.02v.07h.02v.07h.02v.05h.02v.07h.02v.05h.02v.05h.07v.05h.02v-.05h.02v-.02h.02v-.02h.02v-.05h.02v-.02h.02v-.02h.17v-.02h.02v.02h.05v.02h.05v.05h.02v.02h.02v.05h.02v.02h.02v.02h.02v.05h.02v.02h.02v.05h.02v-.02h.02v.02h.02v-.05h-.02v-.05h-.02v-.07h-.02v-.05h-.02v-.07h-.02v-.05h-.02v-.05h-.02v-.05h-.02v-.05h-.02v-.05h-.02v-.07h-.02v-.05h-.02v-.05h-.02v-.05h-.02v-.07h-.02v-.05h-.02v-.05h-.02v-.05h-.02v-.05h-.02v-.07h-.02v-.05h-.02v-.05h-.02v-.05h-.02v-.05h-.02v-.05h-.02v-.05h-.02v-.05h-.02v-.07h-.02v-.05h-.02v-.05h-.02v-.05h-.02v-.07h-.02v-.05h-.02v-.05h-.02v-.05h-.02v-.07h-.02v-.05h-.02v-.05h-.02v-.05h-.02v-.05h-.02v-.05h-.02v-.05h-.02v-.05h-.02v-.05h-.02v-.05h-.02v-.02h-.02v-.02h-.07v.02h-.02v.02h-.05v.02h-.02v.02h-.02v.02h-.02v.05h-.02v.05h-.02v.07h-.02v.1h-.02v.07h-.02v.05h-.02v.07h-.02v.07h-.02v.05h-.02v.07h-.02v.05h-.02v.05h-.02v.07h-.02v.05h-.02v.05h-.02v.07h-.02v.05h-.02v.05h-.02v.05h-.02v.05h-.02v.05h-.02v.07h-.02v.05h-.02v.05h-.02v.05h-.02v.02h.02v-.02h.02v.02h.02v-.02h.02v.02h-.02v.02h.05v-.02h.05v-.02h.05v.02h.02v.02h.02v.02h.02v.02h.05v.02h.02v-.02h.02v.05h.02v.05h.02v-.05h.05v.02h-.02v.05h-.05v.02h.02v.02h-.02v.05h.02v-.05h.02v-.05h.02v-.05h.02v-.02h.02v-.05h.02v-.05h.02v-.02h.02v.02ZM8.85,2.6h-.02v.02h.02v-.02Z"/>
      <path class="st34" d="M5.29,5.74v.02h.02v.02h.02v.02h.02v.02h.02v.02h.02v-.02h-.02v-.02h-.02v-.02h-.02v-.02h-.02v-.02h-.02v-.02h-.02v-.02h-.02v-.02h-.02v-.02h-.02v-.02h-.02v.02h.02v.02h.02v.02h-.02v-.02h-.02v-.02h-.02v-.05h-.02v-.02h-.02v.02h.02v.05h.02v.02h.02v.02h.02v.02h.02v-.02h.02v.02h.02v.02h-.02v-.02h-.02v.02h.02v.02h.02v-.02h.02ZM5.17,5.6v-.02h-.02v-.02h-.02v-.05h-.02v-.02h-.02v.02h.02v.02h-.02v.05h.02v-.02h.02v.02h.02v.02h.02ZM5.03,5.38v-.02h-.02v-.05h-.02v-.05h-.02v-.05h-.02v-.05h-.02v-.05h-.02v-.05h-.02v-.05h-.02v-.05h-.02v-.07h-.02v-.05h-.02v-.05h-.02v-.05h-.02v-.07h-.02v-.05h-.02v-.02h-.02v-.05h-.02v-.05h-.02v-.05h-.02v-.05h-.02v-.05h-.02v-.05h-.02v-.07h-.02v-.05h-.02v-.05h-.02v-.05h-.02v-.05h-.02v-.05h-.02v-.02h-.02v.02h-.05v-.05h.02v.02h.02v-.07h-.02v-.02h-.02v.07h-.02v-.02h-.02v-.05h-.02v-.02h-.02v-.02h-.02v-.02h-.05v-.02h-.24v.05h-.02v.02h-.05v.02h-.02v.02h-.05v-.02h-.02v-.02h-.02v.02h.02v.1h.02v.05h.02v.05h.02v.05h.02v.05h.02v.05h.02v.07h.02v.05h.02v.05h.02v.05h.02v.07h.02v.05h.02v.05h.02v.05h.02v.05h.02v.07h.02v.05h.02v.05h.02v.05h.02v.05h.02v.05h.02v.05h.02v.07h.02v.05h.02v.05h.02v.05h.02v.07h.02v.05h.02v.05h.02v.05h.02v.07h.02v.05h.02v-.05h-.02v-.02h.02v.02h.02v.02h.05v-.02h-.02v-.02h.02v-.02h.02v-.02h.02v-.02h.17v-.02h.05v-.14h.05v.02h.02v.02h.02v.02h.05v.05h.02v.02h.02v.05h.02v.02h.05v-.02h-.02v-.05h-.02v-.02h-.02v-.05h-.02v-.02h-.02v-.05h.02v.05h.02v.02h.02ZM5.08,5.45v-.02h-.02v-.02h-.02v.02h.02v.02h.02Z"/>
      <polygon class="st40" points="10.48 3.98 10.46 3.98 10.46 3.95 10.44 3.95 10.44 3.93 10.41 3.93 10.41 3.95 10.44 3.95 10.44 4 10.41 4 10.41 3.98 10.39 3.98 10.39 3.95 10.37 3.95 10.37 3.93 10.27 3.93 10.27 3.95 10.18 3.95 10.18 3.98 10.06 3.98 10.06 4 9.96 4 9.96 4.05 9.94 4.05 9.94 4.07 9.92 4.07 9.92 4.03 9.89 4.03 9.89 4.12 9.92 4.12 9.92 4.17 9.94 4.17 9.94 4.24 9.96 4.24 9.96 4.29 9.99 4.29 9.99 4.34 10.01 4.34 10.01 4.39 10.03 4.39 10.03 4.46 10.06 4.46 10.06 4.51 10.08 4.51 10.08 4.58 10.1 4.58 10.1 4.63 10.13 4.63 10.13 4.7 10.15 4.7 10.15 4.75 10.18 4.75 10.18 4.8 10.2 4.8 10.2 4.85 10.22 4.85 10.22 4.9 10.25 4.9 10.25 4.94 10.27 4.94 10.27 4.99 10.29 4.99 10.29 5.02 10.32 5.02 10.32 5.07 10.34 5.07 10.34 5.11 10.37 5.11 10.37 5.16 10.39 5.16 10.39 5.21 10.41 5.21 10.41 5.26 10.44 5.26 10.44 5.31 10.46 5.31 10.46 5.38 10.48 5.38 10.48 5.43 10.51 5.43 10.51 5.48 10.53 5.48 10.53 5.52 10.56 5.52 10.56 5.57 10.58 5.57 10.58 5.62 10.6 5.62 10.6 5.69 10.63 5.69 10.63 5.74 10.65 5.74 10.65 5.77 10.67 5.77 10.67 5.81 10.7 5.81 10.7 5.89 10.72 5.89 10.72 5.94 10.75 5.94 10.75 5.98 10.79 5.98 10.79 5.96 10.82 5.96 10.82 5.91 10.84 5.91 10.84 5.84 10.86 5.84 10.86 5.79 10.89 5.79 10.89 5.72 10.91 5.72 10.91 5.65 10.94 5.65 10.94 5.21 10.91 5.21 10.91 5.11 10.89 5.11 10.89 4.99 10.86 4.99 10.86 4.92 10.84 4.92 10.84 4.85 10.82 4.85 10.82 4.78 10.79 4.78 10.79 4.73 10.77 4.73 10.77 4.65 10.75 4.65 10.75 4.61 10.72 4.61 10.72 4.53 10.7 4.53 10.7 4.49 10.67 4.49 10.67 4.41 10.65 4.41 10.65 4.36 10.63 4.36 10.63 4.32 10.6 4.32 10.6 4.24 10.58 4.24 10.58 4.2 10.56 4.2 10.56 4.12 10.53 4.12 10.53 4.07 10.51 4.07 10.51 4.03 10.48 4.03 10.48 3.98"/>
      <path class="st34" d="M8.85,2.6v-.02h.02v-.02h.02v-.07h-.02v.02h-.02v.05h-.02v.05h-.02v.02h-.02v.05h-.02v.05h-.02v.05h-.02v-.05h.02v-.02h-.02v-.02h.05v-.05h.02v-.02h-.05v.05h-.02v-.05h-.02v-.05h-.02v.02h-.02v-.02h-.05v-.02h-.02v-.02h-.02v-.02h-.02v-.02h-.05v.02h-.05v.02h-.05v-.02h.02v-.02h-.02v.02h-.02v-.02h-.02v.02h-.02v.05h-.02v.05h-.02v.05h-.02v.07h-.02v.07h-.02v.02h-.02v.07h-.02v.05h-.02v.05h-.02v.05h-.02v.05h-.02v.07h-.02v.05h-.02v.05h-.02v.05h-.02v.07h-.02v.05h-.02v.05h-.02v.07h-.02v.05h-.02v.05h-.02v.07h-.02v.02h-.02v.07h-.02v.05h-.02v.05h-.02v.02h-.02v.07h-.02v.02h-.02v.05h-.02v.02h.02v-.02h.02v.02h-.02v.02h.05v-.05h.02v.05h.02v-.02h.02v-.02h.02v-.02h.02v.05h.05v.05h.02v.02h.05v.02h.02v-.05h.02v.02h.02v-.05h.05v-.02h.02v.02h.02v.05h-.02v.02h.02v-.02h.02v-.02h.05v-.05h.02v-.05h.02v-.05h.02v-.05h.02v-.05h.02v-.05h.02v-.05h.02v-.05h.02v-.05h.02v-.05h.02v-.05h.02v-.05h.02v-.05h.02v-.05h.02v-.05h.02v-.05h.02v-.05h.02v-.07h.02v-.05h.02v-.05h.02v-.05h.02v-.05h.02v-.05h.02v-.05h.02v-.05h.02v-.07h.02v-.05h.02v-.05h.02v-.05h.02v-.07h.02ZM8.11,4.15h-.02v.02h.02v-.02Z"/>
      <path class="st34" d="M2.02,2.84v.02h-.02v.02h-.02v.05h-.02v.05h-.02v.05h-.02v.05h-.02v.07h-.02v.05h-.02v.05h-.02v.05h-.02v.07h-.02v.05h-.02v.05h-.02v.05h-.02v.07h-.02v.05h-.02v.05h-.02v.05h-.02v.05h-.02v.05h-.02v.05h-.02v.05h-.02v.05h-.02v.02h.02v.07h-.02v.02h.02v-.02h.02v-.05h.02v.05h.02v.02h.07v.02h.05v.05h.02v.02h.05v-.02h.02v-.05h.17v-.05h.02v-.02h.02v-.02h.02v-.02h.02v-.05h.05v-.05h.02v-.05h.02v-.02h.02v-.05h.02v-.07h.02v-.05h.02v-.02h.02v-.07h.02v-.05h.02v-.05h.02v-.05h.02v-.05h.02v-.05h.02v-.05h.02v-.05h.02v-.05h.02v-.05h.02v-.05h.02v-.05h.02v-.05h.02v-.07h.02v-.05h.02v-.05h.02v-.05h.02v-.1h-.02v.05h-.02v-.02h-.02v-.02h-.07v.02h-.02v-.02h.02v-.05h-.02v-.02h-.05v-.02h-.02v-.05h-.02v-.02h-.05v.02h-.07v.02h-.02v.02h-.02v-.02h-.02v.02h-.02v.05h-.02v.05h-.02v.05h-.02v.05h-.02v.02h-.02v.02h-.02v.02h-.02ZM2.04,4.03h-.02v.02h.02v-.02Z"/>
      <polygon class="st40" points="1.47 4 1.47 4.03 1.45 4.03 1.45 4.07 1.42 4.07 1.42 4.12 1.4 4.12 1.4 4.17 1.38 4.17 1.38 4.22 1.35 4.22 1.35 4.27 1.33 4.27 1.33 4.32 1.3 4.32 1.3 4.36 1.28 4.36 1.28 4.41 1.26 4.41 1.26 4.49 1.23 4.49 1.23 4.53 1.21 4.53 1.21 4.58 1.19 4.58 1.19 4.63 1.16 4.63 1.16 4.7 1.14 4.7 1.14 4.78 1.11 4.78 1.11 4.82 1.09 4.82 1.09 4.92 1.07 4.92 1.07 5.02 1.04 5.02 1.04 5.14 1.02 5.14 1.02 5.23 1 5.23 1 5.36 .97 5.36 .97 5.55 .95 5.55 .95 5.81 .97 5.81 .97 6.06 1 6.06 1 6.01 1.02 6.01 1.02 5.98 1.04 5.98 1.04 5.96 1.07 5.96 1.07 5.94 1.09 5.94 1.09 5.91 1.11 5.91 1.11 5.86 1.14 5.86 1.14 5.84 1.16 5.84 1.16 5.79 1.19 5.79 1.19 5.77 1.21 5.77 1.21 5.72 1.23 5.72 1.23 5.69 1.26 5.69 1.26 5.65 1.28 5.65 1.28 5.6 1.3 5.6 1.3 5.55 1.33 5.55 1.33 5.5 1.35 5.5 1.35 5.45 1.38 5.45 1.38 5.4 1.4 5.4 1.4 5.36 1.42 5.36 1.42 5.31 1.45 5.31 1.45 5.23 1.47 5.23 1.47 5.19 1.49 5.19 1.49 5.14 1.52 5.14 1.52 5.09 1.54 5.09 1.54 5.04 1.57 5.04 1.57 4.97 1.59 4.97 1.59 4.92 1.61 4.92 1.61 4.87 1.64 4.87 1.64 4.82 1.66 4.82 1.66 4.78 1.68 4.78 1.68 4.73 1.71 4.73 1.71 4.68 1.73 4.68 1.73 4.63 1.75 4.63 1.75 4.58 1.78 4.58 1.78 4.53 1.8 4.53 1.8 4.49 1.83 4.49 1.83 4.44 1.85 4.44 1.85 4.39 1.87 4.39 1.87 4.34 1.9 4.34 1.9 4.29 1.92 4.29 1.92 4.24 1.94 4.24 1.94 4.2 1.97 4.2 1.97 4.15 1.99 4.15 1.99 4.1 2.02 4.1 2.02 4.03 2.04 4.03 2.04 4 2.06 4 2.06 3.95 2.04 3.95 2.04 4 2.02 4 2.02 4.03 1.99 4.03 1.99 4.05 1.97 4.05 1.97 4.07 1.94 4.07 1.94 4.12 1.78 4.12 1.78 4.17 1.75 4.17 1.75 4.2 1.71 4.2 1.71 4.17 1.68 4.17 1.68 4.12 1.64 4.12 1.64 4.1 1.57 4.1 1.57 4.07 1.54 4.07 1.54 4.03 1.52 4.03 1.52 4.07 1.49 4.07 1.49 4.1 1.47 4.1 1.47 4.07 1.49 4.07 1.49 4 1.47 4"/>
      <polygon class="st22" points="5.1 3.76 5.1 3.88 4.96 3.88 4.96 3.86 4.77 3.86 4.77 3.88 4.7 3.88 4.7 3.91 4.65 3.91 4.65 3.88 4.58 3.88 4.58 3.86 4.53 3.86 4.53 3.83 4.48 3.83 4.48 3.81 4.46 3.81 4.46 3.78 4.44 3.78 4.44 3.74 4.41 3.74 4.41 3.71 4.39 3.71 4.39 3.66 4.36 3.66 4.36 3.59 4.34 3.59 4.34 3.57 4.27 3.57 4.27 3.49 4.25 3.49 4.25 3.47 4.22 3.47 4.22 3.4 4.2 3.4 4.2 3.35 4.17 3.35 4.17 3.3 4.15 3.3 4.15 3.28 4.13 3.28 4.13 3.33 4.15 3.33 4.15 3.37 4.17 3.37 4.17 3.42 4.2 3.42 4.2 3.47 4.22 3.47 4.22 3.54 4.25 3.54 4.25 3.59 4.27 3.59 4.27 3.64 4.29 3.64 4.29 3.69 4.32 3.69 4.32 3.74 4.34 3.74 4.34 3.78 4.36 3.78 4.36 3.86 4.39 3.86 4.39 3.91 4.41 3.91 4.41 3.95 4.44 3.95 4.44 4 4.46 4 4.46 4.07 4.48 4.07 4.48 4.1 4.51 4.1 4.51 4.17 4.53 4.17 4.53 4.2 4.55 4.2 4.55 4.27 4.58 4.27 4.58 4.32 4.6 4.32 4.6 4.36 4.63 4.36 4.63 4.46 4.65 4.46 4.65 4.49 4.67 4.49 4.67 4.53 4.7 4.53 4.7 4.58 4.72 4.58 4.72 4.63 4.74 4.63 4.74 4.68 4.77 4.68 4.77 4.73 4.79 4.73 4.79 4.78 4.81 4.78 4.81 4.85 4.84 4.85 4.84 4.9 4.86 4.9 4.86 4.94 4.89 4.94 4.89 4.99 4.91 4.99 4.91 5.07 4.93 5.07 4.93 5.11 4.96 5.11 4.96 5.14 4.98 5.14 4.98 5.19 5 5.19 5 5.23 5.03 5.23 5.03 5.28 5.05 5.28 5.05 5.31 5.1 5.31 5.1 5.33 5.12 5.33 5.12 5.38 5.17 5.38 5.17 5.4 5.19 5.4 5.19 5.36 5.22 5.36 5.22 5.28 5.24 5.28 5.24 5.26 5.27 5.26 5.27 5.23 5.29 5.23 5.29 5.11 5.31 5.11 5.31 5.09 5.34 5.09 5.34 5.07 5.36 5.07 5.36 5.04 5.38 5.04 5.38 4.9 5.36 4.9 5.36 4.78 5.34 4.78 5.34 4.68 5.31 4.68 5.31 4.58 5.29 4.58 5.29 4.53 5.27 4.53 5.27 4.44 5.24 4.44 5.24 4.32 5.22 4.32 5.22 4.2 5.19 4.2 5.19 4.1 5.17 4.1 5.17 4.03 5.15 4.03 5.15 3.88 5.12 3.88 5.12 3.76 5.1 3.76"/>
      <polygon class="st34" points="10.46 3.95 10.46 3.98 10.48 3.98 10.48 3.95 10.46 3.95 10.46 3.91 10.44 3.91 10.44 3.86 10.41 3.86 10.41 3.78 10.39 3.78 10.39 3.74 10.37 3.74 10.37 3.69 10.34 3.69 10.34 3.62 10.32 3.62 10.32 3.57 10.29 3.57 10.29 3.49 10.27 3.49 10.27 3.45 10.25 3.45 10.25 3.4 10.22 3.4 10.22 3.33 10.2 3.33 10.2 3.3 10.18 3.3 10.18 3.28 10.15 3.28 10.15 3.3 10.13 3.3 10.13 3.25 10.1 3.25 10.1 3.23 10.08 3.23 10.08 3.18 10.06 3.18 10.06 3.16 10.03 3.16 10.03 3.13 10.01 3.13 10.01 3.08 9.99 3.08 9.99 3.06 9.96 3.06 9.96 3.01 9.92 3.01 9.92 2.99 9.87 2.99 9.87 2.96 9.84 2.96 9.84 2.99 9.68 2.99 9.68 3.01 9.65 3.01 9.65 3.04 9.63 3.04 9.63 3.08 9.61 3.08 9.61 3.11 9.58 3.11 9.58 3.13 9.56 3.13 9.56 3.18 9.54 3.18 9.54 3.13 9.49 3.13 9.49 3.2 9.51 3.2 9.51 3.25 9.54 3.25 9.54 3.3 9.56 3.3 9.56 3.37 9.58 3.37 9.58 3.42 9.61 3.42 9.61 3.47 9.63 3.47 9.63 3.52 9.65 3.52 9.65 3.59 9.68 3.59 9.68 3.64 9.7 3.64 9.7 3.69 9.73 3.69 9.73 3.76 9.75 3.76 9.75 3.81 9.77 3.81 9.77 3.86 9.8 3.86 9.8 3.93 9.82 3.93 9.82 3.98 9.84 3.98 9.84 4.03 9.87 4.03 9.87 4.07 9.89 4.07 9.89 4.03 9.92 4.03 9.92 4.07 9.94 4.07 9.94 4.05 9.96 4.05 9.96 4 10.06 4 10.06 3.98 10.18 3.98 10.18 3.95 10.27 3.95 10.27 3.93 10.37 3.93 10.37 3.95 10.39 3.95 10.39 3.98 10.41 3.98 10.41 4 10.44 4 10.44 3.95 10.41 3.95 10.41 3.93 10.44 3.93 10.44 3.95 10.46 3.95"/>
    </g>
  </g>
  <g id="_x23_3b2c23ff">
    <path class="st63" d="M1.95,2.11C2.95.92,4.32.04,5.84,0c1.58-.11,3.09.69,4.17,1.91.39-.46.78-.92,1.25-1.3.07.85-.21,1.76.15,2.56.31.77.53,1.6.6,2.44v.35c-.03,1.16-.68,2.11-1.43,2.87.36.25.72.52,1.07.79-.74.62-1.63,1.1-2.59,1.12-1.08.02-2.09-.49-2.96-1.13-.7.57-1.49.98-2.33,1.26h-.81c-.82-.08-1.58-.43-2.28-.87.32-.25.64-.49.97-.73-.56-.54-1.17-1.09-1.42-1.88-.42-1.26-.19-2.65.22-3.88.29-.78.27-1.63.39-2.45.4.31.76.67,1.11,1.05M2.27,2.79c.03.06.07.18.1.24.12.1.25.2.37.3.16-.25.32-.49.47-.74.37-.23.72-.51,1.02-.83,1.07-.36,2.23-.56,3.3-.08.48.25.94.57,1.33.96.15.17.29.35.44.52.15-.18.3-.36.45-.54-.16-.21-.33-.41-.5-.62-.28-.25-.54-.54-.88-.69C6.41-.04,3.53.68,2.27,2.79M6.61,1.74c.21.33.38.69.48,1.08.23-.12.45-.3.71-.3.28.08.52.28.77.43-.03.29.02.61-.1.88-.24.32-.57.55-.84.84.73.05,1.04-.75,1.45-1.26-.14-.14-.27-.28-.42-.4-.46-.75-1.3-1.01-2.05-1.27M2.94,3.6c.31.36.57.77.91,1.09.19.15.42.03.62-.01-.31-.29-.74-.47-.94-.88-.24-.55.24-1.23.78-1.22.22.03.41.14.61.23.09-.34.22-.67.34-.99-.95.28-1.78.9-2.33,1.79M5.49,2.16c-.36.43-.22,1.07-.21,1.59-.33.37-.72.79-.69,1.36-.07.8.53,1.56,1.26,1.63.85.15,1.71-.69,1.64-1.62.04-.61-.43-.99-.72-1.44-.07-.51.09-1.13-.29-1.53-.26-.31-.73-.3-.98.02M6.55,7.99c-.17.32-.32.66-.37,1.03l.1-.12c1.09.3,2.35.51,3.38-.13.89-.59,1.71-1.47,1.85-2.64.08-1.17-.25-2.33-.78-3.33,0-.28,0-.55,0-.83-1.61,1.8-3.04,3.81-4.17,6.01M1.17,2.16c0,.25-.05.51,0,.76-.47,1.1-.79,2.31-.67,3.54.19,1.3,1.18,2.28,2.28,2.71,1.04.33,2.14.07,3.15-.26l.1.12c-.07-.47-.32-.86-.54-1.26-1.2-2.06-2.65-3.95-4.3-5.61M3.76,3.69c.15.27.43.41.66.58.2-.24.4-.48.6-.71-.16-.23-.28-.51-.52-.66-.43-.22-.92.32-.75.79M7.45,2.9c-.18.18-.3.43-.43.65.21.22.4.45.64.64.29-.16.64-.38.66-.77.03-.47-.52-.78-.87-.52M9.75,9.17c-.46.15-.91.31-1.39.35-.64.05-1.26-.11-1.9-.15.78.62,1.76.98,2.74.93.67-.03,1.3-.32,1.89-.65-.35-.3-.76-.5-1.18-.67-.04.05-.12.15-.16.2M1.23,9.97h.18c1.42.91,3.28.49,4.49-.64-.93.22-1.87.29-2.81.39-.3-.16-.6-.31-.9-.46-.34.2-.68.42-.97.7Z"/>
    <path class="st63" d="M5.75,4.09c.76-.3,1.6.69,1.24,1.49-.26.75-1.28.97-1.74.31-.52-.57-.19-1.59.5-1.8M5.2,5.31c.16.33.37.74.78.72.61.08,1.07-.73.76-1.29-.16-.35-.54-.41-.85-.47-.41.18-.66.57-.68,1.04Z"/>
  </g>
  <g id="_x23_fffeecff">
    <path class="st48" d="M2.27,2.79C3.53.68,6.41-.04,8.38,1.31c-.08-.02-.25-.08-.34-.1-.85-.24-1.76-.49-2.64-.23-.47.1-.89.36-1.17.77-.3.32-.66.6-1.02.83-.29.13-.56.28-.84.44-.03-.06-.07-.18-.1-.24Z"/>
  </g>
  <g id="_x23_fbe600ff">
    <path class="st49" d="M5.4.98c.88-.26,1.78-.01,2.64.23-.17.15-.34.31-.51.46-1.07-.48-2.23-.28-3.3.08.28-.41.71-.68,1.17-.77Z"/>
  </g>
  <g id="_x23_dd8000ff">
    <path class="st54" d="M8.04,1.21c.08.02.25.08.34.1.34.16.6.44.88.69-.13.21-.26.42-.39.63-.4-.39-.85-.71-1.33-.96.17-.15.34-.31.51-.46Z"/>
  </g>
  <g id="_x23_feef00ff">
    <path class="st50" d="M6.61,1.74c.75.26,1.59.53,2.05,1.27l-.09-.07c-.25-.15-.49-.35-.77-.43-.26,0-.48.18-.71.3-.1-.39-.27-.75-.48-1.08Z"/>
  </g>
  <g id="_x23_fff400ff">
    <path class="st64" d="M2.94,3.6c.55-.89,1.39-1.5,2.33-1.79-.13.32-.25.65-.34.99-.2-.08-.4-.19-.61-.23-.54,0-1.02.66-.78,1.22.2.41.63.59.94.88-.2.05-.43.17-.62.01-.34-.32-.61-.73-.91-1.09Z"/>
  </g>
  <g id="_x23_fff200ff">
    <path class="st53" d="M5.49,2.16c.25-.32.72-.33.98-.02.38.4.22,1.02.29,1.53.29.45.77.83.72,1.44.07.94-.79,1.78-1.64,1.62-.73-.07-1.33-.83-1.26-1.63-.03-.56.35-.99.69-1.36,0-.53-.14-1.16.21-1.59M5.75,2.55c-.33.18-.43.7-.13.97.29.4.94.09.93-.39.06-.43-.45-.82-.8-.58M5.75,4.09c-.68.21-1.01,1.22-.5,1.8.46.66,1.48.44,1.74-.31.36-.8-.48-1.79-1.24-1.49Z"/>
  </g>
  <g id="_x23_f8e000ff">
    <path class="st56" d="M9.26,2.01c.17.2.33.41.5.62-.15.18-.3.36-.45.54-.15-.17-.29-.35-.44-.52.13-.21.26-.42.39-.63Z"/>
    <path class="st56" d="M7.72,6.73c.94-1.36,1.96-2.65,3-3.92.53,1,.86,2.16.78,3.33-.62.5-1.22,1.16-2.03,1.25-.65.1-1.23-.31-1.75-.67M10.17,4.51c-.08.3.08.7.42.6.28-.25.16-.65.14-.97-.2.05-.56.06-.55.37Z"/>
    <path class="st56" d="M.49,6.46c-.11-1.22.2-2.44.67-3.54,1.11,1.24,2.2,2.49,3.2,3.83-.47.38-.98.82-1.61.83-.88.04-1.58-.61-2.27-1.12M1.24,4.61c-.43.46-.44,1.36.02,1.79.35.13.54-.4.57-.7.03-.42-.06-1.16-.59-1.1Z"/>
  </g>
  <g id="_x23_fffeefff">
    <path class="st60" d="M6.55,7.99c1.13-2.2,2.56-4.21,4.17-6.01,0,.28,0,.55,0,.83-1.04,1.27-2.06,2.56-3,3.92-.51.7-.93,1.47-1.44,2.17l-.1.12c.05-.37.2-.71.37-1.03Z"/>
  </g>
  <g id="_x23_fffef0ff">
    <path class="st66" d="M1.17,2.16c1.65,1.66,3.1,3.55,4.3,5.61.22.39.47.79.54,1.26l-.1-.12c-.55-.7-1.01-1.47-1.56-2.16-1-1.34-2.09-2.59-3.2-3.83-.04-.25,0-.51,0-.76Z"/>
    <path class="st66" d="M10.17,4.51c-.01-.31.35-.32.55-.37.02.33.15.73-.14.97-.34.09-.5-.3-.42-.6Z"/>
  </g>
  <g id="_x23_f3e509ff">
    <path class="st58" d="M2.37,3.03c.28-.16.55-.3.84-.44-.15.25-.31.49-.47.74-.12-.1-.25-.2-.37-.3Z"/>
  </g>
  <g id="_x23_3c2f20ff">
    <path class="st57" d="M5.75,2.55c.35-.25.86.15.8.58,0,.48-.63.79-.93.39-.3-.27-.2-.78.13-.97"/>
  </g>
  <g id="_x23_e2a000ff">
    <path class="st55" d="M3.76,3.69c-.18-.47.31-1.01.75-.79.23.16.36.43.52.66-.2.23-.4.47-.6.71-.23-.18-.51-.31-.66-.58Z"/>
  </g>
  <g id="_x23_e3a000ff">
    <path class="st55" d="M7.45,2.9c.35-.25.9.06.87.52-.02.39-.38.61-.66.77-.23-.18-.43-.42-.64-.64.13-.22.25-.47.43-.65Z"/>
  </g>
  <g id="_x23_e18300ff">
    <path class="st65" d="M8.57,2.95l.09.07c.15.12.28.26.42.4-.4.51-.71,1.31-1.45,1.26.27-.29.6-.52.84-.84.12-.28.07-.59.1-.88Z"/>
    <path class="st55" d="M3.1,9.73c.94-.1,1.89-.17,2.81-.39-1.21,1.13-3.07,1.55-4.49.64.57,0,1.13-.09,1.68-.25Z"/>
  </g>
  <g id="_x23_fffef1ff">
    <path class="st51" d="M5.2,5.31c.02-.48.27-.87.68-1.04,0,.32,0,.64,0,.96-.22.03-.45.06-.67.09Z"/>
  </g>
  <g id="_x23_f9e100ff">
    <path class="st61" d="M5.89,4.27c.32.07.69.12.85.47.32.56-.15,1.37-.76,1.29-.4.02-.62-.39-.78-.72.22-.03.45-.06.67-.09.01-.32.02-.64,0-.95Z"/>
  </g>
  <g id="_x23_fffee9ff">
    <path class="st52" d="M1.24,4.61c.53-.06.62.67.59,1.1-.02.3-.22.82-.57.7-.47-.43-.45-1.33-.02-1.79Z"/>
  </g>
  <g id="_x23_db8000ff">
    <path class="st55" d="M9.47,7.39c.81-.09,1.4-.76,2.03-1.25-.14,1.17-.97,2.05-1.85,2.64-1.03.63-2.28.43-3.38.13.51-.7.93-1.47,1.44-2.17.53.36,1.1.76,1.75.67Z"/>
    <path class="st55" d="M.49,6.46c.68.51,1.39,1.15,2.27,1.12.62,0,1.13-.44,1.61-.83.55.69,1.01,1.47,1.56,2.16-1.01.34-2.11.59-3.15.26-1.1-.43-2.1-1.41-2.28-2.71Z"/>
  </g>
  <g id="_x23_fff300ff">
    <path class="st59" d="M9.75,9.17s.12-.15.16-.2c.42.17.82.37,1.18.67-.58.04-1.17.05-1.75.03.14-.17.27-.33.41-.5Z"/>
  </g>
  <g id="_x23_e08300ff">
    <path class="st55" d="M8.36,9.52c.48-.03.93-.2,1.39-.35-.14.17-.27.33-.41.5.58.02,1.17.02,1.75-.03-.59.33-1.22.63-1.89.65-.98.05-1.95-.31-2.74-.93.63.04,1.26.2,1.9.15Z"/>
  </g>
  <g id="_x23_fff100ff">
    <path class="st62" d="M1.23,9.97c.29-.29.62-.5.97-.7.3.15.6.3.9.46-.55.15-1.11.25-1.68.25h-.18Z"/>
  </g>
  <g id="_2135163583104">
    <path class="st20" d="M5.76,4.28h0c0,.15.39.3.05.84-.06.09-.17.26-.34.19-.12-.05-.27-.14-.27-.27v-.03.03c-.21.56.77,1.57,1.43.71.59-.77-.15-1.76-.85-1.47h-.02Z"/>
    <path class="st30" d="M5.19,5v.03c0,.14.15.23.27.27.17.07.28-.1.34-.19.35-.54-.05-.69-.05-.84h0c-.23.05-.54.42-.56.72h0Z"/>
    <path class="st20" d="M5.95,2.7c-.47.1-.35.85.08.79.44-.06.38-.89-.08-.79Z"/>
    <path class="st45" d="M6.1,8.43c.11-.28,0-.28.29-.85.1-.2.12-.13.17-.2-.02,0-.79.12-1.04-.02.07.16.25.33.34.48.05.09.23.59.24.59Z"/>
  </g>
</svg>